%TF.GenerationSoftware,KiCad,Pcbnew,(6.99.0-5337-gc57e6db79a-dirty)*%
%TF.CreationDate,2023-02-06T14:04:29-05:00*%
%TF.ProjectId,m0116,6d303131-362e-46b6-9963-61645f706362,rev?*%
%TF.SameCoordinates,Original*%
%TF.FileFunction,Soldermask,Bot*%
%TF.FilePolarity,Negative*%
%FSLAX46Y46*%
G04 Gerber Fmt 4.6, Leading zero omitted, Abs format (unit mm)*
G04 Created by KiCad (PCBNEW (6.99.0-5337-gc57e6db79a-dirty)) date 2023-02-06 14:04:29*
%MOMM*%
%LPD*%
G01*
G04 APERTURE LIST*
G04 Aperture macros list*
%AMRoundRect*
0 Rectangle with rounded corners*
0 $1 Rounding radius*
0 $2 $3 $4 $5 $6 $7 $8 $9 X,Y pos of 4 corners*
0 Add a 4 corners polygon primitive as box body*
4,1,4,$2,$3,$4,$5,$6,$7,$8,$9,$2,$3,0*
0 Add four circle primitives for the rounded corners*
1,1,$1+$1,$2,$3*
1,1,$1+$1,$4,$5*
1,1,$1+$1,$6,$7*
1,1,$1+$1,$8,$9*
0 Add four rect primitives between the rounded corners*
20,1,$1+$1,$2,$3,$4,$5,0*
20,1,$1+$1,$4,$5,$6,$7,0*
20,1,$1+$1,$6,$7,$8,$9,0*
20,1,$1+$1,$8,$9,$2,$3,0*%
G04 Aperture macros list end*
%ADD10R,1.000000X1.000000*%
%ADD11O,1.000000X1.000000*%
%ADD12O,1.800000X1.070000*%
%ADD13R,1.800000X1.070000*%
%ADD14C,2.250000*%
%ADD15RoundRect,0.250000X0.475000X-0.337500X0.475000X0.337500X-0.475000X0.337500X-0.475000X-0.337500X0*%
%ADD16RoundRect,0.250000X0.337500X0.475000X-0.337500X0.475000X-0.337500X-0.475000X0.337500X-0.475000X0*%
%ADD17RoundRect,0.250000X-0.325000X-0.450000X0.325000X-0.450000X0.325000X0.450000X-0.325000X0.450000X0*%
%ADD18R,1.200000X0.900000*%
%ADD19RoundRect,0.250000X0.475000X-0.250000X0.475000X0.250000X-0.475000X0.250000X-0.475000X-0.250000X0*%
%ADD20RoundRect,0.250000X-0.337500X-0.475000X0.337500X-0.475000X0.337500X0.475000X-0.337500X0.475000X0*%
%ADD21R,1.800000X1.100000*%
%ADD22RoundRect,0.150000X-0.625000X0.150000X-0.625000X-0.150000X0.625000X-0.150000X0.625000X0.150000X0*%
%ADD23RoundRect,0.250000X-0.650000X0.350000X-0.650000X-0.350000X0.650000X-0.350000X0.650000X0.350000X0*%
%ADD24RoundRect,0.150000X0.587500X0.150000X-0.587500X0.150000X-0.587500X-0.150000X0.587500X-0.150000X0*%
%ADD25RoundRect,0.250000X-0.350000X-0.450000X0.350000X-0.450000X0.350000X0.450000X-0.350000X0.450000X0*%
%ADD26RoundRect,0.250000X-0.450000X0.350000X-0.450000X-0.350000X0.450000X-0.350000X0.450000X0.350000X0*%
%ADD27RoundRect,0.250000X0.450000X-0.350000X0.450000X0.350000X-0.450000X0.350000X-0.450000X-0.350000X0*%
%ADD28RoundRect,0.075000X0.700000X0.075000X-0.700000X0.075000X-0.700000X-0.075000X0.700000X-0.075000X0*%
%ADD29RoundRect,0.075000X0.075000X0.700000X-0.075000X0.700000X-0.075000X-0.700000X0.075000X-0.700000X0*%
%ADD30RoundRect,0.150000X-0.512500X-0.150000X0.512500X-0.150000X0.512500X0.150000X-0.512500X0.150000X0*%
%ADD31RoundRect,0.150000X0.825000X0.150000X-0.825000X0.150000X-0.825000X-0.150000X0.825000X-0.150000X0*%
%ADD32RoundRect,0.250000X-0.475000X0.337500X-0.475000X-0.337500X0.475000X-0.337500X0.475000X0.337500X0*%
%ADD33RoundRect,0.250000X0.350000X0.450000X-0.350000X0.450000X-0.350000X-0.450000X0.350000X-0.450000X0*%
%ADD34R,1.400000X1.200000*%
%ADD35RoundRect,0.250000X0.450000X-0.262500X0.450000X0.262500X-0.450000X0.262500X-0.450000X-0.262500X0*%
%ADD36R,2.200000X2.200000*%
%ADD37R,1.900000X0.800000*%
%ADD38RoundRect,0.150000X0.625000X-0.150000X0.625000X0.150000X-0.625000X0.150000X-0.625000X-0.150000X0*%
%ADD39RoundRect,0.250000X0.650000X-0.350000X0.650000X0.350000X-0.650000X0.350000X-0.650000X-0.350000X0*%
%ADD40RoundRect,0.150000X-0.150000X0.587500X-0.150000X-0.587500X0.150000X-0.587500X0.150000X0.587500X0*%
%ADD41R,0.375000X0.500000*%
%ADD42R,0.300000X0.650000*%
%ADD43RoundRect,0.250000X0.262500X0.450000X-0.262500X0.450000X-0.262500X-0.450000X0.262500X-0.450000X0*%
%TA.AperFunction,Profile*%
%ADD44C,0.150000*%
%TD*%
%TA.AperFunction,Profile*%
%ADD45C,0.050000*%
%TD*%
%TA.AperFunction,Profile*%
%ADD46C,0.200000*%
%TD*%
G04 APERTURE END LIST*
D10*
%TO.C,J7*%
X257999999Y-47749999D03*
D11*
X256729999Y-47749999D03*
X255459999Y-47749999D03*
X254189999Y-47749999D03*
X252919999Y-47749999D03*
%TD*%
D10*
%TO.C,J4*%
X280309999Y-33249999D03*
D11*
X279039999Y-33249999D03*
X277769999Y-33249999D03*
X276499999Y-33249999D03*
%TD*%
D10*
%TO.C,J1*%
X208749999Y-20999999D03*
D11*
X207479999Y-20999999D03*
X206209999Y-20999999D03*
X204939999Y-20999999D03*
%TD*%
D12*
%TO.C,LED3*%
X292689999Y-103959999D03*
X292689999Y-106499999D03*
D13*
X292689999Y-105229999D03*
D12*
X292689999Y-102689999D03*
%TD*%
%TO.C,LED2*%
X292689999Y-86459999D03*
X292689999Y-88999999D03*
D13*
X292689999Y-87729999D03*
D12*
X292689999Y-85189999D03*
%TD*%
%TO.C,LED1*%
X292689999Y-68959999D03*
X292689999Y-71499999D03*
D13*
X292689999Y-70229999D03*
D12*
X292689999Y-67689999D03*
%TD*%
D14*
%TO.C,SW_LGUI_1*%
X56063750Y-120865000D03*
X61063750Y-120365000D03*
%TD*%
%TO.C,SW_L_1*%
X196557500Y-82765000D03*
X201557500Y-82265000D03*
%TD*%
%TO.C,SW_TAB_1*%
X15582500Y-63715000D03*
X20582500Y-63215000D03*
%TD*%
%TO.C,SW_KPMINUS_1*%
X363245000Y-82765000D03*
X368245000Y-82265000D03*
%TD*%
%TO.C,SW_KP7_1*%
X306095000Y-63715000D03*
X311095000Y-63215000D03*
%TD*%
%TO.C,SW_RALT_1*%
X172745000Y-120865000D03*
X177745000Y-120365000D03*
%TD*%
%TO.C,SW_UPX_2*%
X272995000Y-109815000D03*
X267995000Y-110315000D03*
%TD*%
%TO.C,SW_SP2_2*%
X149170000Y-128865000D03*
X144170000Y-129365000D03*
%TD*%
%TO.C,SW_9_1*%
X182270000Y-44665000D03*
X187270000Y-44165000D03*
%TD*%
%TO.C,SW_SP2_3*%
X137026250Y-120865000D03*
X142026250Y-120365000D03*
%TD*%
%TO.C,SW_KP4_1*%
X306095000Y-82765000D03*
X311095000Y-82265000D03*
%TD*%
%TO.C,SW_BACKSL_2*%
X268250000Y-63715000D03*
X273250000Y-63215000D03*
%TD*%
%TO.C,SW_1_1*%
X29870000Y-44665000D03*
X34870000Y-44165000D03*
%TD*%
%TO.C,SW_EQ_1*%
X239420000Y-44665000D03*
X244420000Y-44165000D03*
%TD*%
%TO.C,SW_BACKSL_1*%
X266495000Y-70215000D03*
X265995000Y-65215000D03*
%TD*%
%TO.C,SW_POW_1*%
X115220000Y-28165000D03*
X114720000Y-23165000D03*
%TD*%
%TO.C,SW_ENTER_2*%
X266495000Y-80615000D03*
X265995000Y-75615000D03*
%TD*%
%TO.C,SW_LCTRL_3*%
X18201250Y-128865000D03*
X13201250Y-129365000D03*
%TD*%
%TO.C,SW_KPPLUS_1*%
X363245000Y-63715000D03*
X368245000Y-63215000D03*
%TD*%
%TO.C,SW_Y_1*%
X134645000Y-63715000D03*
X139645000Y-63215000D03*
%TD*%
%TO.C,SW_F_1*%
X101307500Y-82765000D03*
X106307500Y-82265000D03*
%TD*%
%TO.C,SW_V_1*%
X110832500Y-101815000D03*
X115832500Y-101315000D03*
%TD*%
%TO.C,SW_X_1*%
X72732500Y-101815000D03*
X77732500Y-101315000D03*
%TD*%
%TO.C,SW_B_1*%
X129882500Y-101815000D03*
X134882500Y-101315000D03*
%TD*%
%TO.C,SW_KP2_1*%
X325145000Y-101815000D03*
X330145000Y-101315000D03*
%TD*%
%TO.C,SW_2_1*%
X48920000Y-44665000D03*
X53920000Y-44165000D03*
%TD*%
%TO.C,SW_RGUI_3*%
X239420000Y-120865000D03*
X244420000Y-120365000D03*
%TD*%
%TO.C,SW_COMMA_1*%
X187032500Y-101815000D03*
X192032500Y-101315000D03*
%TD*%
%TO.C,SW_KPENT_2*%
X361745000Y-117840000D03*
X361245000Y-112840000D03*
%TD*%
%TO.C,SW_E_1*%
X77495000Y-63715000D03*
X82495000Y-63215000D03*
%TD*%
%TO.C,SW_ENTER_3*%
X253707500Y-82765000D03*
X258707500Y-82265000D03*
%TD*%
%TO.C,SW_U_1*%
X153695000Y-63715000D03*
X158695000Y-63215000D03*
%TD*%
%TO.C,SW_J_1*%
X158457500Y-82765000D03*
X163457500Y-82265000D03*
%TD*%
%TO.C,SW_APOS_1*%
X234657500Y-82765000D03*
X239657500Y-82265000D03*
%TD*%
%TO.C,SW_LALT_3*%
X75351250Y-128865000D03*
X70351250Y-129365000D03*
%TD*%
%TO.C,SW_M_1*%
X167982500Y-101815000D03*
X172982500Y-101315000D03*
%TD*%
%TO.C,SW_LALT_5*%
X65826250Y-128865000D03*
X60826250Y-129365000D03*
%TD*%
%TO.C,SW_SP2_6*%
X139250000Y-128865000D03*
X134250000Y-129365000D03*
%TD*%
%TO.C,SW_SP2_4*%
X147000000Y-128865000D03*
X142000000Y-129365000D03*
%TD*%
D12*
%TO.C,LED4*%
X292689999Y-120824999D03*
X292689999Y-123364999D03*
D13*
X292689999Y-122094999D03*
D12*
X292689999Y-119554999D03*
%TD*%
D14*
%TO.C,SW_W_1*%
X58445000Y-63715000D03*
X63445000Y-63215000D03*
%TD*%
%TO.C,SW_CCTRL_1*%
X17963750Y-82765000D03*
X22963750Y-82265000D03*
%TD*%
%TO.C,SW_5_1*%
X106070000Y-44665000D03*
X111070000Y-44165000D03*
%TD*%
%TO.C,SW_RCTRL_3*%
X268000000Y-128865000D03*
X263000000Y-129365000D03*
%TD*%
%TO.C,SW_LCTRL_2*%
X29870000Y-120865000D03*
X34870000Y-120365000D03*
%TD*%
%TO.C,SW_LALT_1*%
X82257500Y-120865000D03*
X87257500Y-120365000D03*
%TD*%
%TO.C,SW_RGUI_1*%
X191795000Y-120865000D03*
X196795000Y-120365000D03*
%TD*%
%TO.C,SW_RSUP1_1*%
X229895000Y-120865000D03*
X234895000Y-120365000D03*
%TD*%
%TO.C,SW_SP1_2*%
X113451250Y-128865000D03*
X108451250Y-129365000D03*
%TD*%
%TO.C,SW_S_1*%
X63207500Y-82765000D03*
X68207500Y-82265000D03*
%TD*%
%TO.C,SW_RALT_4*%
X220500000Y-128865000D03*
X215500000Y-129365000D03*
%TD*%
%TO.C,SW_LSH_1*%
X22726250Y-101815000D03*
X27726250Y-101315000D03*
%TD*%
%TO.C,SW_R_1*%
X96545000Y-63715000D03*
X101545000Y-63215000D03*
%TD*%
%TO.C,SW_D_1*%
X82257500Y-82765000D03*
X87257500Y-82265000D03*
%TD*%
%TO.C,SW_P_1*%
X210845000Y-63715000D03*
X215845000Y-63215000D03*
%TD*%
%TO.C,SW_C_1*%
X91782500Y-101815000D03*
X96782500Y-101315000D03*
%TD*%
%TO.C,SW_O_1*%
X191795000Y-63715000D03*
X196795000Y-63215000D03*
%TD*%
%TO.C,SW_RSH_2*%
X251563750Y-109815000D03*
X246563750Y-110315000D03*
%TD*%
%TO.C,SW_RALT_2*%
X218226250Y-128865000D03*
X213226250Y-129365000D03*
%TD*%
%TO.C,SW_ESC_1*%
X10820000Y-44665000D03*
X15820000Y-44165000D03*
%TD*%
%TO.C,SW_0_1*%
X201320000Y-44665000D03*
X206320000Y-44165000D03*
%TD*%
%TO.C,SW_LALT_2*%
X67970000Y-120865000D03*
X72970000Y-120365000D03*
%TD*%
%TO.C,SW_KPEQ_1*%
X325145000Y-44665000D03*
X330145000Y-44165000D03*
%TD*%
%TO.C,SW_BS_1*%
X263232500Y-44665000D03*
X268232500Y-44165000D03*
%TD*%
%TO.C,SW_KP9_1*%
X344195000Y-63715000D03*
X349195000Y-63215000D03*
%TD*%
%TO.C,SW_K_1*%
X177507500Y-82765000D03*
X182507500Y-82265000D03*
%TD*%
%TO.C,SW_Q_1*%
X39395000Y-63715000D03*
X44395000Y-63215000D03*
%TD*%
%TO.C,SW_SP2_5*%
X139250000Y-120865000D03*
X144250000Y-120365000D03*
%TD*%
%TO.C,SW_LSH_2*%
X18201250Y-109815000D03*
X13201250Y-110315000D03*
%TD*%
%TO.C,SW_LBRC_1*%
X229895000Y-63715000D03*
X234895000Y-63215000D03*
%TD*%
%TO.C,SW_MINUS_1*%
X220370000Y-44665000D03*
X225370000Y-44165000D03*
%TD*%
%TO.C,SW_RSUP3_1*%
X267995000Y-120865000D03*
X272995000Y-120365000D03*
%TD*%
%TO.C,SW_KPPER_1*%
X344195000Y-120865000D03*
X349195000Y-120365000D03*
%TD*%
%TO.C,SW_Z_1*%
X53682500Y-101815000D03*
X58682500Y-101315000D03*
%TD*%
%TO.C,SW_RALT_3*%
X208701250Y-128865000D03*
X203701250Y-129365000D03*
%TD*%
%TO.C,SW_A_1*%
X44157500Y-82765000D03*
X49157500Y-82265000D03*
%TD*%
%TO.C,SW_KPENTX_1*%
X363245000Y-101815000D03*
X368245000Y-101315000D03*
%TD*%
%TO.C,SW_KPMULT_1*%
X363245000Y-44665000D03*
X368245000Y-44165000D03*
%TD*%
%TO.C,SW_KP5_1*%
X325145000Y-82765000D03*
X330145000Y-82265000D03*
%TD*%
%TO.C,SW_LCTRL_1*%
X20582500Y-128865000D03*
X15582500Y-129365000D03*
%TD*%
%TO.C,SW_RGUI_2*%
X246801250Y-128865000D03*
X241801250Y-129365000D03*
%TD*%
%TO.C,SW_KP1_1*%
X306095000Y-101815000D03*
X311095000Y-101315000D03*
%TD*%
%TO.C,SW_LGUI_2*%
X41776250Y-120865000D03*
X46776250Y-120365000D03*
%TD*%
%TO.C,SW_ENTER_1*%
X265851250Y-90765000D03*
X260851250Y-91265000D03*
%TD*%
%TO.C,SW_KPDIV_1*%
X344195000Y-44665000D03*
X349195000Y-44165000D03*
%TD*%
%TO.C,SW_H_1*%
X139407500Y-82765000D03*
X144407500Y-82265000D03*
%TD*%
%TO.C,SW_SP3_2*%
X172825000Y-128865000D03*
X167825000Y-129365000D03*
%TD*%
%TO.C,SW_8_1*%
X163220000Y-44665000D03*
X168220000Y-44165000D03*
%TD*%
%TO.C,SW_T_1*%
X115595000Y-63715000D03*
X120595000Y-63215000D03*
%TD*%
%TO.C,SW_N_1*%
X148932500Y-101815000D03*
X153932500Y-101315000D03*
%TD*%
%TO.C,SW_RBRC_1*%
X248945000Y-63715000D03*
X253945000Y-63215000D03*
%TD*%
%TO.C,SW_CAPS_2*%
X39632500Y-109815000D03*
X34632500Y-110315000D03*
%TD*%
%TO.C,SW_KP0_1*%
X306095000Y-120865000D03*
X311095000Y-120365000D03*
%TD*%
%TO.C,SW_KP3_1*%
X344195000Y-101815000D03*
X349195000Y-101315000D03*
%TD*%
%TO.C,SW_SP3_1*%
X153695000Y-120865000D03*
X158695000Y-120365000D03*
%TD*%
%TO.C,SW_SP1_1*%
X101307500Y-120865000D03*
X106307500Y-120365000D03*
%TD*%
%TO.C,SW_4_1*%
X87020000Y-44665000D03*
X92020000Y-44165000D03*
%TD*%
%TO.C,SW_7_1*%
X144170000Y-44665000D03*
X149170000Y-44165000D03*
%TD*%
%TO.C,SW_RCTRL_2*%
X265851250Y-128865000D03*
X260851250Y-129365000D03*
%TD*%
%TO.C,SW_LALT_4*%
X67500000Y-128865000D03*
X62500000Y-129365000D03*
%TD*%
%TO.C,SW_SLASH_1*%
X225132500Y-101815000D03*
X230132500Y-101315000D03*
%TD*%
%TO.C,SW_6_1*%
X125120000Y-44665000D03*
X130120000Y-44165000D03*
%TD*%
%TO.C,SW_CAPS_1*%
X10820000Y-120865000D03*
X15820000Y-120365000D03*
%TD*%
%TO.C,SW_RSUP2_1*%
X248945000Y-120865000D03*
X253945000Y-120365000D03*
%TD*%
%TO.C,SW_3_1*%
X67970000Y-44665000D03*
X72970000Y-44165000D03*
%TD*%
%TO.C,SW_KPENT_1*%
X363245000Y-120865000D03*
X368245000Y-120365000D03*
%TD*%
%TO.C,SW_KP0_2*%
X320620000Y-128865000D03*
X315620000Y-129365000D03*
%TD*%
%TO.C,SW_KP0X_1*%
X325145000Y-120865000D03*
X330145000Y-120365000D03*
%TD*%
%TO.C,SW_PER_1*%
X206082500Y-101815000D03*
X211082500Y-101315000D03*
%TD*%
%TO.C,SW_SP2_1*%
X127501250Y-120865000D03*
X132501250Y-120365000D03*
%TD*%
%TO.C,SW_KPCLR_1*%
X306095000Y-44665000D03*
X311095000Y-44165000D03*
%TD*%
%TO.C,SW_COLON_1*%
X215607500Y-82765000D03*
X220607500Y-82265000D03*
%TD*%
%TO.C,SW_RCTRL_1*%
X210845000Y-120865000D03*
X215845000Y-120365000D03*
%TD*%
%TO.C,SW_G_1*%
X120357500Y-82765000D03*
X125357500Y-82265000D03*
%TD*%
%TO.C,SW_I_1*%
X172745000Y-63715000D03*
X177745000Y-63215000D03*
%TD*%
%TO.C,SW_KP6_1*%
X344195000Y-82765000D03*
X349195000Y-82265000D03*
%TD*%
%TO.C,SW_LGUI_3*%
X44395000Y-128865000D03*
X39395000Y-129365000D03*
%TD*%
%TO.C,SW_KP8_1*%
X325145000Y-63715000D03*
X330145000Y-63215000D03*
%TD*%
%TO.C,SW_RSH_1*%
X256088750Y-101815000D03*
X261088750Y-101315000D03*
%TD*%
D15*
%TO.C,C8*%
X269071751Y-28537500D03*
X269071751Y-26462500D03*
%TD*%
D16*
%TO.C,C10*%
X219495000Y-35110000D03*
X217420000Y-35110000D03*
%TD*%
D17*
%TO.C,FB1*%
X210036751Y-24687500D03*
X212086751Y-24687500D03*
%TD*%
D18*
%TO.C,D32*%
X275257499Y-42014999D03*
X275257499Y-45314999D03*
%TD*%
%TO.C,D61*%
X94282499Y-78114999D03*
X94282499Y-81414999D03*
%TD*%
%TO.C,D104*%
X22844999Y-116214999D03*
X22844999Y-119514999D03*
%TD*%
%TO.C,D6*%
X165719999Y-116214999D03*
X165719999Y-119514999D03*
%TD*%
D19*
%TO.C,C16*%
X286750000Y-105400000D03*
X286750000Y-103500000D03*
%TD*%
D20*
%TO.C,C14*%
X271411751Y-25522500D03*
X273486751Y-25522500D03*
%TD*%
D18*
%TO.C,D99*%
X140499999Y-114599999D03*
X140499999Y-117899999D03*
%TD*%
D21*
%TO.C,SW1*%
X261051750Y-24227499D03*
X267251750Y-20527499D03*
X261051750Y-20527499D03*
X267251750Y-24227499D03*
%TD*%
D22*
%TO.C,J3*%
X278625000Y-22500000D03*
X278625000Y-23500000D03*
X278625000Y-24500000D03*
X278625000Y-25500000D03*
D23*
X282500000Y-21200000D03*
X282500000Y-26800000D03*
%TD*%
D24*
%TO.C,Q3*%
X252671751Y-20737500D03*
X252671751Y-22637500D03*
X250796751Y-21687500D03*
%TD*%
D25*
%TO.C,R16*%
X218651751Y-29797500D03*
X220651751Y-29797500D03*
%TD*%
D18*
%TO.C,D105*%
X141907499Y-97164999D03*
X141907499Y-100464999D03*
%TD*%
%TO.C,D70*%
X273099999Y-91499999D03*
X273099999Y-94799999D03*
%TD*%
%TO.C,D48*%
X203819999Y-59064999D03*
X203819999Y-62364999D03*
%TD*%
D19*
%TO.C,C18*%
X297500000Y-70500000D03*
X297500000Y-68600000D03*
%TD*%
D18*
%TO.C,D74*%
X356219999Y-97164999D03*
X356219999Y-100464999D03*
%TD*%
%TO.C,D93*%
X371199999Y-113519999D03*
X371199999Y-116819999D03*
%TD*%
%TO.C,D75*%
X356939999Y-105419999D03*
X356939999Y-108719999D03*
%TD*%
D24*
%TO.C,Q1*%
X256861751Y-21487500D03*
X256861751Y-23387500D03*
X254986751Y-22437500D03*
%TD*%
D18*
%TO.C,D20*%
X41894999Y-40014999D03*
X41894999Y-43314999D03*
%TD*%
%TO.C,D87*%
X237157499Y-97164999D03*
X237157499Y-100464999D03*
%TD*%
D16*
%TO.C,C19*%
X248211751Y-21172500D03*
X246136751Y-21172500D03*
%TD*%
D18*
%TO.C,D40*%
X51419999Y-59064999D03*
X51419999Y-62364999D03*
%TD*%
%TO.C,D63*%
X132382499Y-78114999D03*
X132382499Y-81414999D03*
%TD*%
%TO.C,D28*%
X194294999Y-42014999D03*
X194294999Y-45314999D03*
%TD*%
%TO.C,D25*%
X137144999Y-42014999D03*
X137144999Y-45314999D03*
%TD*%
%TO.C,D96*%
X42749999Y-114599999D03*
X42749999Y-117899999D03*
%TD*%
%TO.C,D29*%
X200029999Y-36799999D03*
X200029999Y-40099999D03*
%TD*%
D25*
%TO.C,R9*%
X256661751Y-27022500D03*
X258661751Y-27022500D03*
%TD*%
D18*
%TO.C,D80*%
X103807499Y-97164999D03*
X103807499Y-100464999D03*
%TD*%
%TO.C,D43*%
X108569999Y-59064999D03*
X108569999Y-62364999D03*
%TD*%
%TO.C,D52*%
X318119999Y-61064999D03*
X318119999Y-64364999D03*
%TD*%
%TO.C,D65*%
X170482499Y-78114999D03*
X170482499Y-81414999D03*
%TD*%
%TO.C,D73*%
X337169999Y-78114999D03*
X337169999Y-81414999D03*
%TD*%
%TO.C,D12*%
X279149999Y-59289999D03*
X279149999Y-62589999D03*
%TD*%
%TO.C,D89*%
X261999999Y-109499999D03*
X261999999Y-112799999D03*
%TD*%
%TO.C,D35*%
X356219999Y-42014999D03*
X356219999Y-45314999D03*
%TD*%
D15*
%TO.C,C22*%
X229000000Y-36287500D03*
X229000000Y-34212500D03*
%TD*%
D18*
%TO.C,D60*%
X75232499Y-78114999D03*
X75232499Y-81414999D03*
%TD*%
%TO.C,D59*%
X56182499Y-78114999D03*
X56182499Y-81414999D03*
%TD*%
%TO.C,D102*%
X260969999Y-116214999D03*
X260969999Y-119514999D03*
%TD*%
D26*
%TO.C,R2*%
X263072500Y-30507500D03*
X263072500Y-32507500D03*
%TD*%
D24*
%TO.C,Q2*%
X259711751Y-28922500D03*
X259711751Y-30822500D03*
X257836751Y-29872500D03*
%TD*%
D15*
%TO.C,C23*%
X245311751Y-25915000D03*
X245311751Y-23840000D03*
%TD*%
D18*
%TO.C,D100*%
X203819999Y-116214999D03*
X203819999Y-119514999D03*
%TD*%
D25*
%TO.C,R17*%
X227500000Y-38750000D03*
X229500000Y-38750000D03*
%TD*%
D18*
%TO.C,D19*%
X22844999Y-40014999D03*
X22844999Y-43314999D03*
%TD*%
%TO.C,D42*%
X89519999Y-59064999D03*
X89519999Y-62364999D03*
%TD*%
D15*
%TO.C,C15*%
X268942500Y-32640000D03*
X268942500Y-30565000D03*
%TD*%
D27*
%TO.C,R14*%
X218661751Y-27797500D03*
X218661751Y-25797500D03*
%TD*%
D18*
%TO.C,D97*%
X67999999Y-114849999D03*
X67999999Y-118149999D03*
%TD*%
%TO.C,D8*%
X222869999Y-116214999D03*
X222869999Y-119514999D03*
%TD*%
D28*
%TO.C,U3*%
X241211751Y-24772500D03*
X241211751Y-25272500D03*
X241211751Y-25772500D03*
X241211751Y-26272500D03*
X241211751Y-26772500D03*
X241211751Y-27272500D03*
X241211751Y-27772500D03*
X241211751Y-28272500D03*
X241211751Y-28772500D03*
X241211751Y-29272500D03*
X241211751Y-29772500D03*
X241211751Y-30272500D03*
X241211751Y-30772500D03*
X241211751Y-31272500D03*
X241211751Y-31772500D03*
X241211751Y-32272500D03*
D29*
X239286751Y-34197500D03*
X238786751Y-34197500D03*
X238286751Y-34197500D03*
X237786751Y-34197500D03*
X237286751Y-34197500D03*
X236786751Y-34197500D03*
X236286751Y-34197500D03*
X235786751Y-34197500D03*
X235286751Y-34197500D03*
X234786751Y-34197500D03*
X234286751Y-34197500D03*
X233786751Y-34197500D03*
X233286751Y-34197500D03*
X232786751Y-34197500D03*
X232286751Y-34197500D03*
X231786751Y-34197500D03*
D28*
X229861751Y-32272500D03*
X229861751Y-31772500D03*
X229861751Y-31272500D03*
X229861751Y-30772500D03*
X229861751Y-30272500D03*
X229861751Y-29772500D03*
X229861751Y-29272500D03*
X229861751Y-28772500D03*
X229861751Y-28272500D03*
X229861751Y-27772500D03*
X229861751Y-27272500D03*
X229861751Y-26772500D03*
X229861751Y-26272500D03*
X229861751Y-25772500D03*
X229861751Y-25272500D03*
X229861751Y-24772500D03*
D29*
X231786751Y-22847500D03*
X232286751Y-22847500D03*
X232786751Y-22847500D03*
X233286751Y-22847500D03*
X233786751Y-22847500D03*
X234286751Y-22847500D03*
X234786751Y-22847500D03*
X235286751Y-22847500D03*
X235786751Y-22847500D03*
X236286751Y-22847500D03*
X236786751Y-22847500D03*
X237286751Y-22847500D03*
X237786751Y-22847500D03*
X238286751Y-22847500D03*
X238786751Y-22847500D03*
X239286751Y-22847500D03*
%TD*%
D18*
%TO.C,D84*%
X180007499Y-97164999D03*
X180007499Y-100464999D03*
%TD*%
%TO.C,D81*%
X122857499Y-97164999D03*
X122857499Y-100464999D03*
%TD*%
%TO.C,D106*%
X280019999Y-116214999D03*
X280019999Y-119514999D03*
%TD*%
%TO.C,D27*%
X175244999Y-42014999D03*
X175244999Y-45314999D03*
%TD*%
D25*
%TO.C,R11*%
X249450000Y-30897500D03*
X251450000Y-30897500D03*
%TD*%
D15*
%TO.C,C1*%
X266542500Y-32602500D03*
X266542500Y-30527500D03*
%TD*%
D18*
%TO.C,D53*%
X356219999Y-61064999D03*
X356219999Y-64364999D03*
%TD*%
%TO.C,D82*%
X128649999Y-21279999D03*
X128649999Y-24579999D03*
%TD*%
%TO.C,D57*%
X29988749Y-78114999D03*
X29988749Y-81414999D03*
%TD*%
D30*
%TO.C,U2*%
X282615000Y-73005000D03*
X282615000Y-72055000D03*
X282615000Y-71105000D03*
X284890000Y-71105000D03*
X284890000Y-73005000D03*
%TD*%
D31*
%TO.C,U4*%
X254400000Y-32757500D03*
X254400000Y-34027500D03*
X254400000Y-35297500D03*
X254400000Y-36567500D03*
X249450000Y-36567500D03*
X249450000Y-35297500D03*
X249450000Y-34027500D03*
X249450000Y-32757500D03*
%TD*%
D18*
%TO.C,D16*%
X357659999Y-47659999D03*
X357659999Y-50959999D03*
%TD*%
D26*
%TO.C,R10*%
X246750000Y-32975000D03*
X246750000Y-34975000D03*
%TD*%
D18*
%TO.C,D45*%
X146669999Y-59064999D03*
X146669999Y-62364999D03*
%TD*%
%TO.C,D54*%
X356219999Y-78114999D03*
X356219999Y-81414999D03*
%TD*%
%TO.C,D49*%
X222869999Y-59064999D03*
X222869999Y-62364999D03*
%TD*%
D32*
%TO.C,C12*%
X212841751Y-33012500D03*
X212841751Y-35087500D03*
%TD*%
D18*
%TO.C,D86*%
X218107499Y-97164999D03*
X218107499Y-100464999D03*
%TD*%
%TO.C,D72*%
X318119999Y-78114999D03*
X318119999Y-81414999D03*
%TD*%
D16*
%TO.C,C11*%
X219487500Y-33040000D03*
X217412500Y-33040000D03*
%TD*%
D18*
%TO.C,D41*%
X70469999Y-59064999D03*
X70469999Y-62364999D03*
%TD*%
%TO.C,D85*%
X199057499Y-97164999D03*
X199057499Y-100464999D03*
%TD*%
%TO.C,D46*%
X165719999Y-59064999D03*
X165719999Y-62364999D03*
%TD*%
D27*
%TO.C,R12*%
X220686751Y-27822500D03*
X220686751Y-25822500D03*
%TD*%
D18*
%TO.C,D68*%
X227632499Y-78114999D03*
X227632499Y-81414999D03*
%TD*%
D19*
%TO.C,C25*%
X286500000Y-123450000D03*
X286500000Y-121550000D03*
%TD*%
D25*
%TO.C,R5*%
X240961751Y-20972500D03*
X242961751Y-20972500D03*
%TD*%
D18*
%TO.C,D103*%
X337169999Y-116214999D03*
X337169999Y-119514999D03*
%TD*%
%TO.C,D33*%
X318119999Y-42014999D03*
X318119999Y-45314999D03*
%TD*%
D15*
%TO.C,C24*%
X247531751Y-25932500D03*
X247531751Y-23857500D03*
%TD*%
D18*
%TO.C,D2*%
X113332499Y-116214999D03*
X113332499Y-119514999D03*
%TD*%
%TO.C,D109*%
X337169999Y-61064999D03*
X337169999Y-64364999D03*
%TD*%
%TO.C,D91*%
X318119999Y-97164999D03*
X318119999Y-100464999D03*
%TD*%
D20*
%TO.C,C3*%
X214534251Y-30905000D03*
X216609251Y-30905000D03*
%TD*%
D18*
%TO.C,D51*%
X260969999Y-59064999D03*
X260969999Y-62364999D03*
%TD*%
%TO.C,D55*%
X357589999Y-85999999D03*
X357589999Y-89299999D03*
%TD*%
D19*
%TO.C,C21*%
X282300000Y-44650000D03*
X282300000Y-42750000D03*
%TD*%
D18*
%TO.C,D31*%
X251444999Y-42014999D03*
X251444999Y-45314999D03*
%TD*%
%TO.C,D66*%
X189532499Y-78114999D03*
X189532499Y-81414999D03*
%TD*%
D33*
%TO.C,R8*%
X255250000Y-30897500D03*
X253250000Y-30897500D03*
%TD*%
D34*
%TO.C,Y1*%
X245311750Y-27787499D03*
X247511750Y-27787499D03*
X247511750Y-29487499D03*
X245311750Y-29487499D03*
%TD*%
D25*
%TO.C,R15*%
X271000000Y-22500000D03*
X273000000Y-22500000D03*
%TD*%
D19*
%TO.C,C17*%
X286750000Y-87750000D03*
X286750000Y-85850000D03*
%TD*%
D18*
%TO.C,D92*%
X337169999Y-97164999D03*
X337169999Y-100464999D03*
%TD*%
%TO.C,D79*%
X84757499Y-97164999D03*
X84757499Y-100464999D03*
%TD*%
%TO.C,D67*%
X208582499Y-78114999D03*
X208582499Y-81414999D03*
%TD*%
D35*
%TO.C,R4*%
X280250000Y-49250000D03*
X280250000Y-47425000D03*
%TD*%
D18*
%TO.C,D50*%
X241919999Y-59064999D03*
X241919999Y-62364999D03*
%TD*%
%TO.C,D7*%
X184769999Y-116214999D03*
X184769999Y-119514999D03*
%TD*%
D36*
%TO.C,BUZ1*%
X287999999Y-46299999D03*
X287999999Y-59499999D03*
%TD*%
D18*
%TO.C,D98*%
X94282499Y-116214999D03*
X94282499Y-119514999D03*
%TD*%
D37*
%TO.C,U1*%
X208611750Y-34977499D03*
X208611750Y-36877499D03*
X205611750Y-35927499D03*
%TD*%
D18*
%TO.C,D23*%
X99044999Y-42014999D03*
X99044999Y-45314999D03*
%TD*%
%TO.C,D34*%
X337169999Y-42014999D03*
X337169999Y-45314999D03*
%TD*%
%TO.C,D107*%
X300749999Y-114099999D03*
X300749999Y-117399999D03*
%TD*%
%TO.C,D101*%
X241919999Y-116214999D03*
X241919999Y-119514999D03*
%TD*%
D20*
%TO.C,C13*%
X271474251Y-27572500D03*
X273549251Y-27572500D03*
%TD*%
D18*
%TO.C,D1*%
X34751249Y-97164999D03*
X34751249Y-100464999D03*
%TD*%
D38*
%TO.C,J2*%
X104125000Y-25500000D03*
X104125000Y-24500000D03*
X104125000Y-23500000D03*
X104125000Y-22500000D03*
D39*
X100250000Y-26800000D03*
X100250000Y-21200000D03*
%TD*%
D40*
%TO.C,Q4*%
X280000000Y-52000000D03*
X281900000Y-52000000D03*
X280950000Y-53875000D03*
%TD*%
D18*
%TO.C,D36*%
X357559999Y-66929999D03*
X357559999Y-70229999D03*
%TD*%
%TO.C,D30*%
X232394999Y-42014999D03*
X232394999Y-45314999D03*
%TD*%
%TO.C,D26*%
X156194999Y-42014999D03*
X156194999Y-45314999D03*
%TD*%
%TO.C,D108*%
X356219999Y-116214999D03*
X356219999Y-119514999D03*
%TD*%
%TO.C,D24*%
X118094999Y-42014999D03*
X118094999Y-45314999D03*
%TD*%
%TO.C,D22*%
X79994999Y-42014999D03*
X79994999Y-45314999D03*
%TD*%
%TO.C,D83*%
X160957499Y-97164999D03*
X160957499Y-100464999D03*
%TD*%
%TO.C,D47*%
X184769999Y-59064999D03*
X184769999Y-62364999D03*
%TD*%
%TO.C,D78*%
X65707499Y-97164999D03*
X65707499Y-100464999D03*
%TD*%
%TO.C,D69*%
X246682499Y-78114999D03*
X246682499Y-81414999D03*
%TD*%
%TO.C,D44*%
X127619999Y-59064999D03*
X127619999Y-62364999D03*
%TD*%
%TO.C,D39*%
X27607499Y-59064999D03*
X27607499Y-62364999D03*
%TD*%
%TO.C,D21*%
X60944999Y-40014999D03*
X60944999Y-43314999D03*
%TD*%
%TO.C,D62*%
X113332499Y-78114999D03*
X113332499Y-81414999D03*
%TD*%
D16*
%TO.C,C20*%
X252701751Y-24667500D03*
X250626751Y-24667500D03*
%TD*%
D25*
%TO.C,R3*%
X250676751Y-26907500D03*
X252676751Y-26907500D03*
%TD*%
D41*
%TO.C,U5*%
X214224250Y-29004999D03*
D42*
X213686750Y-29079999D03*
D41*
X213149250Y-29004999D03*
X213149250Y-27304999D03*
D42*
X213686750Y-27229999D03*
D41*
X214224250Y-27304999D03*
%TD*%
D43*
%TO.C,R6*%
X287327500Y-67295000D03*
X285502500Y-67295000D03*
%TD*%
D32*
%TO.C,C2*%
X215371751Y-33007500D03*
X215371751Y-35082500D03*
%TD*%
D18*
%TO.C,D64*%
X151432499Y-78114999D03*
X151432499Y-81414999D03*
%TD*%
%TO.C,D88*%
X268113749Y-97164999D03*
X268113749Y-100464999D03*
%TD*%
D44*
X372000000Y-131000000D02*
G75*
G03*
X375000000Y-128000000I0J3000000D01*
G01*
X4000000Y-128000000D02*
G75*
G03*
X7000000Y-131000000I3000000J0D01*
G01*
D45*
X7000000Y-131000000D02*
X372000000Y-131000000D01*
X375000000Y-128000000D02*
X375000000Y-41000000D01*
X4000000Y-41000000D02*
X4000000Y-128000000D01*
X307000000Y-19000000D02*
X72000000Y-19000000D01*
D46*
X303470000Y-32265000D02*
G75*
G03*
X303470000Y-32265000I-8000000J0D01*
G01*
X73394000Y-22755000D02*
G75*
G03*
X73394000Y-22755000I-1524000J0D01*
G01*
X308969000Y-22765000D02*
G75*
G03*
X308969000Y-22765000I-1524000J0D01*
G01*
D45*
X69000000Y-22000000D02*
X69000000Y-35000000D01*
D44*
X72000000Y-19000000D02*
G75*
G03*
X69000000Y-22000000I0J-3000000D01*
G01*
D45*
X372000000Y-38000000D02*
X313000000Y-38000000D01*
D46*
X46494000Y-125665000D02*
G75*
G03*
X46494000Y-125665000I-1524000J0D01*
G01*
X300719000Y-125665000D02*
G75*
G03*
X300719000Y-125665000I-1524000J0D01*
G01*
D44*
X66000000Y-38000000D02*
G75*
G03*
X69000000Y-35000000I0J3000000D01*
G01*
X375000000Y-41000000D02*
G75*
G03*
X372000000Y-38000000I-3000000J0D01*
G01*
X7000000Y-38000000D02*
G75*
G03*
X4000000Y-41000000I0J-3000000D01*
G01*
D46*
X197970000Y-32265000D02*
G75*
G03*
X197970000Y-32265000I-8000000J0D01*
G01*
D45*
X66000000Y-38000000D02*
X7000000Y-38000000D01*
D44*
X310000000Y-35000000D02*
G75*
G03*
X313000000Y-38000000I3000000J0D01*
G01*
D46*
X92470000Y-32265000D02*
G75*
G03*
X92470000Y-32265000I-8000000J0D01*
G01*
D44*
X310000000Y-22000000D02*
G75*
G03*
X307000000Y-19000000I-3000000J0D01*
G01*
D45*
X310000000Y-35000000D02*
X310000000Y-22000000D01*
X250550000Y-131000000D02*
X250550000Y-131000000D01*
M02*
