M48
; DRILL file {KiCad (6.99.0-5337-gc57e6db79a-dirty)} date Sat 28 Jan 2023 10:10:46 AM EST
; FORMAT={-:-/ absolute / inch / decimal}
; #@! TF.CreationDate,2023-01-28T10:10:46-05:00
; #@! TF.GenerationSoftware,Kicad,Pcbnew,(6.99.0-5337-gc57e6db79a-dirty)
; #@! TF.FileFunction,Plated,1,2,PTH
FMAT,2
INCH
; #@! TA.AperFunction,Plated,PTH,ViaDrill
T1C0.0157
; #@! TA.AperFunction,Plated,PTH,ComponentDrill
T2C0.0354
; #@! TA.AperFunction,Plated,PTH,ComponentDrill
T3C0.0579
%
G90
G05
T1
X0.5413Y-4.1437
X0.6594Y-4.1831
X0.8366Y-4.1831
X0.8563Y-4.9311
X1.0827Y-4.9311
X1.263Y-4.652
X1.2827Y-1.8752
X1.4303Y-4.4992
X1.5445Y-2.9996
X1.5555Y-2.2878
X1.5555Y-2.4094
X1.7563Y-3.7114
X1.8799Y-4.8622
X2.0252Y-2.1508
X2.2913Y-1.9057
X2.2969Y-1.8171
X2.302Y-2.2449
X2.3035Y-2.4244
X2.3642Y-4.4173
X2.4748Y-4.4921
X2.4764Y-3.0425
X2.6921Y-3.7665
X2.8067Y-2.1339
X2.8819Y-4.4685
X3.0315Y-2.9835
X3.0441Y-2.2575
X3.0543Y-1.9096
X3.0768Y-2.9469
X3.0846Y-3.1276
X3.2319Y-4.5079
X3.3642Y-4.4862
X3.3661Y-2.0661
X3.5114Y-3.7539
X3.6181Y-2.1169
X3.6732Y-4.4685
X3.8012Y-2.248
X3.8063Y-1.9273
X3.8213Y-2.9878
X3.8476Y-3.1717
X4.0394Y-2.9252
X4.0693Y-1.7295
X4.1587Y-4.4461
X4.1602Y-2.0811
X4.2933Y-1.8171
X4.3646Y-3.7752
X4.4783Y-4.4862
X4.4799Y-1.6996
X4.5406Y-1.9451
X4.5429Y-2.176
X4.5906Y-2.9898
X4.6311Y-3.122
X4.6539Y-2.0492
X4.6634Y-2.9409
X4.7406Y-1.7878
X4.7413Y-2.1291
X4.8276Y-2.0661
X4.8961Y-3.761
X4.9843Y-3.8756
X4.9949Y-4.4142
X5.1327Y-1.587
X5.1339Y-0.8374
X5.1575Y-4.8917
X5.1656Y-4.475
X5.2953Y-4.4709
X5.3087Y-2.8642
X5.3094Y-1.9628
X5.313Y-2.0689
X5.3157Y-2.2461
X5.3173Y-3.0039
X5.4252Y-2.9193
X5.5413Y-2.0535
X5.5512Y-4.9803
X5.5602Y-1.7547
X5.6406Y-4.0559
X5.6492Y-3.9441
X5.7657Y-2.2122
X5.8169Y-3.6902
X5.9626Y-4.4843
X6.0598Y-2.2689
X6.0606Y-1.9805
X6.1185Y-4.6551
X6.1453Y-3.1358
X6.1469Y-3.0063
X6.2083Y-4.4748
X6.25Y-2.9311
X6.3165Y-1.7571
X6.424Y-2.1807
X6.4311Y-3.7421
X6.5138Y-3.9154
X6.7598Y-4.4626
X6.8Y-1.9982
X6.811Y-2.8839
X6.9142Y-4.6197
X6.9406Y-3.015
X6.9921Y-2.9528
X7.0Y-4.4933
X7.05Y-1.76
X7.2539Y-4.8917
X7.3626Y-3.7555
X7.435Y-4.4764
X7.4409Y-4.7146
X7.4705Y-4.8917
X7.49Y-1.7
X7.5626Y-2.0159
X7.6437Y-2.9311
X7.6575Y-4.8524
X7.6831Y-4.635
X7.7327Y-3.0272
X7.8016Y-1.8157
X7.8264Y-4.4921
X7.8445Y-4.9705
X7.9489Y-0.9223
X7.9713Y-2.0575
X7.9803Y-0.8901
X8.0512Y-1.3189
X8.0512Y-4.8917
X8.0807Y-0.8465
X8.1091Y-3.7728
X8.1201Y-4.5276
X8.1299Y-0.8366
X8.1871Y-1.8171
X8.189Y-4.6161
X8.2087Y-1.3189
X8.2138Y-0.9571
X8.2264Y-1.8171
X8.2283Y-1.2303
X8.2345Y-1.1159
X8.2658Y-1.8171
X8.2972Y-4.6457
X8.314Y-1.2167
X8.3165Y-2.0336
X8.3197Y-2.9854
X8.3268Y-4.4764
X8.3465Y-1.1811
X8.3536Y-1.8642
X8.3563Y-1.565
X8.376Y-1.4567
X8.4009Y-1.0364
X8.426Y-3.1736
X8.4358Y-4.6327
X8.4933Y-1.0362
X8.5134Y-1.1378
X8.5509Y-1.0743
X8.5685Y-4.4539
X8.5949Y-1.9724
X8.611Y-3.7276
X8.6123Y-0.9405
X8.6614Y-4.7736
X8.7Y-3.8571
X8.7008Y-1.2894
X8.7158Y-0.9684
X8.7249Y-1.9248
X8.7894Y-2.0965
X8.7945Y-2.0177
X8.7992Y-1.811
X8.7995Y-0.9433
X8.8189Y-4.9803
X8.852Y-2.3057
X8.8547Y-1.056
X8.8583Y-1.9291
X8.8763Y-0.9143
X8.9055Y-1.0104
X8.9142Y-1.0846
X8.9173Y-2.3819
X8.9276Y-0.9015
X8.9441Y-1.0255
X8.9634Y-1.8811
X8.9807Y-0.9672
X9.0141Y-0.8663
X9.0354Y-2.0472
X9.0453Y-0.8957
X9.061Y-3.6024
X9.0634Y-2.9886
X9.0862Y-1.8457
X9.0973Y-1.291
X9.1035Y-1.2443
X9.1299Y-1.1059
X9.1365Y-0.9848
X9.1394Y-4.6539
X9.1484Y-2.6024
X9.1634Y-1.8307
X9.17Y-1.44
X9.1783Y-1.2634
X9.2295Y-1.5933
X9.2303Y-2.9075
X9.2378Y-2.2965
X9.2382Y-1.2232
X9.2421Y-1.0138
X9.247Y-0.7923
X9.2564Y-0.955
X9.2689Y-1.5918
X9.2717Y-3.1693
X9.2717Y-3.1102
X9.2768Y-2.2913
X9.3012Y-4.4921
X9.311Y-2.0768
X9.311Y-3.0217
X9.311Y-3.1102
X9.3161Y-2.2936
X9.3211Y-0.8471
X9.3309Y-0.9663
X9.3555Y-1.5937
X9.3614Y-3.7169
X9.3722Y-1.2138
X9.3799Y-1.9094
X9.3804Y-1.2883
X9.3814Y-0.8176
X9.4002Y-3.7105
X9.4099Y-2.5159
X9.4119Y-0.9546
X9.4193Y-3.002
X9.4193Y-5.0492
X9.4228Y-1.1587
X9.4319Y-3.8732
X9.4413Y-1.2252
X9.4424Y-1.0699
X9.4455Y-0.9797
X9.4488Y-2.5098
X9.46Y-1.64
X9.4741Y-3.8751
X9.4768Y-0.8946
X9.498Y-1.4567
X9.5176Y-1.3683
X9.5177Y-3.6378
X9.5276Y-1.9882
X9.5366Y-1.3339
X9.5374Y-4.0551
X9.5472Y-3.0315
X9.5472Y-3.9665
X9.5571Y-3.8254
X9.5654Y-0.8946
X9.5669Y-1.1614
X9.5866Y-5.0295
X9.5965Y-1.0925
X9.6048Y-0.8952
X9.626Y-1.8504
X9.6654Y-2.3057
X9.7343Y-1.6732
X9.7425Y-1.4472
X9.7677Y-2.0965
X9.7736Y-1.752
X9.7807Y-4.4071
X9.8013Y-1.094
X9.8072Y-1.0247
X9.8327Y-1.811
X9.8327Y-2.8819
X9.8524Y-4.2028
X9.8878Y-4.6437
X9.9118Y-4.9416
X9.9803Y-4.2028
X10.0418Y-0.9818
X10.0646Y-4.4819
X10.0689Y-3.6811
X10.1181Y-1.2205
X10.1378Y-1.624
X10.1673Y-5.0492
X10.1695Y-1.5307
X10.1706Y-0.9515
X10.2115Y-0.9818
X10.2249Y-1.0954
X10.2461Y-3.4449
X10.2756Y-3.0512
X10.2854Y-3.2677
X10.2953Y-1.0728
X10.2953Y-1.9882
X10.3346Y-1.1122
X10.3445Y-1.6142
X10.3543Y-3.5138
X10.4035Y-4.1732
X10.4232Y-1.9882
X10.4528Y-4.0945
X10.4528Y-4.3799
X10.4587Y-4.0067
X10.4666Y-3.6949
X10.502Y-1.5945
X10.5174Y-1.0046
X10.5217Y-3.4941
X10.551Y-2.2441
X10.5512Y-4.6555
X10.5807Y-3.2972
X10.6705Y-3.8378
X10.748Y-0.8366
X10.8169Y-0.8858
X10.8517Y-1.1104
X10.8783Y-3.5744
X10.8884Y-1.1246
X10.9154Y-1.6634
X10.9252Y-1.1024
X10.9252Y-1.565
X10.94Y-1.8455
X11.0236Y-1.7618
X11.0244Y-4.5177
X11.0344Y-1.5561
X11.0728Y-2.4705
X11.1319Y-1.8307
X11.1319Y-3.2874
X11.1516Y-2.3622
X11.1614Y-3.0906
X11.2008Y-1.939
X11.2025Y-3.1693
X11.25Y-2.372
X11.2697Y-3.2874
X11.3553Y-3.4398
X11.3904Y-3.1886
X11.4102Y-4.0435
X11.4102Y-4.1735
X11.4102Y-4.8335
X11.4474Y-3.4543
X11.4567Y-4.8819
X11.4602Y-3.9118
X11.4961Y-3.1004
X11.5219Y-4.7018
X11.5862Y-4.2307
X11.6167Y-4.6984
X11.634Y-4.1418
X11.835Y-4.739
X11.8799Y-1.7254
X11.9709Y-1.6038
X12.0571Y-4.439
X12.1063Y-4.9213
X12.1161Y-2.4041
X12.1276Y-3.5449
X12.1752Y-4.6358
X12.2264Y-3.6988
X12.248Y-4.4823
X12.2972Y-2.8917
X12.3524Y-4.9016
X12.4461Y-3.8193
X12.46Y-3.2122
X12.6083Y-1.5836
X12.7067Y-1.6827
X12.7736Y-2.1555
X12.7953Y-3.7795
X12.801Y-2.9724
X12.8051Y-4.5276
X12.8346Y-1.6043
X12.8445Y-2.313
X12.8524Y-3.6811
X12.9646Y-3.6909
X13.0059Y-2.8701
X13.435Y-1.6043
X13.4744Y-1.6831
X13.5433Y-2.3031
X13.5433Y-3.7402
X13.5433Y-4.4783
X13.5531Y-2.9626
X13.5531Y-4.6555
X13.5787Y-2.1594
X13.6112Y-3.128
X13.6329Y-2.4291
X13.6467Y-2.9813
X13.6555Y-3.6969
X13.8878Y-2.4508
X13.9455Y-1.7055
X14.1114Y-4.274
X14.1165Y-4.4567
X14.1378Y-1.7264
X14.2421Y-2.6476
X14.2433Y-3.3823
X14.2913Y-1.8933
X14.2929Y-2.063
X14.3866Y-3.3772
X14.3898Y-2.6378
T2
X11.5232Y-3.21
X11.5232Y-3.26
X11.5232Y-3.31
X11.5232Y-3.36
X11.5232Y-3.9974
X11.5232Y-4.0474
X11.5232Y-4.0974
X11.5232Y-4.1474
X11.5232Y-4.7848
X11.5232Y-4.8348
X11.5232Y-4.8848
X11.5232Y-4.9348
T3
X0.426Y-1.7585
X0.426Y-4.7585
X0.5197Y-4.3431
X0.5197Y-5.0931
X0.6135Y-2.5085
X0.6135Y-5.0931
X0.6228Y-1.7388
X0.6228Y-4.7388
X0.7072Y-3.2585
X0.7166Y-4.3234
X0.7166Y-5.0734
X0.8103Y-2.4888
X0.8103Y-5.0734
X0.8947Y-4.0085
X0.9041Y-3.2388
X1.0916Y-3.9888
X1.176Y-1.7585
X1.176Y-4.7585
X1.3635Y-4.3431
X1.3728Y-1.7388
X1.3728Y-4.7388
X1.551Y-2.5085
X1.551Y-5.0931
X1.5603Y-4.3234
X1.6447Y-4.7585
X1.7385Y-3.2585
X1.7478Y-2.4888
X1.7478Y-5.0734
X1.8416Y-4.7388
X1.926Y-1.7585
X1.9353Y-3.2388
X2.1135Y-4.0085
X2.1228Y-1.7388
X2.2072Y-4.7585
X2.301Y-2.5085
X2.3103Y-3.9888
X2.4041Y-4.7388
X2.4885Y-3.2585
X2.4978Y-2.4888
X2.676Y-1.7585
X2.676Y-4.7585
X2.6853Y-3.2388
X2.7697Y-5.0931
X2.8635Y-4.0085
X2.8728Y-1.7388
X2.8728Y-4.7388
X2.9666Y-5.0734
X3.051Y-2.5085
X3.0603Y-3.9888
X3.2385Y-3.2585
X3.2385Y-4.7585
X3.2478Y-2.4888
X3.426Y-1.7585
X3.4353Y-3.2388
X3.4353Y-4.7388
X3.6135Y-4.0085
X3.6228Y-1.7388
X3.801Y-2.5085
X3.8103Y-3.9888
X3.9885Y-3.2585
X3.9885Y-4.7585
X3.9978Y-2.4888
X4.176Y-1.7585
X4.1853Y-3.2388
X4.1853Y-4.7388
X4.3635Y-4.0085
X4.3728Y-1.7388
X4.5165Y-0.912
X4.5362Y-1.1089
X4.551Y-2.5085
X4.5603Y-3.9888
X4.7385Y-3.2585
X4.7478Y-2.4888
X4.926Y-1.7585
X4.9353Y-3.2388
X5.0197Y-4.7585
X5.1135Y-4.0085
X5.1228Y-1.7388
X5.2166Y-4.7388
X5.301Y-2.5085
X5.3103Y-3.9888
X5.3947Y-4.7585
X5.4885Y-3.2585
X5.4978Y-2.4888
X5.5906Y-5.0931
X5.5916Y-4.7388
X5.676Y-1.7585
X5.676Y-5.0931
X5.6853Y-3.2388
X5.7874Y-5.0734
X5.8635Y-4.0085
X5.8728Y-1.7388
X5.8728Y-5.0734
X6.051Y-2.5085
X6.051Y-4.7585
X6.0603Y-3.9888
X6.2385Y-3.2585
X6.2478Y-2.4888
X6.2478Y-4.7388
X6.426Y-1.7585
X6.4353Y-3.2388
X6.6135Y-4.0085
X6.6228Y-1.7388
X6.801Y-2.5085
X6.801Y-4.7585
X6.8103Y-3.9888
X6.9885Y-3.2585
X6.9978Y-2.4888
X6.9978Y-4.7388
X7.176Y-1.7585
X7.1853Y-3.2388
X7.3635Y-4.0085
X7.3728Y-1.7388
X7.551Y-2.5085
X7.551Y-4.7585
X7.5603Y-3.9888
X7.7385Y-3.2585
X7.7478Y-2.4888
X7.7478Y-4.7388
X7.926Y-1.7585
X7.9353Y-3.2388
X8.0197Y-5.0931
X8.1135Y-4.0085
X8.1228Y-1.7388
X8.2166Y-5.0734
X8.301Y-2.5085
X8.301Y-4.7585
X8.3103Y-3.9888
X8.3947Y-5.0931
X8.4843Y-5.0931
X8.4885Y-3.2585
X8.4978Y-2.4888
X8.4978Y-4.7388
X8.5916Y-5.0734
X8.676Y-1.7585
X8.6811Y-5.0734
X8.6853Y-3.2388
X8.8635Y-4.0085
X8.8728Y-1.7388
X9.051Y-2.5085
X9.051Y-4.7585
X9.0603Y-3.9888
X9.2385Y-3.2585
X9.2478Y-2.4888
X9.2478Y-4.7388
X9.426Y-1.7585
X9.4353Y-3.2388
X9.5197Y-5.0931
X9.6228Y-1.7388
X9.7072Y-4.3431
X9.7166Y-5.0734
X9.801Y-2.5085
X9.801Y-4.7585
X9.9041Y-4.3234
X9.9885Y-3.2585
X9.9978Y-2.4888
X9.9978Y-4.7388
X10.0822Y-4.0085
X10.1853Y-3.2388
X10.2697Y-3.5931
X10.2697Y-5.0931
X10.2791Y-3.9888
X10.3635Y-1.7585
X10.4666Y-3.5734
X10.4666Y-5.0734
X10.4722Y-2.5675
X10.4722Y-2.977
X10.4919Y-2.7644
X10.4919Y-3.1738
X10.551Y-4.3431
X10.551Y-4.7585
X10.5603Y-1.7388
X10.561Y-2.5085
X10.7478Y-4.3234
X10.7478Y-4.7388
X10.7579Y-2.4888
X12.051Y-1.7585
X12.051Y-2.5085
X12.051Y-3.2585
X12.051Y-4.0085
X12.051Y-4.7585
X12.2478Y-1.7388
X12.2478Y-2.4888
X12.2478Y-3.2388
X12.2478Y-3.9888
X12.2478Y-4.7388
X12.426Y-5.0931
X12.6228Y-5.0734
X12.801Y-1.7585
X12.801Y-2.5085
X12.801Y-3.2585
X12.801Y-4.0085
X12.801Y-4.7585
X12.9978Y-1.7388
X12.9978Y-2.4888
X12.9978Y-3.2388
X12.9978Y-3.9888
X12.9978Y-4.7388
X13.551Y-1.7585
X13.551Y-2.5085
X13.551Y-3.2585
X13.551Y-4.0085
X13.551Y-4.7585
X13.7478Y-1.7388
X13.7478Y-2.4888
X13.7478Y-3.2388
X13.7478Y-3.9888
X13.7478Y-4.7388
X14.2222Y-4.4425
X14.2419Y-4.6394
X14.301Y-1.7585
X14.301Y-2.5085
X14.301Y-3.2585
X14.301Y-4.0085
X14.301Y-4.7585
X14.4978Y-1.7388
X14.4978Y-2.4888
X14.4978Y-3.2388
X14.4978Y-3.9888
X14.4978Y-4.7388
T0
M30
