  0
SECTION
  2
HEADER
  9
$ANGBASE
  50
0.0
  9
$ANGDIR
  70
1
  9
$MEASUREMENT
  70
0
  0
ENDSEC
  0
SECTION
  2
TABLES
  0
TABLE
  2
LTYPE
  70
4
  0
LTYPE
  5
40F
  2
CONTINUOUS
  70
0
  3
Solid line
  72
65
  73
0
  40
0.0
  0
LTYPE
  5
410
  2
DASHDOT
 70
0
  3
Dash Dot ____ _ ____ _
 72
65
 73
4
 40
2.0
 49
1.25
 49
-0.25
 49
0.25
 49
-0.25
  0
LTYPE
  5
411
  2
DASHED
 70
0
  3
Dashed __ __ __ __ __
 72
65
 73
2
 40
0.75
 49
0.5
 49
-0.25
  0
LTYPE
  5
43B
  2
DOTTED
 70
0
  3
Dotted .  .  .  .
 72
65
 73
2
 40
0.2
 49
0.0
 49
-0.2
  0
ENDTAB
  0
TABLE
  2
STYLE
  70
4
  0
STYLE
  2
KICAD
  70
0
  40
0
  41
1
  42
1
  50
0
  71
0
  3
isocp.shx
  0
STYLE
  2
KICADB
  70
0
  40
0
  41
1
  42
1
  50
0
  71
0
  3
isocp.shx
  0
STYLE
  2
KICADI
  70
0
  40
0
  41
1
  42
1
  50
15
  71
0
  3
isocp.shx
  0
STYLE
  2
KICADBI
  70
0
  40
0
  41
1
  42
1
  50
15
  71
0
  3
isocp.shx
  0
ENDTAB
  0
TABLE
  2
LAYER
  70
1
  0
LAYER
  2
BLACK
  70
0
  62
7
  6
CONTINUOUS
  0
ENDTAB
  0
ENDSEC
  0
SECTION
  2
ENTITIES
0
ARC
8
BLACK
10
14.6457
20
-5.03937
40
0.11811
50
-90
51
-0
0
ARC
8
BLACK
10
0.275591
20
-5.03937
40
0.11811
50
-180
51
-90
0
LINE
8
BLACK
6
CONTINUOUS
10
0.275591
20
-5.15748
11
14.6457
21
-5.15748
0
LINE
8
BLACK
6
CONTINUOUS
10
14.7638
20
-5.03937
11
14.7638
21
-1.61417
0
LINE
8
BLACK
6
CONTINUOUS
10
0.15748
20
-1.61417
11
0.15748
21
-5.03937
0
LINE
8
BLACK
6
CONTINUOUS
10
12.0866
20
-0.748031
11
2.83465
21
-0.748031
0
CIRCLE
8
BLACK
10
11.6327
20
-1.27028
40
0.314961
0
CIRCLE
8
BLACK
10
2.82953
20
-0.895866
40
0.06
0
CIRCLE
8
BLACK
10
12.1041
20
-0.89626
40
0.06
0
LINE
8
BLACK
6
CONTINUOUS
10
2.71654
20
-0.866142
11
2.71654
21
-1.37795
0
ARC
8
BLACK
10
2.83465
20
-0.866142
40
0.11811
50
90
51
180
0
LINE
8
BLACK
6
CONTINUOUS
10
14.6457
20
-1.49606
11
12.3228
21
-1.49606
0
CIRCLE
8
BLACK
10
1.77047
20
-4.94744
40
0.06
0
CIRCLE
8
BLACK
10
11.7793
20
-4.94744
40
0.06
0
ARC
8
BLACK
10
2.59843
20
-1.37795
40
0.11811
50
-90
51
-0
0
ARC
8
BLACK
10
14.6457
20
-1.61417
40
0.11811
50
-0
51
90
0
ARC
8
BLACK
10
0.275591
20
-1.61417
40
0.11811
50
90
51
180
0
CIRCLE
8
BLACK
10
7.47913
20
-1.27028
40
0.314961
0
LINE
8
BLACK
6
CONTINUOUS
10
2.59843
20
-1.49606
11
0.275591
21
-1.49606
0
ARC
8
BLACK
10
12.3228
20
-1.37795
40
0.11811
50
-180
51
-90
0
CIRCLE
8
BLACK
10
3.32559
20
-1.27028
40
0.314961
0
ARC
8
BLACK
10
12.0866
20
-0.866142
40
0.11811
50
-0
51
90
0
LINE
8
BLACK
6
CONTINUOUS
10
12.2047
20
-1.37795
11
12.2047
21
-0.866142
0
LINE
8
BLACK
6
CONTINUOUS
10
0.252015
20
-5.27597
11
0.252015
21
-5.19723
0
LINE
8
BLACK
6
CONTINUOUS
10
0.252015
20
-5.19723
11
0.270763
21
-5.19723
0
LINE
8
BLACK
6
CONTINUOUS
10
0.270763
20
-5.19723
11
0.282012
21
-5.20098
0
LINE
8
BLACK
6
CONTINUOUS
10
0.282012
20
-5.20098
11
0.289511
21
-5.20848
0
LINE
8
BLACK
6
CONTINUOUS
10
0.289511
20
-5.20848
11
0.29326
21
-5.21598
0
LINE
8
BLACK
6
CONTINUOUS
10
0.29326
20
-5.21598
11
0.29701
21
-5.23098
0
LINE
8
BLACK
6
CONTINUOUS
10
0.29701
20
-5.23098
11
0.29701
21
-5.24223
0
LINE
8
BLACK
6
CONTINUOUS
10
0.29701
20
-5.24223
11
0.29326
21
-5.25723
0
LINE
8
BLACK
6
CONTINUOUS
10
0.29326
20
-5.25723
11
0.289511
21
-5.26473
0
LINE
8
BLACK
6
CONTINUOUS
10
0.289511
20
-5.26473
11
0.282012
21
-5.27223
0
LINE
8
BLACK
6
CONTINUOUS
10
0.282012
20
-5.27223
11
0.270763
21
-5.27597
0
LINE
8
BLACK
6
CONTINUOUS
10
0.270763
20
-5.27597
11
0.252015
21
-5.27597
0
LINE
8
BLACK
6
CONTINUOUS
10
0.330756
20
-5.27597
11
0.330756
21
-5.22348
0
LINE
8
BLACK
6
CONTINUOUS
10
0.330756
20
-5.23848
11
0.334505
21
-5.23098
0
LINE
8
BLACK
6
CONTINUOUS
10
0.334505
20
-5.23098
11
0.338255
21
-5.22723
0
LINE
8
BLACK
6
CONTINUOUS
10
0.338255
20
-5.22723
11
0.345754
21
-5.22348
0
LINE
8
BLACK
6
CONTINUOUS
10
0.345754
20
-5.22348
11
0.353253
21
-5.22348
0
LINE
8
BLACK
6
CONTINUOUS
10
0.379499
20
-5.27597
11
0.379499
21
-5.22348
0
LINE
8
BLACK
6
CONTINUOUS
10
0.379499
20
-5.19723
11
0.37575
21
-5.20098
0
LINE
8
BLACK
6
CONTINUOUS
10
0.37575
20
-5.20098
11
0.379499
21
-5.20473
0
LINE
8
BLACK
6
CONTINUOUS
10
0.379499
20
-5.20473
11
0.383249
21
-5.20098
0
LINE
8
BLACK
6
CONTINUOUS
10
0.383249
20
-5.20098
11
0.379499
21
-5.19723
0
LINE
8
BLACK
6
CONTINUOUS
10
0.379499
20
-5.19723
11
0.379499
21
-5.20473
0
LINE
8
BLACK
6
CONTINUOUS
10
0.428243
20
-5.27597
11
0.420744
21
-5.27223
0
LINE
8
BLACK
6
CONTINUOUS
10
0.420744
20
-5.27223
11
0.416995
21
-5.26473
0
LINE
8
BLACK
6
CONTINUOUS
10
0.416995
20
-5.26473
11
0.416995
21
-5.19723
0
LINE
8
BLACK
6
CONTINUOUS
10
0.469488
20
-5.27597
11
0.461989
21
-5.27223
0
LINE
8
BLACK
6
CONTINUOUS
10
0.461989
20
-5.27223
11
0.45824
21
-5.26473
0
LINE
8
BLACK
6
CONTINUOUS
10
0.45824
20
-5.26473
11
0.45824
21
-5.19723
0
LINE
8
BLACK
6
CONTINUOUS
10
0.546729
20
-5.27597
11
0.546729
21
-5.19723
0
LINE
8
BLACK
6
CONTINUOUS
10
0.546729
20
-5.19723
11
0.572975
21
-5.25348
0
LINE
8
BLACK
6
CONTINUOUS
10
0.572975
20
-5.25348
11
0.599222
21
-5.19723
0
LINE
8
BLACK
6
CONTINUOUS
10
0.599222
20
-5.19723
11
0.599222
21
-5.27597
0
LINE
8
BLACK
6
CONTINUOUS
10
0.670463
20
-5.27597
11
0.670463
21
-5.23473
0
LINE
8
BLACK
6
CONTINUOUS
10
0.670463
20
-5.23473
11
0.666714
21
-5.22723
0
LINE
8
BLACK
6
CONTINUOUS
10
0.666714
20
-5.22723
11
0.659214
21
-5.22348
0
LINE
8
BLACK
6
CONTINUOUS
10
0.659214
20
-5.22348
11
0.644216
21
-5.22348
0
LINE
8
BLACK
6
CONTINUOUS
10
0.644216
20
-5.22348
11
0.636717
21
-5.22723
0
LINE
8
BLACK
6
CONTINUOUS
10
0.670463
20
-5.27223
11
0.662964
21
-5.27597
0
LINE
8
BLACK
6
CONTINUOUS
10
0.662964
20
-5.27597
11
0.644216
21
-5.27597
0
LINE
8
BLACK
6
CONTINUOUS
10
0.644216
20
-5.27597
11
0.636717
21
-5.27223
0
LINE
8
BLACK
6
CONTINUOUS
10
0.636717
20
-5.27223
11
0.632968
21
-5.26473
0
LINE
8
BLACK
6
CONTINUOUS
10
0.632968
20
-5.26473
11
0.632968
21
-5.25723
0
LINE
8
BLACK
6
CONTINUOUS
10
0.632968
20
-5.25723
11
0.636717
21
-5.24973
0
LINE
8
BLACK
6
CONTINUOUS
10
0.636717
20
-5.24973
11
0.644216
21
-5.24598
0
LINE
8
BLACK
6
CONTINUOUS
10
0.644216
20
-5.24598
11
0.662964
21
-5.24598
0
LINE
8
BLACK
6
CONTINUOUS
10
0.662964
20
-5.24598
11
0.670463
21
-5.24223
0
LINE
8
BLACK
6
CONTINUOUS
10
0.707958
20
-5.22348
11
0.707958
21
-5.30222
0
LINE
8
BLACK
6
CONTINUOUS
10
0.707958
20
-5.22723
11
0.715457
21
-5.22348
0
LINE
8
BLACK
6
CONTINUOUS
10
0.715457
20
-5.22348
11
0.730456
21
-5.22348
0
LINE
8
BLACK
6
CONTINUOUS
10
0.730456
20
-5.22348
11
0.737955
21
-5.22723
0
LINE
8
BLACK
6
CONTINUOUS
10
0.737955
20
-5.22723
11
0.741704
21
-5.23098
0
LINE
8
BLACK
6
CONTINUOUS
10
0.741704
20
-5.23098
11
0.745454
21
-5.23848
0
LINE
8
BLACK
6
CONTINUOUS
10
0.745454
20
-5.23848
11
0.745454
21
-5.26098
0
LINE
8
BLACK
6
CONTINUOUS
10
0.745454
20
-5.26098
11
0.741704
21
-5.26848
0
LINE
8
BLACK
6
CONTINUOUS
10
0.741704
20
-5.26848
11
0.737955
21
-5.27223
0
LINE
8
BLACK
6
CONTINUOUS
10
0.737955
20
-5.27223
11
0.730456
21
-5.27597
0
LINE
8
BLACK
6
CONTINUOUS
10
0.730456
20
-5.27597
11
0.715457
21
-5.27597
0
LINE
8
BLACK
6
CONTINUOUS
10
0.715457
20
-5.27597
11
0.707958
21
-5.27223
0
LINE
8
BLACK
6
CONTINUOUS
10
0.779199
20
-5.26848
11
0.782949
21
-5.27223
0
LINE
8
BLACK
6
CONTINUOUS
10
0.782949
20
-5.27223
11
0.779199
21
-5.27597
0
LINE
8
BLACK
6
CONTINUOUS
10
0.779199
20
-5.27597
11
0.77545
21
-5.27223
0
LINE
8
BLACK
6
CONTINUOUS
10
0.77545
20
-5.27223
11
0.779199
21
-5.26848
0
LINE
8
BLACK
6
CONTINUOUS
10
0.779199
20
-5.26848
11
0.779199
21
-5.27597
0
LINE
8
BLACK
6
CONTINUOUS
10
0.779199
20
-5.22723
11
0.782949
21
-5.23098
0
LINE
8
BLACK
6
CONTINUOUS
10
0.782949
20
-5.23098
11
0.779199
21
-5.23473
0
LINE
8
BLACK
6
CONTINUOUS
10
0.779199
20
-5.23473
11
0.77545
21
-5.23098
0
LINE
8
BLACK
6
CONTINUOUS
10
0.77545
20
-5.23098
11
0.779199
21
-5.22723
0
LINE
8
BLACK
6
CONTINUOUS
10
0.779199
20
-5.22723
11
0.779199
21
-5.23473
  0
ENDSEC
  0
EOF
