%TF.GenerationSoftware,KiCad,Pcbnew,(6.99.0-5337-gc57e6db79a-dirty)*%
%TF.CreationDate,2023-02-22T22:38:33-05:00*%
%TF.ProjectId,m0116,6d303131-362e-46b6-9963-61645f706362,rev?*%
%TF.SameCoordinates,Original*%
%TF.FileFunction,Soldermask,Top*%
%TF.FilePolarity,Negative*%
%FSLAX46Y46*%
G04 Gerber Fmt 4.6, Leading zero omitted, Abs format (unit mm)*
G04 Created by KiCad (PCBNEW (6.99.0-5337-gc57e6db79a-dirty)) date 2023-02-22 22:38:33*
%MOMM*%
%LPD*%
G01*
G04 APERTURE LIST*
%ADD10R,1.000000X1.500000*%
%ADD11O,1.800000X1.070000*%
%ADD12R,1.800000X1.070000*%
%ADD13R,1.000000X1.000000*%
%ADD14O,1.000000X1.000000*%
%TA.AperFunction,Profile*%
%ADD15C,0.150000*%
%TD*%
%TA.AperFunction,Profile*%
%ADD16C,0.050000*%
%TD*%
%TA.AperFunction,Profile*%
%ADD17C,0.200000*%
%TD*%
G04 APERTURE END LIST*
D10*
%TO.C,LED3*%
X291089999Y-107044999D03*
D11*
X292689999Y-103959999D03*
D10*
X294289999Y-107044999D03*
D11*
X292689999Y-106499999D03*
D12*
X292689999Y-105229999D03*
D10*
X294289999Y-102144999D03*
D11*
X292689999Y-102689999D03*
D10*
X291089999Y-102144999D03*
%TD*%
%TO.C,LED2*%
X291089999Y-89544999D03*
D11*
X292689999Y-86459999D03*
D10*
X294289999Y-89544999D03*
D11*
X292689999Y-88999999D03*
D12*
X292689999Y-87729999D03*
D10*
X294289999Y-84644999D03*
D11*
X292689999Y-85189999D03*
D10*
X291089999Y-84644999D03*
%TD*%
%TO.C,LED1*%
X291089999Y-72044999D03*
D11*
X292689999Y-68959999D03*
D10*
X294289999Y-72044999D03*
D11*
X292689999Y-71499999D03*
D12*
X292689999Y-70229999D03*
D10*
X294289999Y-67144999D03*
D11*
X292689999Y-67689999D03*
D10*
X291089999Y-67144999D03*
%TD*%
D13*
%TO.C,J4*%
X280309999Y-33249999D03*
D14*
X279039999Y-33249999D03*
X277769999Y-33249999D03*
X276499999Y-33249999D03*
%TD*%
D13*
%TO.C,J1*%
X206559999Y-21999999D03*
D14*
X205289999Y-21999999D03*
X204019999Y-21999999D03*
X202749999Y-21999999D03*
X201479999Y-21999999D03*
%TD*%
D10*
%TO.C,LED4*%
X291089999Y-123909999D03*
D11*
X292689999Y-120824999D03*
D10*
X294289999Y-123909999D03*
D11*
X292689999Y-123364999D03*
D12*
X292689999Y-122094999D03*
D10*
X294289999Y-119009999D03*
D11*
X292689999Y-119554999D03*
D10*
X291089999Y-119009999D03*
%TD*%
D13*
%TO.C,J7*%
X257999999Y-47749999D03*
D14*
X256729999Y-47749999D03*
X255459999Y-47749999D03*
X254189999Y-47749999D03*
X252919999Y-47749999D03*
%TD*%
D15*
X372000000Y-131000000D02*
G75*
G03*
X375000000Y-128000000I0J3000000D01*
G01*
X4000000Y-128000000D02*
G75*
G03*
X7000000Y-131000000I3000000J0D01*
G01*
D16*
X7000000Y-131000000D02*
X372000000Y-131000000D01*
X375000000Y-128000000D02*
X375000000Y-41000000D01*
X4000000Y-41000000D02*
X4000000Y-128000000D01*
X307000000Y-19000000D02*
X72000000Y-19000000D01*
D17*
X303470000Y-32265000D02*
G75*
G03*
X303470000Y-32265000I-8000000J0D01*
G01*
X73394000Y-22755000D02*
G75*
G03*
X73394000Y-22755000I-1524000J0D01*
G01*
X308969000Y-22765000D02*
G75*
G03*
X308969000Y-22765000I-1524000J0D01*
G01*
D16*
X69000000Y-22000000D02*
X69000000Y-35000000D01*
D15*
X72000000Y-19000000D02*
G75*
G03*
X69000000Y-22000000I0J-3000000D01*
G01*
D16*
X372000000Y-38000000D02*
X313000000Y-38000000D01*
D17*
X46494000Y-125665000D02*
G75*
G03*
X46494000Y-125665000I-1524000J0D01*
G01*
X300719000Y-125665000D02*
G75*
G03*
X300719000Y-125665000I-1524000J0D01*
G01*
D15*
X66000000Y-38000000D02*
G75*
G03*
X69000000Y-35000000I0J3000000D01*
G01*
X375000000Y-41000000D02*
G75*
G03*
X372000000Y-38000000I-3000000J0D01*
G01*
X7000000Y-38000000D02*
G75*
G03*
X4000000Y-41000000I0J-3000000D01*
G01*
D17*
X197970000Y-32265000D02*
G75*
G03*
X197970000Y-32265000I-8000000J0D01*
G01*
D16*
X66000000Y-38000000D02*
X7000000Y-38000000D01*
D15*
X310000000Y-35000000D02*
G75*
G03*
X313000000Y-38000000I3000000J0D01*
G01*
D17*
X92470000Y-32265000D02*
G75*
G03*
X92470000Y-32265000I-8000000J0D01*
G01*
D15*
X310000000Y-22000000D02*
G75*
G03*
X307000000Y-19000000I-3000000J0D01*
G01*
D16*
X310000000Y-35000000D02*
X310000000Y-22000000D01*
X250550000Y-131000000D02*
X250550000Y-131000000D01*
M02*
