  0
SECTION
  2
HEADER
  9
$ANGBASE
  50
0.0
  9
$ANGDIR
  70
1
  9
$MEASUREMENT
  70
0
  0
ENDSEC
  0
SECTION
  2
TABLES
  0
TABLE
  2
LTYPE
  70
4
  0
LTYPE
  5
40F
  2
CONTINUOUS
  70
0
  3
Solid line
  72
65
  73
0
  40
0.0
  0
LTYPE
  5
410
  2
DASHDOT
 70
0
  3
Dash Dot ____ _ ____ _
 72
65
 73
4
 40
2.0
 49
1.25
 49
-0.25
 49
0.25
 49
-0.25
  0
LTYPE
  5
411
  2
DASHED
 70
0
  3
Dashed __ __ __ __ __
 72
65
 73
2
 40
0.75
 49
0.5
 49
-0.25
  0
LTYPE
  5
43B
  2
DOTTED
 70
0
  3
Dotted .  .  .  .
 72
65
 73
2
 40
0.2
 49
0.0
 49
-0.2
  0
ENDTAB
  0
TABLE
  2
STYLE
  70
4
  0
STYLE
  2
KICAD
  70
0
  40
0
  41
1
  42
1
  50
0
  71
0
  3
isocp.shx
  0
STYLE
  2
KICADB
  70
0
  40
0
  41
1
  42
1
  50
0
  71
0
  3
isocp.shx
  0
STYLE
  2
KICADI
  70
0
  40
0
  41
1
  42
1
  50
15
  71
0
  3
isocp.shx
  0
STYLE
  2
KICADBI
  70
0
  40
0
  41
1
  42
1
  50
15
  71
0
  3
isocp.shx
  0
ENDTAB
  0
TABLE
  2
LAYER
  70
1
  0
LAYER
  2
BLACK
  70
0
  62
7
  6
CONTINUOUS
  0
ENDTAB
  0
ENDSEC
  0
SECTION
  2
ENTITIES
0
ARC
8
BLACK
10
14.6457
20
-5.03937
40
0.11811
50
-90
51
-0
0
ARC
8
BLACK
10
0.275591
20
-5.03937
40
0.11811
50
-180
51
-90
0
LINE
8
BLACK
6
CONTINUOUS
10
0.275591
20
-5.15748
11
14.6457
21
-5.15748
0
LINE
8
BLACK
6
CONTINUOUS
10
14.7638
20
-5.03937
11
14.7638
21
-1.61417
0
LINE
8
BLACK
6
CONTINUOUS
10
0.15748
20
-1.61417
11
0.15748
21
-5.03937
0
LINE
8
BLACK
6
CONTINUOUS
10
12.0866
20
-0.748031
11
2.83465
21
-0.748031
0
CIRCLE
8
BLACK
10
11.6327
20
-1.27028
40
0.314961
0
CIRCLE
8
BLACK
10
2.82953
20
-0.895866
40
0.06
0
CIRCLE
8
BLACK
10
12.1041
20
-0.89626
40
0.06
0
LINE
8
BLACK
6
CONTINUOUS
10
2.71654
20
-0.866142
11
2.71654
21
-1.37795
0
ARC
8
BLACK
10
2.83465
20
-0.866142
40
0.11811
50
90
51
180
0
LINE
8
BLACK
6
CONTINUOUS
10
14.6457
20
-1.49606
11
12.3228
21
-1.49606
0
CIRCLE
8
BLACK
10
1.77047
20
-4.94744
40
0.06
0
CIRCLE
8
BLACK
10
11.7793
20
-4.94744
40
0.06
0
ARC
8
BLACK
10
2.59843
20
-1.37795
40
0.11811
50
-90
51
-0
0
ARC
8
BLACK
10
14.6457
20
-1.61417
40
0.11811
50
-0
51
90
0
ARC
8
BLACK
10
0.275591
20
-1.61417
40
0.11811
50
90
51
180
0
CIRCLE
8
BLACK
10
7.47913
20
-1.27028
40
0.314961
0
LINE
8
BLACK
6
CONTINUOUS
10
2.59843
20
-1.49606
11
0.275591
21
-1.49606
0
ARC
8
BLACK
10
12.3228
20
-1.37795
40
0.11811
50
-180
51
-90
0
CIRCLE
8
BLACK
10
3.32559
20
-1.27028
40
0.314961
0
ARC
8
BLACK
10
12.0866
20
-0.866142
40
0.11811
50
-0
51
90
0
LINE
8
BLACK
6
CONTINUOUS
10
12.2047
20
-1.37795
11
12.2047
21
-0.866142
0
LINE
8
BLACK
6
CONTINUOUS
10
0.533465
20
-4.13583
11
0.549213
21
-4.15157
0
LINE
8
BLACK
6
CONTINUOUS
10
0.549213
20
-4.13583
11
0.533465
21
-4.15157
0
LINE
8
BLACK
6
CONTINUOUS
10
0.651575
20
-4.1752
11
0.667323
21
-4.19094
0
LINE
8
BLACK
6
CONTINUOUS
10
0.667323
20
-4.1752
11
0.651575
21
-4.19094
0
LINE
8
BLACK
6
CONTINUOUS
10
0.82874
20
-4.1752
11
0.844488
21
-4.19094
0
LINE
8
BLACK
6
CONTINUOUS
10
0.844488
20
-4.1752
11
0.82874
21
-4.19094
0
LINE
8
BLACK
6
CONTINUOUS
10
0.848425
20
-4.92323
11
0.864173
21
-4.93898
0
LINE
8
BLACK
6
CONTINUOUS
10
0.864173
20
-4.92323
11
0.848425
21
-4.93898
0
LINE
8
BLACK
6
CONTINUOUS
10
1.0748
20
-4.92323
11
1.09055
21
-4.93898
0
LINE
8
BLACK
6
CONTINUOUS
10
1.09055
20
-4.92323
11
1.0748
21
-4.93898
0
LINE
8
BLACK
6
CONTINUOUS
10
1.25512
20
-4.64409
11
1.27087
21
-4.65984
0
LINE
8
BLACK
6
CONTINUOUS
10
1.27087
20
-4.64409
11
1.25512
21
-4.65984
0
LINE
8
BLACK
6
CONTINUOUS
10
1.2748
20
-1.86732
11
1.29055
21
-1.88307
0
LINE
8
BLACK
6
CONTINUOUS
10
1.29055
20
-1.86732
11
1.2748
21
-1.88307
0
LINE
8
BLACK
6
CONTINUOUS
10
1.42244
20
-4.49134
11
1.43819
21
-4.50709
0
LINE
8
BLACK
6
CONTINUOUS
10
1.43819
20
-4.49134
11
1.42244
21
-4.50709
0
LINE
8
BLACK
6
CONTINUOUS
10
1.53661
20
-2.99173
11
1.55236
21
-3.00748
0
LINE
8
BLACK
6
CONTINUOUS
10
1.55236
20
-2.99173
11
1.53661
21
-3.00748
0
LINE
8
BLACK
6
CONTINUOUS
10
1.54764
20
-2.27992
11
1.56339
21
-2.29567
0
LINE
8
BLACK
6
CONTINUOUS
10
1.56339
20
-2.27992
11
1.54764
21
-2.29567
0
LINE
8
BLACK
6
CONTINUOUS
10
1.54764
20
-2.40157
11
1.56339
21
-2.41732
0
LINE
8
BLACK
6
CONTINUOUS
10
1.56339
20
-2.40157
11
1.54764
21
-2.41732
0
LINE
8
BLACK
6
CONTINUOUS
10
1.74843
20
-3.70354
11
1.76417
21
-3.71929
0
LINE
8
BLACK
6
CONTINUOUS
10
1.76417
20
-3.70354
11
1.74843
21
-3.71929
0
LINE
8
BLACK
6
CONTINUOUS
10
1.87205
20
-4.85433
11
1.8878
21
-4.87008
0
LINE
8
BLACK
6
CONTINUOUS
10
1.8878
20
-4.85433
11
1.87205
21
-4.87008
0
LINE
8
BLACK
6
CONTINUOUS
10
2.01732
20
-2.14291
11
2.03307
21
-2.15866
0
LINE
8
BLACK
6
CONTINUOUS
10
2.03307
20
-2.14291
11
2.01732
21
-2.15866
0
LINE
8
BLACK
6
CONTINUOUS
10
2.28346
20
-1.89781
11
2.29921
21
-1.91356
0
LINE
8
BLACK
6
CONTINUOUS
10
2.29921
20
-1.89781
11
2.28346
21
-1.91356
0
LINE
8
BLACK
6
CONTINUOUS
10
2.28898
20
-1.80927
11
2.30472
21
-1.82502
0
LINE
8
BLACK
6
CONTINUOUS
10
2.30472
20
-1.80927
11
2.28898
21
-1.82502
0
LINE
8
BLACK
6
CONTINUOUS
10
2.29409
20
-2.23701
11
2.30984
21
-2.25276
0
LINE
8
BLACK
6
CONTINUOUS
10
2.30984
20
-2.23701
11
2.29409
21
-2.25276
0
LINE
8
BLACK
6
CONTINUOUS
10
2.29567
20
-2.41654
11
2.31142
21
-2.43228
0
LINE
8
BLACK
6
CONTINUOUS
10
2.31142
20
-2.41654
11
2.29567
21
-2.43228
0
LINE
8
BLACK
6
CONTINUOUS
10
2.3563
20
-4.40945
11
2.37205
21
-4.4252
0
LINE
8
BLACK
6
CONTINUOUS
10
2.37205
20
-4.40945
11
2.3563
21
-4.4252
0
LINE
8
BLACK
6
CONTINUOUS
10
2.46693
20
-4.48425
11
2.48268
21
-4.5
0
LINE
8
BLACK
6
CONTINUOUS
10
2.48268
20
-4.48425
11
2.46693
21
-4.5
0
LINE
8
BLACK
6
CONTINUOUS
10
2.4685
20
-3.03465
11
2.48425
21
-3.05039
0
LINE
8
BLACK
6
CONTINUOUS
10
2.48425
20
-3.03465
11
2.4685
21
-3.05039
0
LINE
8
BLACK
6
CONTINUOUS
10
2.68425
20
-3.75866
11
2.7
21
-3.77441
0
LINE
8
BLACK
6
CONTINUOUS
10
2.7
20
-3.75866
11
2.68425
21
-3.77441
0
LINE
8
BLACK
6
CONTINUOUS
10
2.79882
20
-2.12598
11
2.81457
21
-2.14173
0
LINE
8
BLACK
6
CONTINUOUS
10
2.81457
20
-2.12598
11
2.79882
21
-2.14173
0
LINE
8
BLACK
6
CONTINUOUS
10
2.87402
20
-4.46063
11
2.88976
21
-4.47638
0
LINE
8
BLACK
6
CONTINUOUS
10
2.88976
20
-4.46063
11
2.87402
21
-4.47638
0
LINE
8
BLACK
6
CONTINUOUS
10
3.02362
20
-2.97559
11
3.03937
21
-2.99134
0
LINE
8
BLACK
6
CONTINUOUS
10
3.03937
20
-2.97559
11
3.02362
21
-2.99134
0
LINE
8
BLACK
6
CONTINUOUS
10
3.03622
20
-2.24961
11
3.05197
21
-2.26535
0
LINE
8
BLACK
6
CONTINUOUS
10
3.05197
20
-2.24961
11
3.03622
21
-2.26535
0
LINE
8
BLACK
6
CONTINUOUS
10
3.04646
20
-1.90175
11
3.0622
21
-1.9175
0
LINE
8
BLACK
6
CONTINUOUS
10
3.0622
20
-1.90175
11
3.04646
21
-1.9175
0
LINE
8
BLACK
6
CONTINUOUS
10
3.0689
20
-2.93898
11
3.08465
21
-2.95472
0
LINE
8
BLACK
6
CONTINUOUS
10
3.08465
20
-2.93898
11
3.0689
21
-2.95472
0
LINE
8
BLACK
6
CONTINUOUS
10
3.07677
20
-3.11969
11
3.09252
21
-3.13543
0
LINE
8
BLACK
6
CONTINUOUS
10
3.09252
20
-3.11969
11
3.07677
21
-3.13543
0
LINE
8
BLACK
6
CONTINUOUS
10
3.22402
20
-4.5
11
3.23976
21
-4.51575
0
LINE
8
BLACK
6
CONTINUOUS
10
3.23976
20
-4.5
11
3.22402
21
-4.51575
0
LINE
8
BLACK
6
CONTINUOUS
10
3.3563
20
-4.47835
11
3.37205
21
-4.49409
0
LINE
8
BLACK
6
CONTINUOUS
10
3.37205
20
-4.47835
11
3.3563
21
-4.49409
0
LINE
8
BLACK
6
CONTINUOUS
10
3.35827
20
-2.05827
11
3.37402
21
-2.07402
0
LINE
8
BLACK
6
CONTINUOUS
10
3.37402
20
-2.05827
11
3.35827
21
-2.07402
0
LINE
8
BLACK
6
CONTINUOUS
10
3.50354
20
-3.74606
11
3.51929
21
-3.76181
0
LINE
8
BLACK
6
CONTINUOUS
10
3.51929
20
-3.74606
11
3.50354
21
-3.76181
0
LINE
8
BLACK
6
CONTINUOUS
10
3.61024
20
-2.10906
11
3.62598
21
-2.1248
0
LINE
8
BLACK
6
CONTINUOUS
10
3.62598
20
-2.10906
11
3.61024
21
-2.1248
0
LINE
8
BLACK
6
CONTINUOUS
10
3.66535
20
-4.46063
11
3.6811
21
-4.47638
0
LINE
8
BLACK
6
CONTINUOUS
10
3.6811
20
-4.46063
11
3.66535
21
-4.47638
0
LINE
8
BLACK
6
CONTINUOUS
10
3.79331
20
-2.24016
11
3.80906
21
-2.25591
0
LINE
8
BLACK
6
CONTINUOUS
10
3.80906
20
-2.24016
11
3.79331
21
-2.25591
0
LINE
8
BLACK
6
CONTINUOUS
10
3.79843
20
-1.91947
11
3.81417
21
-1.93522
0
LINE
8
BLACK
6
CONTINUOUS
10
3.81417
20
-1.91947
11
3.79843
21
-1.93522
0
LINE
8
BLACK
6
CONTINUOUS
10
3.81339
20
-2.97992
11
3.82913
21
-2.99567
0
LINE
8
BLACK
6
CONTINUOUS
10
3.82913
20
-2.97992
11
3.81339
21
-2.99567
0
LINE
8
BLACK
6
CONTINUOUS
10
3.83976
20
-3.16378
11
3.85551
21
-3.17953
0
LINE
8
BLACK
6
CONTINUOUS
10
3.85551
20
-3.16378
11
3.83976
21
-3.17953
0
LINE
8
BLACK
6
CONTINUOUS
10
4.0315
20
-2.91732
11
4.04724
21
-2.93307
0
LINE
8
BLACK
6
CONTINUOUS
10
4.04724
20
-2.91732
11
4.0315
21
-2.93307
0
LINE
8
BLACK
6
CONTINUOUS
10
4.06142
20
-1.72165
11
4.07717
21
-1.7374
0
LINE
8
BLACK
6
CONTINUOUS
10
4.07717
20
-1.72165
11
4.06142
21
-1.7374
0
LINE
8
BLACK
6
CONTINUOUS
10
4.15079
20
-4.43819
11
4.16654
21
-4.45394
0
LINE
8
BLACK
6
CONTINUOUS
10
4.16654
20
-4.43819
11
4.15079
21
-4.45394
0
LINE
8
BLACK
6
CONTINUOUS
10
4.15236
20
-2.07323
11
4.16811
21
-2.08898
0
LINE
8
BLACK
6
CONTINUOUS
10
4.16811
20
-2.07323
11
4.15236
21
-2.08898
0
LINE
8
BLACK
6
CONTINUOUS
10
4.28543
20
-1.80927
11
4.30118
21
-1.82502
0
LINE
8
BLACK
6
CONTINUOUS
10
4.30118
20
-1.80927
11
4.28543
21
-1.82502
0
LINE
8
BLACK
6
CONTINUOUS
10
4.35669
20
-3.76732
11
4.37244
21
-3.78307
0
LINE
8
BLACK
6
CONTINUOUS
10
4.37244
20
-3.76732
11
4.35669
21
-3.78307
0
LINE
8
BLACK
6
CONTINUOUS
10
4.47047
20
-4.47835
11
4.48622
21
-4.49409
0
LINE
8
BLACK
6
CONTINUOUS
10
4.48622
20
-4.47835
11
4.47047
21
-4.49409
0
LINE
8
BLACK
6
CONTINUOUS
10
4.47205
20
-1.69173
11
4.4878
21
-1.70748
0
LINE
8
BLACK
6
CONTINUOUS
10
4.4878
20
-1.69173
11
4.47205
21
-1.70748
0
LINE
8
BLACK
6
CONTINUOUS
10
4.53268
20
-1.93719
11
4.54843
21
-1.95293
0
LINE
8
BLACK
6
CONTINUOUS
10
4.54843
20
-1.93719
11
4.53268
21
-1.95293
0
LINE
8
BLACK
6
CONTINUOUS
10
4.53504
20
-2.16811
11
4.55079
21
-2.18386
0
LINE
8
BLACK
6
CONTINUOUS
10
4.55079
20
-2.16811
11
4.53504
21
-2.18386
0
LINE
8
BLACK
6
CONTINUOUS
10
4.58268
20
-2.98189
11
4.59843
21
-2.99764
0
LINE
8
BLACK
6
CONTINUOUS
10
4.59843
20
-2.98189
11
4.58268
21
-2.99764
0
LINE
8
BLACK
6
CONTINUOUS
10
4.62323
20
-3.11417
11
4.63898
21
-3.12992
0
LINE
8
BLACK
6
CONTINUOUS
10
4.63898
20
-3.11417
11
4.62323
21
-3.12992
0
LINE
8
BLACK
6
CONTINUOUS
10
4.64606
20
-2.04134
11
4.66181
21
-2.05709
0
LINE
8
BLACK
6
CONTINUOUS
10
4.66181
20
-2.04134
11
4.64606
21
-2.05709
0
LINE
8
BLACK
6
CONTINUOUS
10
4.65551
20
-2.93307
11
4.67126
21
-2.94882
0
LINE
8
BLACK
6
CONTINUOUS
10
4.67126
20
-2.93307
11
4.65551
21
-2.94882
0
LINE
8
BLACK
6
CONTINUOUS
10
4.73268
20
-1.77992
11
4.74843
21
-1.79567
0
LINE
8
BLACK
6
CONTINUOUS
10
4.74843
20
-1.77992
11
4.73268
21
-1.79567
0
LINE
8
BLACK
6
CONTINUOUS
10
4.73346
20
-2.12126
11
4.74921
21
-2.13701
0
LINE
8
BLACK
6
CONTINUOUS
10
4.74921
20
-2.12126
11
4.73346
21
-2.13701
0
LINE
8
BLACK
6
CONTINUOUS
10
4.81969
20
-2.05827
11
4.83543
21
-2.07402
0
LINE
8
BLACK
6
CONTINUOUS
10
4.83543
20
-2.05827
11
4.81969
21
-2.07402
0
LINE
8
BLACK
6
CONTINUOUS
10
4.88819
20
-3.75315
11
4.90394
21
-3.7689
0
LINE
8
BLACK
6
CONTINUOUS
10
4.90394
20
-3.75315
11
4.88819
21
-3.7689
0
LINE
8
BLACK
6
CONTINUOUS
10
4.97638
20
-3.86772
11
4.99213
21
-3.88346
0
LINE
8
BLACK
6
CONTINUOUS
10
4.99213
20
-3.86772
11
4.97638
21
-3.88346
0
LINE
8
BLACK
6
CONTINUOUS
10
4.98701
20
-4.4063
11
5.00276
21
-4.42205
0
LINE
8
BLACK
6
CONTINUOUS
10
5.00276
20
-4.4063
11
4.98701
21
-4.42205
0
LINE
8
BLACK
6
CONTINUOUS
10
5.1248
20
-1.57913
11
5.14055
21
-1.59488
0
LINE
8
BLACK
6
CONTINUOUS
10
5.14055
20
-1.57913
11
5.1248
21
-1.59488
0
LINE
8
BLACK
6
CONTINUOUS
10
5.12598
20
-0.829528
11
5.14173
21
-0.845276
0
LINE
8
BLACK
6
CONTINUOUS
10
5.14173
20
-0.829528
11
5.12598
21
-0.845276
0
LINE
8
BLACK
6
CONTINUOUS
10
5.14961
20
-4.88386
11
5.16535
21
-4.89961
0
LINE
8
BLACK
6
CONTINUOUS
10
5.16535
20
-4.88386
11
5.14961
21
-4.89961
0
LINE
8
BLACK
6
CONTINUOUS
10
5.15768
20
-4.46713
11
5.17343
21
-4.48287
0
LINE
8
BLACK
6
CONTINUOUS
10
5.17343
20
-4.46713
11
5.15768
21
-4.48287
0
LINE
8
BLACK
6
CONTINUOUS
10
5.2874
20
-4.46299
11
5.30315
21
-4.47874
0
LINE
8
BLACK
6
CONTINUOUS
10
5.30315
20
-4.46299
11
5.2874
21
-4.47874
0
LINE
8
BLACK
6
CONTINUOUS
10
5.30079
20
-2.8563
11
5.31654
21
-2.87205
0
LINE
8
BLACK
6
CONTINUOUS
10
5.31654
20
-2.8563
11
5.30079
21
-2.87205
0
LINE
8
BLACK
6
CONTINUOUS
10
5.30157
20
-1.9549
11
5.31732
21
-1.97065
0
LINE
8
BLACK
6
CONTINUOUS
10
5.31732
20
-1.9549
11
5.30157
21
-1.97065
0
LINE
8
BLACK
6
CONTINUOUS
10
5.30512
20
-2.06102
11
5.32087
21
-2.07677
0
LINE
8
BLACK
6
CONTINUOUS
10
5.32087
20
-2.06102
11
5.30512
21
-2.07677
0
LINE
8
BLACK
6
CONTINUOUS
10
5.30787
20
-2.23819
11
5.32362
21
-2.25394
0
LINE
8
BLACK
6
CONTINUOUS
10
5.32362
20
-2.23819
11
5.30787
21
-2.25394
0
LINE
8
BLACK
6
CONTINUOUS
10
5.30945
20
-2.99606
11
5.3252
21
-3.01181
0
LINE
8
BLACK
6
CONTINUOUS
10
5.3252
20
-2.99606
11
5.30945
21
-3.01181
0
LINE
8
BLACK
6
CONTINUOUS
10
5.41732
20
-2.91142
11
5.43307
21
-2.92717
0
LINE
8
BLACK
6
CONTINUOUS
10
5.43307
20
-2.91142
11
5.41732
21
-2.92717
0
LINE
8
BLACK
6
CONTINUOUS
10
5.53346
20
-2.04567
11
5.54921
21
-2.06142
0
LINE
8
BLACK
6
CONTINUOUS
10
5.54921
20
-2.04567
11
5.53346
21
-2.06142
0
LINE
8
BLACK
6
CONTINUOUS
10
5.55236
20
-1.74685
11
5.56811
21
-1.7626
0
LINE
8
BLACK
6
CONTINUOUS
10
5.56811
20
-1.74685
11
5.55236
21
-1.7626
0
LINE
8
BLACK
6
CONTINUOUS
10
5.63268
20
-4.04803
11
5.64843
21
-4.06378
0
LINE
8
BLACK
6
CONTINUOUS
10
5.64843
20
-4.04803
11
5.63268
21
-4.06378
0
LINE
8
BLACK
6
CONTINUOUS
10
5.64134
20
-3.93622
11
5.65709
21
-3.95197
0
LINE
8
BLACK
6
CONTINUOUS
10
5.65709
20
-3.93622
11
5.64134
21
-3.95197
0
LINE
8
BLACK
6
CONTINUOUS
10
5.75787
20
-2.20433
11
5.77362
21
-2.22008
0
LINE
8
BLACK
6
CONTINUOUS
10
5.77362
20
-2.20433
11
5.75787
21
-2.22008
0
LINE
8
BLACK
6
CONTINUOUS
10
5.80906
20
-3.68228
11
5.8248
21
-3.69803
0
LINE
8
BLACK
6
CONTINUOUS
10
5.8248
20
-3.68228
11
5.80906
21
-3.69803
0
LINE
8
BLACK
6
CONTINUOUS
10
5.95472
20
-4.47638
11
5.97047
21
-4.49213
0
LINE
8
BLACK
6
CONTINUOUS
10
5.97047
20
-4.47638
11
5.95472
21
-4.49213
0
LINE
8
BLACK
6
CONTINUOUS
10
6.05197
20
-2.26102
11
6.06772
21
-2.27677
0
LINE
8
BLACK
6
CONTINUOUS
10
6.06772
20
-2.26102
11
6.05197
21
-2.27677
0
LINE
8
BLACK
6
CONTINUOUS
10
6.05276
20
-1.97262
11
6.0685
21
-1.98837
0
LINE
8
BLACK
6
CONTINUOUS
10
6.0685
20
-1.97262
11
6.05276
21
-1.98837
0
LINE
8
BLACK
6
CONTINUOUS
10
6.11063
20
-4.64724
11
6.12638
21
-4.66299
0
LINE
8
BLACK
6
CONTINUOUS
10
6.12638
20
-4.64724
11
6.11063
21
-4.66299
0
LINE
8
BLACK
6
CONTINUOUS
10
6.1374
20
-3.12795
11
6.15315
21
-3.1437
0
LINE
8
BLACK
6
CONTINUOUS
10
6.15315
20
-3.12795
11
6.1374
21
-3.1437
0
LINE
8
BLACK
6
CONTINUOUS
10
6.13898
20
-2.99843
11
6.15472
21
-3.01417
0
LINE
8
BLACK
6
CONTINUOUS
10
6.15472
20
-2.99843
11
6.13898
21
-3.01417
0
LINE
8
BLACK
6
CONTINUOUS
10
6.20039
20
-4.46693
11
6.21614
21
-4.48268
0
LINE
8
BLACK
6
CONTINUOUS
10
6.21614
20
-4.46693
11
6.20039
21
-4.48268
0
LINE
8
BLACK
6
CONTINUOUS
10
6.24213
20
-2.92323
11
6.25787
21
-2.93898
0
LINE
8
BLACK
6
CONTINUOUS
10
6.25787
20
-2.92323
11
6.24213
21
-2.93898
0
LINE
8
BLACK
6
CONTINUOUS
10
6.30866
20
-1.74921
11
6.32441
21
-1.76496
0
LINE
8
BLACK
6
CONTINUOUS
10
6.32441
20
-1.74921
11
6.30866
21
-1.76496
0
LINE
8
BLACK
6
CONTINUOUS
10
6.41614
20
-2.17283
11
6.43189
21
-2.18858
0
LINE
8
BLACK
6
CONTINUOUS
10
6.43189
20
-2.17283
11
6.41614
21
-2.18858
0
LINE
8
BLACK
6
CONTINUOUS
10
6.42323
20
-3.73425
11
6.43898
21
-3.75
0
LINE
8
BLACK
6
CONTINUOUS
10
6.43898
20
-3.73425
11
6.42323
21
-3.75
0
LINE
8
BLACK
6
CONTINUOUS
10
6.50591
20
-3.90748
11
6.52165
21
-3.92323
0
LINE
8
BLACK
6
CONTINUOUS
10
6.52165
20
-3.90748
11
6.50591
21
-3.92323
0
LINE
8
BLACK
6
CONTINUOUS
10
6.75197
20
-4.45472
11
6.76772
21
-4.47047
0
LINE
8
BLACK
6
CONTINUOUS
10
6.76772
20
-4.45472
11
6.75197
21
-4.47047
0
LINE
8
BLACK
6
CONTINUOUS
10
6.79213
20
-1.99033
11
6.80787
21
-2.00608
0
LINE
8
BLACK
6
CONTINUOUS
10
6.80787
20
-1.99033
11
6.79213
21
-2.00608
0
LINE
8
BLACK
6
CONTINUOUS
10
6.80315
20
-2.87598
11
6.8189
21
-2.89173
0
LINE
8
BLACK
6
CONTINUOUS
10
6.8189
20
-2.87598
11
6.80315
21
-2.89173
0
LINE
8
BLACK
6
CONTINUOUS
10
6.9063
20
-4.61181
11
6.92205
21
-4.62756
0
LINE
8
BLACK
6
CONTINUOUS
10
6.92205
20
-4.61181
11
6.9063
21
-4.62756
0
LINE
8
BLACK
6
CONTINUOUS
10
6.93268
20
-3.00709
11
6.94843
21
-3.02283
0
LINE
8
BLACK
6
CONTINUOUS
10
6.94843
20
-3.00709
11
6.93268
21
-3.02283
0
LINE
8
BLACK
6
CONTINUOUS
10
6.98425
20
-2.94488
11
7
21
-2.96063
0
LINE
8
BLACK
6
CONTINUOUS
10
7
20
-2.94488
11
6.98425
21
-2.96063
0
LINE
8
BLACK
6
CONTINUOUS
10
6.99213
20
-4.48543
11
7.00787
21
-4.50118
0
LINE
8
BLACK
6
CONTINUOUS
10
7.00787
20
-4.48543
11
6.99213
21
-4.50118
0
LINE
8
BLACK
6
CONTINUOUS
10
7.04213
20
-1.75213
11
7.05787
21
-1.76787
0
LINE
8
BLACK
6
CONTINUOUS
10
7.05787
20
-1.75213
11
7.04213
21
-1.76787
0
LINE
8
BLACK
6
CONTINUOUS
10
7.24606
20
-4.88386
11
7.26181
21
-4.89961
0
LINE
8
BLACK
6
CONTINUOUS
10
7.26181
20
-4.88386
11
7.24606
21
-4.89961
0
LINE
8
BLACK
6
CONTINUOUS
10
7.35472
20
-3.74764
11
7.37047
21
-3.76339
0
LINE
8
BLACK
6
CONTINUOUS
10
7.37047
20
-3.74764
11
7.35472
21
-3.76339
0
LINE
8
BLACK
6
CONTINUOUS
10
7.42717
20
-4.4685
11
7.44291
21
-4.48425
0
LINE
8
BLACK
6
CONTINUOUS
10
7.44291
20
-4.4685
11
7.42717
21
-4.48425
0
LINE
8
BLACK
6
CONTINUOUS
10
7.43307
20
-4.70669
11
7.44882
21
-4.72244
0
LINE
8
BLACK
6
CONTINUOUS
10
7.44882
20
-4.70669
11
7.43307
21
-4.72244
0
LINE
8
BLACK
6
CONTINUOUS
10
7.4626
20
-4.88386
11
7.47835
21
-4.89961
0
LINE
8
BLACK
6
CONTINUOUS
10
7.47835
20
-4.88386
11
7.4626
21
-4.89961
0
LINE
8
BLACK
6
CONTINUOUS
10
7.48213
20
-1.69213
11
7.49787
21
-1.70787
0
LINE
8
BLACK
6
CONTINUOUS
10
7.49787
20
-1.69213
11
7.48213
21
-1.70787
0
LINE
8
BLACK
6
CONTINUOUS
10
7.55472
20
-2.00805
11
7.57047
21
-2.0238
0
LINE
8
BLACK
6
CONTINUOUS
10
7.57047
20
-2.00805
11
7.55472
21
-2.0238
0
LINE
8
BLACK
6
CONTINUOUS
10
7.63583
20
-2.92323
11
7.65157
21
-2.93898
0
LINE
8
BLACK
6
CONTINUOUS
10
7.65157
20
-2.92323
11
7.63583
21
-2.93898
0
LINE
8
BLACK
6
CONTINUOUS
10
7.64961
20
-4.84449
11
7.66535
21
-4.86024
0
LINE
8
BLACK
6
CONTINUOUS
10
7.66535
20
-4.84449
11
7.64961
21
-4.86024
0
LINE
8
BLACK
6
CONTINUOUS
10
7.6752
20
-4.62717
11
7.69094
21
-4.64291
0
LINE
8
BLACK
6
CONTINUOUS
10
7.69094
20
-4.62717
11
7.6752
21
-4.64291
0
LINE
8
BLACK
6
CONTINUOUS
10
7.7248
20
-3.01929
11
7.74055
21
-3.03504
0
LINE
8
BLACK
6
CONTINUOUS
10
7.74055
20
-3.01929
11
7.7248
21
-3.03504
0
LINE
8
BLACK
6
CONTINUOUS
10
7.7937
20
-1.80787
11
7.80945
21
-1.82362
0
LINE
8
BLACK
6
CONTINUOUS
10
7.80945
20
-1.80787
11
7.7937
21
-1.82362
0
LINE
8
BLACK
6
CONTINUOUS
10
7.8185
20
-4.48425
11
7.83425
21
-4.5
0
LINE
8
BLACK
6
CONTINUOUS
10
7.83425
20
-4.48425
11
7.8185
21
-4.5
0
LINE
8
BLACK
6
CONTINUOUS
10
7.83661
20
-4.9626
11
7.85236
21
-4.97835
0
LINE
8
BLACK
6
CONTINUOUS
10
7.85236
20
-4.9626
11
7.83661
21
-4.97835
0
LINE
8
BLACK
6
CONTINUOUS
10
7.94098
20
-0.91445
11
7.95673
21
-0.930198
0
LINE
8
BLACK
6
CONTINUOUS
10
7.95673
20
-0.91445
11
7.94098
21
-0.930198
0
LINE
8
BLACK
6
CONTINUOUS
10
7.96339
20
-2.04961
11
7.97913
21
-2.06535
0
LINE
8
BLACK
6
CONTINUOUS
10
7.97913
20
-2.04961
11
7.96339
21
-2.06535
0
LINE
8
BLACK
6
CONTINUOUS
10
7.97246
20
-0.882264
11
7.98821
21
-0.898012
0
LINE
8
BLACK
6
CONTINUOUS
10
7.98821
20
-0.882264
11
7.97246
21
-0.898012
0
LINE
8
BLACK
6
CONTINUOUS
10
8.04331
20
-1.31102
11
8.05906
21
-1.32677
0
LINE
8
BLACK
6
CONTINUOUS
10
8.05906
20
-1.31102
11
8.04331
21
-1.32677
0
LINE
8
BLACK
6
CONTINUOUS
10
8.04331
20
-4.88386
11
8.05906
21
-4.89961
0
LINE
8
BLACK
6
CONTINUOUS
10
8.05906
20
-4.88386
11
8.04331
21
-4.89961
0
LINE
8
BLACK
6
CONTINUOUS
10
8.07283
20
-0.838583
11
8.08858
21
-0.854331
0
LINE
8
BLACK
6
CONTINUOUS
10
8.08858
20
-0.838583
11
8.07283
21
-0.854331
0
LINE
8
BLACK
6
CONTINUOUS
10
8.10118
20
-3.76496
11
8.11693
21
-3.78071
0
LINE
8
BLACK
6
CONTINUOUS
10
8.11693
20
-3.76496
11
8.10118
21
-3.78071
0
LINE
8
BLACK
6
CONTINUOUS
10
8.1122
20
-4.51969
11
8.12795
21
-4.53543
0
LINE
8
BLACK
6
CONTINUOUS
10
8.12795
20
-4.51969
11
8.1122
21
-4.53543
0
LINE
8
BLACK
6
CONTINUOUS
10
8.12205
20
-0.82874
11
8.1378
21
-0.844488
0
LINE
8
BLACK
6
CONTINUOUS
10
8.1378
20
-0.82874
11
8.12205
21
-0.844488
0
LINE
8
BLACK
6
CONTINUOUS
10
8.15157
20
-4.95276
11
8.16732
21
-4.9685
0
LINE
8
BLACK
6
CONTINUOUS
10
8.16732
20
-4.95276
11
8.15157
21
-4.9685
0
LINE
8
BLACK
6
CONTINUOUS
10
8.17919
20
-1.80927
11
8.19494
21
-1.82502
0
LINE
8
BLACK
6
CONTINUOUS
10
8.19494
20
-1.80927
11
8.17919
21
-1.82502
0
LINE
8
BLACK
6
CONTINUOUS
10
8.1811
20
-4.60827
11
8.19685
21
-4.62402
0
LINE
8
BLACK
6
CONTINUOUS
10
8.19685
20
-4.60827
11
8.1811
21
-4.62402
0
LINE
8
BLACK
6
CONTINUOUS
10
8.20079
20
-1.31102
11
8.21654
21
-1.32677
0
LINE
8
BLACK
6
CONTINUOUS
10
8.21654
20
-1.31102
11
8.20079
21
-1.32677
0
LINE
8
BLACK
6
CONTINUOUS
10
8.20591
20
-0.949213
11
8.22165
21
-0.964961
0
LINE
8
BLACK
6
CONTINUOUS
10
8.22165
20
-0.949213
11
8.20591
21
-0.964961
0
LINE
8
BLACK
6
CONTINUOUS
10
8.21854
20
-1.80927
11
8.23429
21
-1.82502
0
LINE
8
BLACK
6
CONTINUOUS
10
8.23429
20
-1.80927
11
8.21854
21
-1.82502
0
LINE
8
BLACK
6
CONTINUOUS
10
8.22047
20
-1.22244
11
8.23622
21
-1.23819
0
LINE
8
BLACK
6
CONTINUOUS
10
8.23622
20
-1.22244
11
8.22047
21
-1.23819
0
LINE
8
BLACK
6
CONTINUOUS
10
8.22659
20
-1.10805
11
8.24234
21
-1.1238
0
LINE
8
BLACK
6
CONTINUOUS
10
8.24234
20
-1.10805
11
8.22659
21
-1.1238
0
LINE
8
BLACK
6
CONTINUOUS
10
8.25789
20
-1.80927
11
8.27364
21
-1.82502
0
LINE
8
BLACK
6
CONTINUOUS
10
8.27364
20
-1.80927
11
8.25789
21
-1.82502
0
LINE
8
BLACK
6
CONTINUOUS
10
8.28937
20
-4.6378
11
8.30512
21
-4.65354
0
LINE
8
BLACK
6
CONTINUOUS
10
8.30512
20
-4.6378
11
8.28937
21
-4.65354
0
LINE
8
BLACK
6
CONTINUOUS
10
8.3061
20
-1.20886
11
8.32185
21
-1.22461
0
LINE
8
BLACK
6
CONTINUOUS
10
8.32185
20
-1.20886
11
8.3061
21
-1.22461
0
LINE
8
BLACK
6
CONTINUOUS
10
8.30866
20
-2.02577
11
8.32441
21
-2.04152
0
LINE
8
BLACK
6
CONTINUOUS
10
8.32441
20
-2.02577
11
8.30866
21
-2.04152
0
LINE
8
BLACK
6
CONTINUOUS
10
8.31181
20
-2.97756
11
8.32756
21
-2.99331
0
LINE
8
BLACK
6
CONTINUOUS
10
8.32756
20
-2.97756
11
8.31181
21
-2.99331
0
LINE
8
BLACK
6
CONTINUOUS
10
8.3189
20
-4.4685
11
8.33465
21
-4.48425
0
LINE
8
BLACK
6
CONTINUOUS
10
8.33465
20
-4.4685
11
8.3189
21
-4.48425
0
LINE
8
BLACK
6
CONTINUOUS
10
8.33858
20
-1.17323
11
8.35433
21
-1.18898
0
LINE
8
BLACK
6
CONTINUOUS
10
8.35433
20
-1.17323
11
8.33858
21
-1.18898
0
LINE
8
BLACK
6
CONTINUOUS
10
8.34569
20
-1.85632
11
8.36144
21
-1.87207
0
LINE
8
BLACK
6
CONTINUOUS
10
8.36144
20
-1.85632
11
8.34569
21
-1.87207
0
LINE
8
BLACK
6
CONTINUOUS
10
8.34843
20
-1.55709
11
8.36417
21
-1.57283
0
LINE
8
BLACK
6
CONTINUOUS
10
8.36417
20
-1.55709
11
8.34843
21
-1.57283
0
LINE
8
BLACK
6
CONTINUOUS
10
8.36811
20
-1.44882
11
8.38386
21
-1.46457
0
LINE
8
BLACK
6
CONTINUOUS
10
8.38386
20
-1.44882
11
8.36811
21
-1.46457
0
LINE
8
BLACK
6
CONTINUOUS
10
8.39305
20
-1.02856
11
8.4088
21
-1.04431
0
LINE
8
BLACK
6
CONTINUOUS
10
8.4088
20
-1.02856
11
8.39305
21
-1.04431
0
LINE
8
BLACK
6
CONTINUOUS
10
8.41811
20
-3.16575
11
8.43386
21
-3.1815
0
LINE
8
BLACK
6
CONTINUOUS
10
8.43386
20
-3.16575
11
8.41811
21
-3.1815
0
LINE
8
BLACK
6
CONTINUOUS
10
8.42795
20
-4.6248
11
8.4437
21
-4.64055
0
LINE
8
BLACK
6
CONTINUOUS
10
8.4437
20
-4.6248
11
8.42795
21
-4.64055
0
LINE
8
BLACK
6
CONTINUOUS
10
8.48543
20
-1.02835
11
8.50118
21
-1.04409
0
LINE
8
BLACK
6
CONTINUOUS
10
8.50118
20
-1.02835
11
8.48543
21
-1.04409
0
LINE
8
BLACK
6
CONTINUOUS
10
8.50551
20
-1.12992
11
8.52126
21
-1.14567
0
LINE
8
BLACK
6
CONTINUOUS
10
8.52126
20
-1.12992
11
8.50551
21
-1.14567
0
LINE
8
BLACK
6
CONTINUOUS
10
8.54298
20
-1.06644
11
8.55873
21
-1.08219
0
LINE
8
BLACK
6
CONTINUOUS
10
8.55873
20
-1.06644
11
8.54298
21
-1.08219
0
LINE
8
BLACK
6
CONTINUOUS
10
8.56063
20
-4.44606
11
8.57638
21
-4.46181
0
LINE
8
BLACK
6
CONTINUOUS
10
8.57638
20
-4.44606
11
8.56063
21
-4.46181
0
LINE
8
BLACK
6
CONTINUOUS
10
8.58701
20
-1.96457
11
8.60276
21
-1.98031
0
LINE
8
BLACK
6
CONTINUOUS
10
8.60276
20
-1.96457
11
8.58701
21
-1.98031
0
LINE
8
BLACK
6
CONTINUOUS
10
8.60315
20
-3.71969
11
8.6189
21
-3.73543
0
LINE
8
BLACK
6
CONTINUOUS
10
8.6189
20
-3.71969
11
8.60315
21
-3.73543
0
LINE
8
BLACK
6
CONTINUOUS
10
8.6044
20
-0.932579
11
8.62015
21
-0.948327
0
LINE
8
BLACK
6
CONTINUOUS
10
8.62015
20
-0.932579
11
8.6044
21
-0.948327
0
LINE
8
BLACK
6
CONTINUOUS
10
8.69213
20
-3.84921
11
8.70787
21
-3.86496
0
LINE
8
BLACK
6
CONTINUOUS
10
8.70787
20
-3.84921
11
8.69213
21
-3.86496
0
LINE
8
BLACK
6
CONTINUOUS
10
8.69291
20
-1.2815
11
8.70866
21
-1.29724
0
LINE
8
BLACK
6
CONTINUOUS
10
8.70866
20
-1.2815
11
8.69291
21
-1.29724
0
LINE
8
BLACK
6
CONTINUOUS
10
8.70794
20
-0.960512
11
8.72369
21
-0.97626
0
LINE
8
BLACK
6
CONTINUOUS
10
8.72369
20
-0.960512
11
8.70794
21
-0.97626
0
LINE
8
BLACK
6
CONTINUOUS
10
8.71701
20
-1.91693
11
8.73276
21
-1.93268
0
LINE
8
BLACK
6
CONTINUOUS
10
8.73276
20
-1.91693
11
8.71701
21
-1.93268
0
LINE
8
BLACK
6
CONTINUOUS
10
8.7815
20
-2.08858
11
8.79724
21
-2.10433
0
LINE
8
BLACK
6
CONTINUOUS
10
8.79724
20
-2.08858
11
8.7815
21
-2.10433
0
LINE
8
BLACK
6
CONTINUOUS
10
8.78661
20
-2.00984
11
8.80236
21
-2.02559
0
LINE
8
BLACK
6
CONTINUOUS
10
8.80236
20
-2.00984
11
8.78661
21
-2.02559
0
LINE
8
BLACK
6
CONTINUOUS
10
8.79134
20
-1.80315
11
8.80709
21
-1.8189
0
LINE
8
BLACK
6
CONTINUOUS
10
8.80709
20
-1.80315
11
8.79134
21
-1.8189
0
LINE
8
BLACK
6
CONTINUOUS
10
8.79158
20
-0.935403
11
8.80733
21
-0.951151
0
LINE
8
BLACK
6
CONTINUOUS
10
8.80733
20
-0.935403
11
8.79158
21
-0.951151
0
LINE
8
BLACK
6
CONTINUOUS
10
8.81102
20
-4.97244
11
8.82677
21
-4.98819
0
LINE
8
BLACK
6
CONTINUOUS
10
8.82677
20
-4.97244
11
8.81102
21
-4.98819
0
LINE
8
BLACK
6
CONTINUOUS
10
8.84409
20
-2.29785
11
8.85984
21
-2.3136
0
LINE
8
BLACK
6
CONTINUOUS
10
8.85984
20
-2.29785
11
8.84409
21
-2.3136
0
LINE
8
BLACK
6
CONTINUOUS
10
8.84685
20
-1.04817
11
8.8626
21
-1.06392
0
LINE
8
BLACK
6
CONTINUOUS
10
8.8626
20
-1.04817
11
8.84685
21
-1.06392
0
LINE
8
BLACK
6
CONTINUOUS
10
8.85039
20
-1.92126
11
8.86614
21
-1.93701
0
LINE
8
BLACK
6
CONTINUOUS
10
8.86614
20
-1.92126
11
8.85039
21
-1.93701
0
LINE
8
BLACK
6
CONTINUOUS
10
8.86842
20
-0.906378
11
8.88416
21
-0.922126
0
LINE
8
BLACK
6
CONTINUOUS
10
8.88416
20
-0.906378
11
8.86842
21
-0.922126
0
LINE
8
BLACK
6
CONTINUOUS
10
8.87992
20
-4.5
11
8.89567
21
-4.51575
0
LINE
8
BLACK
6
CONTINUOUS
10
8.89567
20
-4.5
11
8.87992
21
-4.51575
0
LINE
8
BLACK
6
CONTINUOUS
10
8.87992
20
-4.64764
11
8.89567
21
-4.66339
0
LINE
8
BLACK
6
CONTINUOUS
10
8.89567
20
-4.64764
11
8.87992
21
-4.66339
0
LINE
8
BLACK
6
CONTINUOUS
10
8.89764
20
-1.00254
11
8.91339
21
-1.01829
0
LINE
8
BLACK
6
CONTINUOUS
10
8.91339
20
-1.00254
11
8.89764
21
-1.01829
0
LINE
8
BLACK
6
CONTINUOUS
10
8.9063
20
-1.07669
11
8.92205
21
-1.09244
0
LINE
8
BLACK
6
CONTINUOUS
10
8.92205
20
-1.07669
11
8.9063
21
-1.09244
0
LINE
8
BLACK
6
CONTINUOUS
10
8.90945
20
-2.37402
11
8.9252
21
-2.38976
0
LINE
8
BLACK
6
CONTINUOUS
10
8.9252
20
-2.37402
11
8.90945
21
-2.38976
0
LINE
8
BLACK
6
CONTINUOUS
10
8.91975
20
-0.893602
11
8.9355
21
-0.90935
0
LINE
8
BLACK
6
CONTINUOUS
10
8.9355
20
-0.893602
11
8.91975
21
-0.90935
0
LINE
8
BLACK
6
CONTINUOUS
10
8.93622
20
-1.01764
11
8.95197
21
-1.03339
0
LINE
8
BLACK
6
CONTINUOUS
10
8.95197
20
-1.01764
11
8.93622
21
-1.03339
0
LINE
8
BLACK
6
CONTINUOUS
10
8.95551
20
-1.87323
11
8.97126
21
-1.88898
0
LINE
8
BLACK
6
CONTINUOUS
10
8.97126
20
-1.87323
11
8.95551
21
-1.88898
0
LINE
8
BLACK
6
CONTINUOUS
10
8.97287
20
-0.959295
11
8.98862
21
-0.975043
0
LINE
8
BLACK
6
CONTINUOUS
10
8.98862
20
-0.959295
11
8.97287
21
-0.975043
0
LINE
8
BLACK
6
CONTINUOUS
10
9.00624
20
-0.858445
11
9.02198
21
-0.874193
0
LINE
8
BLACK
6
CONTINUOUS
10
9.02198
20
-0.858445
11
9.00624
21
-0.874193
0
LINE
8
BLACK
6
CONTINUOUS
10
9.02756
20
-2.03937
11
9.04331
21
-2.05512
0
LINE
8
BLACK
6
CONTINUOUS
10
9.04331
20
-2.03937
11
9.02756
21
-2.05512
0
LINE
8
BLACK
6
CONTINUOUS
10
9.0374
20
-0.887795
11
9.05315
21
-0.903543
0
LINE
8
BLACK
6
CONTINUOUS
10
9.05315
20
-0.887795
11
9.0374
21
-0.903543
0
LINE
8
BLACK
6
CONTINUOUS
10
9.05315
20
-3.59449
11
9.0689
21
-3.61024
0
LINE
8
BLACK
6
CONTINUOUS
10
9.0689
20
-3.59449
11
9.05315
21
-3.61024
0
LINE
8
BLACK
6
CONTINUOUS
10
9.05551
20
-2.98071
11
9.07126
21
-2.99646
0
LINE
8
BLACK
6
CONTINUOUS
10
9.07126
20
-2.98071
11
9.05551
21
-2.99646
0
LINE
8
BLACK
6
CONTINUOUS
10
9.07835
20
-1.8378
11
9.09409
21
-1.85354
0
LINE
8
BLACK
6
CONTINUOUS
10
9.09409
20
-1.8378
11
9.07835
21
-1.85354
0
LINE
8
BLACK
6
CONTINUOUS
10
9.08622
20
-3.12795
11
9.10197
21
-3.1437
0
LINE
8
BLACK
6
CONTINUOUS
10
9.10197
20
-3.12795
11
9.08622
21
-3.1437
0
LINE
8
BLACK
6
CONTINUOUS
10
9.08939
20
-1.28309
11
9.10514
21
-1.29883
0
LINE
8
BLACK
6
CONTINUOUS
10
9.10514
20
-1.28309
11
9.08939
21
-1.29883
0
LINE
8
BLACK
6
CONTINUOUS
10
9.09567
20
-1.23647
11
9.11142
21
-1.25221
0
LINE
8
BLACK
6
CONTINUOUS
10
9.11142
20
-1.23647
11
9.09567
21
-1.25221
0
LINE
8
BLACK
6
CONTINUOUS
10
9.12205
20
-1.09803
11
9.1378
21
-1.11378
0
LINE
8
BLACK
6
CONTINUOUS
10
9.1378
20
-1.09803
11
9.12205
21
-1.11378
0
LINE
8
BLACK
6
CONTINUOUS
10
9.12863
20
-0.97689
11
9.14438
21
-0.992638
0
LINE
8
BLACK
6
CONTINUOUS
10
9.14438
20
-0.97689
11
9.12863
21
-0.992638
0
LINE
8
BLACK
6
CONTINUOUS
10
9.1315
20
-4.64606
11
9.14724
21
-4.66181
0
LINE
8
BLACK
6
CONTINUOUS
10
9.14724
20
-4.64606
11
9.1315
21
-4.66181
0
LINE
8
BLACK
6
CONTINUOUS
10
9.14055
20
-2.59449
11
9.1563
21
-2.61024
0
LINE
8
BLACK
6
CONTINUOUS
10
9.1563
20
-2.59449
11
9.14055
21
-2.61024
0
LINE
8
BLACK
6
CONTINUOUS
10
9.15551
20
-1.82283
11
9.17126
21
-1.83858
0
LINE
8
BLACK
6
CONTINUOUS
10
9.17126
20
-1.82283
11
9.15551
21
-1.83858
0
LINE
8
BLACK
6
CONTINUOUS
10
9.16213
20
-1.43213
11
9.17787
21
-1.44787
0
LINE
8
BLACK
6
CONTINUOUS
10
9.17787
20
-1.43213
11
9.16213
21
-1.44787
0
LINE
8
BLACK
6
CONTINUOUS
10
9.17047
20
-1.25551
11
9.18622
21
-1.27126
0
LINE
8
BLACK
6
CONTINUOUS
10
9.18622
20
-1.25551
11
9.17047
21
-1.27126
0
LINE
8
BLACK
6
CONTINUOUS
10
9.22165
20
-1.58543
11
9.2374
21
-1.60118
0
LINE
8
BLACK
6
CONTINUOUS
10
9.2374
20
-1.58543
11
9.22165
21
-1.60118
0
LINE
8
BLACK
6
CONTINUOUS
10
9.22244
20
-2.89961
11
9.23819
21
-2.91535
0
LINE
8
BLACK
6
CONTINUOUS
10
9.23819
20
-2.89961
11
9.22244
21
-2.91535
0
LINE
8
BLACK
6
CONTINUOUS
10
9.22992
20
-2.28858
11
9.24567
21
-2.30433
0
LINE
8
BLACK
6
CONTINUOUS
10
9.24567
20
-2.28858
11
9.22992
21
-2.30433
0
LINE
8
BLACK
6
CONTINUOUS
10
9.23031
20
-1.21535
11
9.24606
21
-1.2311
0
LINE
8
BLACK
6
CONTINUOUS
10
9.24606
20
-1.21535
11
9.23031
21
-1.2311
0
LINE
8
BLACK
6
CONTINUOUS
10
9.23425
20
-1.00591
11
9.25
21
-1.02165
0
LINE
8
BLACK
6
CONTINUOUS
10
9.25
20
-1.00591
11
9.23425
21
-1.02165
0
LINE
8
BLACK
6
CONTINUOUS
10
9.23917
20
-0.784449
11
9.25492
21
-0.800197
0
LINE
8
BLACK
6
CONTINUOUS
10
9.25492
20
-0.784449
11
9.23917
21
-0.800197
0
LINE
8
BLACK
6
CONTINUOUS
10
9.24849
20
-0.947146
11
9.26424
21
-0.962894
0
LINE
8
BLACK
6
CONTINUOUS
10
9.26424
20
-0.947146
11
9.24849
21
-0.962894
0
LINE
8
BLACK
6
CONTINUOUS
10
9.26098
20
-1.58396
11
9.27672
21
-1.59971
0
LINE
8
BLACK
6
CONTINUOUS
10
9.27672
20
-1.58396
11
9.26098
21
-1.59971
0
LINE
8
BLACK
6
CONTINUOUS
10
9.26894
20
-2.28347
11
9.28469
21
-2.29921
0
LINE
8
BLACK
6
CONTINUOUS
10
9.28469
20
-2.28347
11
9.26894
21
-2.29921
0
LINE
8
BLACK
6
CONTINUOUS
10
9.29331
20
-4.48425
11
9.30906
21
-4.5
0
LINE
8
BLACK
6
CONTINUOUS
10
9.30906
20
-4.48425
11
9.29331
21
-4.5
0
LINE
8
BLACK
6
CONTINUOUS
10
9.30315
20
-2.0689
11
9.3189
21
-2.08465
0
LINE
8
BLACK
6
CONTINUOUS
10
9.3189
20
-2.0689
11
9.30315
21
-2.08465
0
LINE
8
BLACK
6
CONTINUOUS
10
9.31323
20
-0.839237
11
9.32898
21
-0.854985
0
LINE
8
BLACK
6
CONTINUOUS
10
9.32898
20
-0.839237
11
9.31323
21
-0.854985
0
LINE
8
BLACK
6
CONTINUOUS
10
9.32302
20
-0.958427
11
9.33877
21
-0.974175
0
LINE
8
BLACK
6
CONTINUOUS
10
9.33877
20
-0.958427
11
9.32302
21
-0.974175
0
LINE
8
BLACK
6
CONTINUOUS
10
9.34764
20
-1.58583
11
9.36339
21
-1.60157
0
LINE
8
BLACK
6
CONTINUOUS
10
9.36339
20
-1.58583
11
9.34764
21
-1.60157
0
LINE
8
BLACK
6
CONTINUOUS
10
9.35354
20
-3.70906
11
9.36929
21
-3.7248
0
LINE
8
BLACK
6
CONTINUOUS
10
9.36929
20
-3.70906
11
9.35354
21
-3.7248
0
LINE
8
BLACK
6
CONTINUOUS
10
9.36431
20
-1.20593
11
9.38006
21
-1.22167
0
LINE
8
BLACK
6
CONTINUOUS
10
9.38006
20
-1.20593
11
9.36431
21
-1.22167
0
LINE
8
BLACK
6
CONTINUOUS
10
9.37205
20
-1.90157
11
9.3878
21
-1.91732
0
LINE
8
BLACK
6
CONTINUOUS
10
9.3878
20
-1.90157
11
9.37205
21
-1.91732
0
LINE
8
BLACK
6
CONTINUOUS
10
9.37251
20
-1.28041
11
9.38826
21
-1.29616
0
LINE
8
BLACK
6
CONTINUOUS
10
9.38826
20
-1.28041
11
9.37251
21
-1.29616
0
LINE
8
BLACK
6
CONTINUOUS
10
9.37349
20
-0.809744
11
9.38924
21
-0.825492
0
LINE
8
BLACK
6
CONTINUOUS
10
9.38924
20
-0.809744
11
9.37349
21
-0.825492
0
LINE
8
BLACK
6
CONTINUOUS
10
9.40401
20
-0.946752
11
9.41975
21
-0.9625
0
LINE
8
BLACK
6
CONTINUOUS
10
9.41975
20
-0.946752
11
9.40401
21
-0.9625
0
LINE
8
BLACK
6
CONTINUOUS
10
9.41496
20
-1.15079
11
9.43071
21
-1.16654
0
LINE
8
BLACK
6
CONTINUOUS
10
9.43071
20
-1.15079
11
9.41496
21
-1.16654
0
LINE
8
BLACK
6
CONTINUOUS
10
9.42402
20
-3.86535
11
9.43976
21
-3.8811
0
LINE
8
BLACK
6
CONTINUOUS
10
9.43976
20
-3.86535
11
9.42402
21
-3.8811
0
LINE
8
BLACK
6
CONTINUOUS
10
9.43344
20
-1.21732
11
9.44918
21
-1.23307
0
LINE
8
BLACK
6
CONTINUOUS
10
9.44918
20
-1.21732
11
9.43344
21
-1.23307
0
LINE
8
BLACK
6
CONTINUOUS
10
9.43455
20
-1.06199
11
9.4503
21
-1.07774
0
LINE
8
BLACK
6
CONTINUOUS
10
9.4503
20
-1.06199
11
9.43455
21
-1.07774
0
LINE
8
BLACK
6
CONTINUOUS
10
9.43759
20
-0.971786
11
9.45334
21
-0.987534
0
LINE
8
BLACK
6
CONTINUOUS
10
9.45334
20
-0.971786
11
9.43759
21
-0.987534
0
LINE
8
BLACK
6
CONTINUOUS
10
9.44094
20
-2.50197
11
9.45669
21
-2.51772
0
LINE
8
BLACK
6
CONTINUOUS
10
9.45669
20
-2.50197
11
9.44094
21
-2.51772
0
LINE
8
BLACK
6
CONTINUOUS
10
9.45079
20
-5.07087
11
9.46654
21
-5.08661
0
LINE
8
BLACK
6
CONTINUOUS
10
9.46654
20
-5.07087
11
9.45079
21
-5.08661
0
LINE
8
BLACK
6
CONTINUOUS
10
9.45213
20
-1.63213
11
9.46787
21
-1.64787
0
LINE
8
BLACK
6
CONTINUOUS
10
9.46787
20
-1.63213
11
9.45213
21
-1.64787
0
LINE
8
BLACK
6
CONTINUOUS
10
9.46897
20
-0.886713
11
9.48471
21
-0.902461
0
LINE
8
BLACK
6
CONTINUOUS
10
9.48471
20
-0.886713
11
9.46897
21
-0.902461
0
LINE
8
BLACK
6
CONTINUOUS
10
9.49016
20
-1.44882
11
9.50591
21
-1.46457
0
LINE
8
BLACK
6
CONTINUOUS
10
9.50591
20
-1.44882
11
9.49016
21
-1.46457
0
LINE
8
BLACK
6
CONTINUOUS
10
9.50973
20
-1.36044
11
9.52548
21
-1.37619
0
LINE
8
BLACK
6
CONTINUOUS
10
9.52548
20
-1.36044
11
9.50973
21
-1.37619
0
LINE
8
BLACK
6
CONTINUOUS
10
9.50984
20
-3.62992
11
9.52559
21
-3.64567
0
LINE
8
BLACK
6
CONTINUOUS
10
9.52559
20
-3.62992
11
9.50984
21
-3.64567
0
LINE
8
BLACK
6
CONTINUOUS
10
9.51969
20
-1.98031
11
9.53543
21
-1.99606
0
LINE
8
BLACK
6
CONTINUOUS
10
9.53543
20
-1.98031
11
9.51969
21
-1.99606
0
LINE
8
BLACK
6
CONTINUOUS
10
9.52874
20
-1.32598
11
9.54449
21
-1.34173
0
LINE
8
BLACK
6
CONTINUOUS
10
9.54449
20
-1.32598
11
9.52874
21
-1.34173
0
LINE
8
BLACK
6
CONTINUOUS
10
9.53937
20
-3.02362
11
9.55512
21
-3.03937
0
LINE
8
BLACK
6
CONTINUOUS
10
9.55512
20
-3.02362
11
9.53937
21
-3.03937
0
LINE
8
BLACK
6
CONTINUOUS
10
9.54921
20
-3.81752
11
9.56496
21
-3.83327
0
LINE
8
BLACK
6
CONTINUOUS
10
9.56496
20
-3.81752
11
9.54921
21
-3.83327
0
LINE
8
BLACK
6
CONTINUOUS
10
9.55755
20
-0.886713
11
9.5733
21
-0.902461
0
LINE
8
BLACK
6
CONTINUOUS
10
9.5733
20
-0.886713
11
9.55755
21
-0.902461
0
LINE
8
BLACK
6
CONTINUOUS
10
9.55906
20
-1.15354
11
9.5748
21
-1.16929
0
LINE
8
BLACK
6
CONTINUOUS
10
9.5748
20
-1.15354
11
9.55906
21
-1.16929
0
LINE
8
BLACK
6
CONTINUOUS
10
9.57874
20
-4.56752
11
9.59449
21
-4.58327
0
LINE
8
BLACK
6
CONTINUOUS
10
9.59449
20
-4.56752
11
9.57874
21
-4.58327
0
LINE
8
BLACK
6
CONTINUOUS
10
9.58858
20
-1.08465
11
9.60433
21
-1.10039
0
LINE
8
BLACK
6
CONTINUOUS
10
9.60433
20
-1.08465
11
9.58858
21
-1.10039
0
LINE
8
BLACK
6
CONTINUOUS
10
9.5969
20
-0.887315
11
9.61264
21
-0.903063
0
LINE
8
BLACK
6
CONTINUOUS
10
9.61264
20
-0.887315
11
9.5969
21
-0.903063
0
LINE
8
BLACK
6
CONTINUOUS
10
9.61811
20
-1.84252
11
9.63386
21
-1.85827
0
LINE
8
BLACK
6
CONTINUOUS
10
9.63386
20
-1.84252
11
9.61811
21
-1.85827
0
LINE
8
BLACK
6
CONTINUOUS
10
9.61813
20
-2.29785
11
9.63388
21
-2.3136
0
LINE
8
BLACK
6
CONTINUOUS
10
9.63388
20
-2.29785
11
9.61813
21
-2.3136
0
LINE
8
BLACK
6
CONTINUOUS
10
9.65748
20
-2.29785
11
9.67323
21
-2.3136
0
LINE
8
BLACK
6
CONTINUOUS
10
9.67323
20
-2.29785
11
9.65748
21
-2.3136
0
LINE
8
BLACK
6
CONTINUOUS
10
9.72638
20
-1.66535
11
9.74213
21
-1.6811
0
LINE
8
BLACK
6
CONTINUOUS
10
9.74213
20
-1.66535
11
9.72638
21
-1.6811
0
LINE
8
BLACK
6
CONTINUOUS
10
9.73465
20
-1.43937
11
9.75039
21
-1.45512
0
LINE
8
BLACK
6
CONTINUOUS
10
9.75039
20
-1.43937
11
9.73465
21
-1.45512
0
LINE
8
BLACK
6
CONTINUOUS
10
9.75984
20
-2.08858
11
9.77559
21
-2.10433
0
LINE
8
BLACK
6
CONTINUOUS
10
9.77559
20
-2.08858
11
9.75984
21
-2.10433
0
LINE
8
BLACK
6
CONTINUOUS
10
9.76575
20
-1.74409
11
9.7815
21
-1.75984
0
LINE
8
BLACK
6
CONTINUOUS
10
9.7815
20
-1.74409
11
9.76575
21
-1.75984
0
LINE
8
BLACK
6
CONTINUOUS
10
9.77283
20
-4.39921
11
9.78858
21
-4.41496
0
LINE
8
BLACK
6
CONTINUOUS
10
9.78858
20
-4.39921
11
9.77283
21
-4.41496
0
LINE
8
BLACK
6
CONTINUOUS
10
9.79338
20
-1.08612
11
9.80912
21
-1.10187
0
LINE
8
BLACK
6
CONTINUOUS
10
9.80912
20
-1.08612
11
9.79338
21
-1.10187
0
LINE
8
BLACK
6
CONTINUOUS
10
9.79928
20
-1.01683
11
9.81503
21
-1.03258
0
LINE
8
BLACK
6
CONTINUOUS
10
9.81503
20
-1.01683
11
9.79928
21
-1.03258
0
LINE
8
BLACK
6
CONTINUOUS
10
9.8248
20
-1.80315
11
9.84055
21
-1.8189
0
LINE
8
BLACK
6
CONTINUOUS
10
9.84055
20
-1.80315
11
9.8248
21
-1.8189
0
LINE
8
BLACK
6
CONTINUOUS
10
9.8248
20
-2.87402
11
9.84055
21
-2.88976
0
LINE
8
BLACK
6
CONTINUOUS
10
9.84055
20
-2.87402
11
9.8248
21
-2.88976
0
LINE
8
BLACK
6
CONTINUOUS
10
9.84449
20
-4.19488
11
9.86024
21
-4.21063
0
LINE
8
BLACK
6
CONTINUOUS
10
9.86024
20
-4.19488
11
9.84449
21
-4.21063
0
LINE
8
BLACK
6
CONTINUOUS
10
9.87992
20
-4.63583
11
9.89567
21
-4.65157
0
LINE
8
BLACK
6
CONTINUOUS
10
9.89567
20
-4.63583
11
9.87992
21
-4.65157
0
LINE
8
BLACK
6
CONTINUOUS
10
9.97244
20
-4.19488
11
9.98819
21
-4.21063
0
LINE
8
BLACK
6
CONTINUOUS
10
9.98819
20
-4.19488
11
9.97244
21
-4.21063
0
LINE
8
BLACK
6
CONTINUOUS
10
10.0339
20
-0.973932
11
10.0497
21
-0.98968
0
LINE
8
BLACK
6
CONTINUOUS
10
10.0497
20
-0.973932
11
10.0339
21
-0.98968
0
LINE
8
BLACK
6
CONTINUOUS
10
10.0567
20
-4.47402
11
10.0724
21
-4.48976
0
LINE
8
BLACK
6
CONTINUOUS
10
10.0724
20
-4.47402
11
10.0567
21
-4.48976
0
LINE
8
BLACK
6
CONTINUOUS
10
10.061
20
-3.67323
11
10.0768
21
-3.68898
0
LINE
8
BLACK
6
CONTINUOUS
10
10.0768
20
-3.67323
11
10.061
21
-3.68898
0
LINE
8
BLACK
6
CONTINUOUS
10
10.1102
20
-1.2126
11
10.126
21
-1.22835
0
LINE
8
BLACK
6
CONTINUOUS
10
10.126
20
-1.2126
11
10.1102
21
-1.22835
0
LINE
8
BLACK
6
CONTINUOUS
10
10.1299
20
-1.61614
11
10.1457
21
-1.63189
0
LINE
8
BLACK
6
CONTINUOUS
10
10.1457
20
-1.61614
11
10.1299
21
-1.63189
0
LINE
8
BLACK
6
CONTINUOUS
10
10.1616
20
-1.5228
11
10.1773
21
-1.53855
0
LINE
8
BLACK
6
CONTINUOUS
10
10.1773
20
-1.5228
11
10.1616
21
-1.53855
0
LINE
8
BLACK
6
CONTINUOUS
10
10.1627
20
-0.943604
11
10.1784
21
-0.959352
0
LINE
8
BLACK
6
CONTINUOUS
10
10.1784
20
-0.943604
11
10.1627
21
-0.959352
0
LINE
8
BLACK
6
CONTINUOUS
10
10.2036
20
-0.973937
11
10.2194
21
-0.989685
0
LINE
8
BLACK
6
CONTINUOUS
10
10.2194
20
-0.973937
11
10.2036
21
-0.989685
0
LINE
8
BLACK
6
CONTINUOUS
10
10.217
20
-1.0875
11
10.2327
21
-1.10325
0
LINE
8
BLACK
6
CONTINUOUS
10
10.2327
20
-1.0875
11
10.217
21
-1.10325
0
LINE
8
BLACK
6
CONTINUOUS
10
10.2382
20
-3.43701
11
10.2539
21
-3.45276
0
LINE
8
BLACK
6
CONTINUOUS
10
10.2539
20
-3.43701
11
10.2382
21
-3.45276
0
LINE
8
BLACK
6
CONTINUOUS
10
10.2677
20
-3.04331
11
10.2835
21
-3.05906
0
LINE
8
BLACK
6
CONTINUOUS
10
10.2835
20
-3.04331
11
10.2677
21
-3.05906
0
LINE
8
BLACK
6
CONTINUOUS
10
10.2776
20
-3.25984
11
10.2933
21
-3.27559
0
LINE
8
BLACK
6
CONTINUOUS
10
10.2933
20
-3.25984
11
10.2776
21
-3.27559
0
LINE
8
BLACK
6
CONTINUOUS
10
10.2874
20
-1.06496
11
10.3031
21
-1.08071
0
LINE
8
BLACK
6
CONTINUOUS
10
10.3031
20
-1.06496
11
10.2874
21
-1.08071
0
LINE
8
BLACK
6
CONTINUOUS
10
10.2874
20
-1.98031
11
10.3031
21
-1.99606
0
LINE
8
BLACK
6
CONTINUOUS
10
10.3031
20
-1.98031
11
10.2874
21
-1.99606
0
LINE
8
BLACK
6
CONTINUOUS
10
10.3268
20
-1.10433
11
10.3425
21
-1.12008
0
LINE
8
BLACK
6
CONTINUOUS
10
10.3425
20
-1.10433
11
10.3268
21
-1.12008
0
LINE
8
BLACK
6
CONTINUOUS
10
10.3366
20
-1.6063
11
10.3524
21
-1.62205
0
LINE
8
BLACK
6
CONTINUOUS
10
10.3524
20
-1.6063
11
10.3366
21
-1.62205
0
LINE
8
BLACK
6
CONTINUOUS
10
10.3465
20
-3.50591
11
10.3622
21
-3.52165
0
LINE
8
BLACK
6
CONTINUOUS
10
10.3622
20
-3.50591
11
10.3465
21
-3.52165
0
LINE
8
BLACK
6
CONTINUOUS
10
10.3957
20
-4.16535
11
10.4114
21
-4.1811
0
LINE
8
BLACK
6
CONTINUOUS
10
10.4114
20
-4.16535
11
10.3957
21
-4.1811
0
LINE
8
BLACK
6
CONTINUOUS
10
10.4154
20
-1.98031
11
10.4311
21
-1.99606
0
LINE
8
BLACK
6
CONTINUOUS
10
10.4311
20
-1.98031
11
10.4154
21
-1.99606
0
LINE
8
BLACK
6
CONTINUOUS
10
10.4449
20
-4.08661
11
10.4606
21
-4.10236
0
LINE
8
BLACK
6
CONTINUOUS
10
10.4606
20
-4.08661
11
10.4449
21
-4.10236
0
LINE
8
BLACK
6
CONTINUOUS
10
10.4449
20
-4.37205
11
10.4606
21
-4.3878
0
LINE
8
BLACK
6
CONTINUOUS
10
10.4606
20
-4.37205
11
10.4449
21
-4.3878
0
LINE
8
BLACK
6
CONTINUOUS
10
10.4508
20
-3.99882
11
10.4665
21
-4.01457
0
LINE
8
BLACK
6
CONTINUOUS
10
10.4665
20
-3.99882
11
10.4508
21
-4.01457
0
LINE
8
BLACK
6
CONTINUOUS
10
10.4587
20
-3.68701
11
10.4745
21
-3.70276
0
LINE
8
BLACK
6
CONTINUOUS
10
10.4745
20
-3.68701
11
10.4587
21
-3.70276
0
LINE
8
BLACK
6
CONTINUOUS
10
10.4941
20
-1.58661
11
10.5098
21
-1.60236
0
LINE
8
BLACK
6
CONTINUOUS
10
10.5098
20
-1.58661
11
10.4941
21
-1.60236
0
LINE
8
BLACK
6
CONTINUOUS
10
10.5095
20
-0.996752
11
10.5253
21
-1.0125
0
LINE
8
BLACK
6
CONTINUOUS
10
10.5253
20
-0.996752
11
10.5095
21
-1.0125
0
LINE
8
BLACK
6
CONTINUOUS
10
10.5138
20
-3.48622
11
10.5295
21
-3.50197
0
LINE
8
BLACK
6
CONTINUOUS
10
10.5295
20
-3.48622
11
10.5138
21
-3.50197
0
LINE
8
BLACK
6
CONTINUOUS
10
10.5431
20
-2.23622
11
10.5589
21
-2.25197
0
LINE
8
BLACK
6
CONTINUOUS
10
10.5589
20
-2.23622
11
10.5431
21
-2.25197
0
LINE
8
BLACK
6
CONTINUOUS
10
10.5433
20
-4.64764
11
10.5591
21
-4.66339
0
LINE
8
BLACK
6
CONTINUOUS
10
10.5591
20
-4.64764
11
10.5433
21
-4.66339
0
LINE
8
BLACK
6
CONTINUOUS
10
10.5728
20
-3.28937
11
10.5886
21
-3.30512
0
LINE
8
BLACK
6
CONTINUOUS
10
10.5886
20
-3.28937
11
10.5728
21
-3.30512
0
LINE
8
BLACK
6
CONTINUOUS
10
10.6626
20
-3.82992
11
10.6783
21
-3.84567
0
LINE
8
BLACK
6
CONTINUOUS
10
10.6783
20
-3.82992
11
10.6626
21
-3.84567
0
LINE
8
BLACK
6
CONTINUOUS
10
10.7402
20
-0.82874
11
10.7559
21
-0.844488
0
LINE
8
BLACK
6
CONTINUOUS
10
10.7559
20
-0.82874
11
10.7402
21
-0.844488
0
LINE
8
BLACK
6
CONTINUOUS
10
10.8091
20
-0.877953
11
10.8248
21
-0.893701
0
LINE
8
BLACK
6
CONTINUOUS
10
10.8248
20
-0.877953
11
10.8091
21
-0.893701
0
LINE
8
BLACK
6
CONTINUOUS
10
10.8438
20
-1.10257
11
10.8596
21
-1.11831
0
LINE
8
BLACK
6
CONTINUOUS
10
10.8596
20
-1.10257
11
10.8438
21
-1.11831
0
LINE
8
BLACK
6
CONTINUOUS
10
10.8705
20
-3.56654
11
10.8862
21
-3.58228
0
LINE
8
BLACK
6
CONTINUOUS
10
10.8862
20
-3.56654
11
10.8705
21
-3.58228
0
LINE
8
BLACK
6
CONTINUOUS
10
10.8805
20
-1.11676
11
10.8963
21
-1.13251
0
LINE
8
BLACK
6
CONTINUOUS
10
10.8963
20
-1.11676
11
10.8805
21
-1.13251
0
LINE
8
BLACK
6
CONTINUOUS
10
10.9075
20
-1.65551
11
10.9232
21
-1.67126
0
LINE
8
BLACK
6
CONTINUOUS
10
10.9232
20
-1.65551
11
10.9075
21
-1.67126
0
LINE
8
BLACK
6
CONTINUOUS
10
10.9173
20
-1.09449
11
10.9331
21
-1.11024
0
LINE
8
BLACK
6
CONTINUOUS
10
10.9331
20
-1.09449
11
10.9173
21
-1.11024
0
LINE
8
BLACK
6
CONTINUOUS
10
10.9173
20
-1.55709
11
10.9331
21
-1.57283
0
LINE
8
BLACK
6
CONTINUOUS
10
10.9331
20
-1.55709
11
10.9173
21
-1.57283
0
LINE
8
BLACK
6
CONTINUOUS
10
10.9321
20
-1.8376
11
10.9478
21
-1.85335
0
LINE
8
BLACK
6
CONTINUOUS
10
10.9478
20
-1.8376
11
10.9321
21
-1.85335
0
LINE
8
BLACK
6
CONTINUOUS
10
11.0157
20
-1.75394
11
11.0315
21
-1.76969
0
LINE
8
BLACK
6
CONTINUOUS
10
11.0315
20
-1.75394
11
11.0157
21
-1.76969
0
LINE
8
BLACK
6
CONTINUOUS
10
11.0165
20
-4.50984
11
11.0323
21
-4.52559
0
LINE
8
BLACK
6
CONTINUOUS
10
11.0323
20
-4.50984
11
11.0165
21
-4.52559
0
LINE
8
BLACK
6
CONTINUOUS
10
11.0265
20
-1.54826
11
11.0423
21
-1.56401
0
LINE
8
BLACK
6
CONTINUOUS
10
11.0423
20
-1.54826
11
11.0265
21
-1.56401
0
LINE
8
BLACK
6
CONTINUOUS
10
11.065
20
-2.4626
11
11.0807
21
-2.47835
0
LINE
8
BLACK
6
CONTINUOUS
10
11.0807
20
-2.4626
11
11.065
21
-2.47835
0
LINE
8
BLACK
6
CONTINUOUS
10
11.124
20
-1.82283
11
11.1398
21
-1.83858
0
LINE
8
BLACK
6
CONTINUOUS
10
11.1398
20
-1.82283
11
11.124
21
-1.83858
0
LINE
8
BLACK
6
CONTINUOUS
10
11.124
20
-3.27953
11
11.1398
21
-3.29528
0
LINE
8
BLACK
6
CONTINUOUS
10
11.1398
20
-3.27953
11
11.124
21
-3.29528
0
LINE
8
BLACK
6
CONTINUOUS
10
11.1437
20
-2.35433
11
11.1594
21
-2.37008
0
LINE
8
BLACK
6
CONTINUOUS
10
11.1594
20
-2.35433
11
11.1437
21
-2.37008
0
LINE
8
BLACK
6
CONTINUOUS
10
11.1535
20
-3.08268
11
11.1693
21
-3.09843
0
LINE
8
BLACK
6
CONTINUOUS
10
11.1693
20
-3.08268
11
11.1535
21
-3.09843
0
LINE
8
BLACK
6
CONTINUOUS
10
11.1929
20
-1.9311
11
11.2087
21
-1.94685
0
LINE
8
BLACK
6
CONTINUOUS
10
11.2087
20
-1.9311
11
11.1929
21
-1.94685
0
LINE
8
BLACK
6
CONTINUOUS
10
11.1947
20
-3.16142
11
11.2104
21
-3.17717
0
LINE
8
BLACK
6
CONTINUOUS
10
11.2104
20
-3.16142
11
11.1947
21
-3.17717
0
LINE
8
BLACK
6
CONTINUOUS
10
11.2421
20
-2.36417
11
11.2579
21
-2.37992
0
LINE
8
BLACK
6
CONTINUOUS
10
11.2579
20
-2.36417
11
11.2421
21
-2.37992
0
LINE
8
BLACK
6
CONTINUOUS
10
11.2618
20
-3.27953
11
11.2776
21
-3.29528
0
LINE
8
BLACK
6
CONTINUOUS
10
11.2776
20
-3.27953
11
11.2618
21
-3.29528
0
LINE
8
BLACK
6
CONTINUOUS
10
11.3474
20
-3.43189
11
11.3632
21
-3.44764
0
LINE
8
BLACK
6
CONTINUOUS
10
11.3632
20
-3.43189
11
11.3474
21
-3.44764
0
LINE
8
BLACK
6
CONTINUOUS
10
11.3825
20
-3.18071
11
11.3982
21
-3.19646
0
LINE
8
BLACK
6
CONTINUOUS
10
11.3982
20
-3.18071
11
11.3825
21
-3.19646
0
LINE
8
BLACK
6
CONTINUOUS
10
11.4024
20
-4.03567
11
11.4181
21
-4.05142
0
LINE
8
BLACK
6
CONTINUOUS
10
11.4181
20
-4.03567
11
11.4024
21
-4.05142
0
LINE
8
BLACK
6
CONTINUOUS
10
11.4024
20
-4.16567
11
11.4181
21
-4.18142
0
LINE
8
BLACK
6
CONTINUOUS
10
11.4181
20
-4.16567
11
11.4024
21
-4.18142
0
LINE
8
BLACK
6
CONTINUOUS
10
11.4024
20
-4.82567
11
11.4181
21
-4.84142
0
LINE
8
BLACK
6
CONTINUOUS
10
11.4181
20
-4.82567
11
11.4024
21
-4.84142
0
LINE
8
BLACK
6
CONTINUOUS
10
11.4396
20
-3.44646
11
11.4553
21
-3.4622
0
LINE
8
BLACK
6
CONTINUOUS
10
11.4553
20
-3.44646
11
11.4396
21
-3.4622
0
LINE
8
BLACK
6
CONTINUOUS
10
11.4488
20
-4.87402
11
11.4646
21
-4.88976
0
LINE
8
BLACK
6
CONTINUOUS
10
11.4646
20
-4.87402
11
11.4488
21
-4.88976
0
LINE
8
BLACK
6
CONTINUOUS
10
11.4524
20
-3.90394
11
11.4681
21
-3.91969
0
LINE
8
BLACK
6
CONTINUOUS
10
11.4681
20
-3.90394
11
11.4524
21
-3.91969
0
LINE
8
BLACK
6
CONTINUOUS
10
11.4882
20
-3.09252
11
11.5039
21
-3.10827
0
LINE
8
BLACK
6
CONTINUOUS
10
11.5039
20
-3.09252
11
11.4882
21
-3.10827
0
LINE
8
BLACK
6
CONTINUOUS
10
11.514
20
-4.6939
11
11.5297
21
-4.70965
0
LINE
8
BLACK
6
CONTINUOUS
10
11.5297
20
-4.6939
11
11.514
21
-4.70965
0
LINE
8
BLACK
6
CONTINUOUS
10
11.5783
20
-4.22283
11
11.5941
21
-4.23858
0
LINE
8
BLACK
6
CONTINUOUS
10
11.5941
20
-4.22283
11
11.5783
21
-4.23858
0
LINE
8
BLACK
6
CONTINUOUS
10
11.6089
20
-4.69055
11
11.6246
21
-4.7063
0
LINE
8
BLACK
6
CONTINUOUS
10
11.6246
20
-4.69055
11
11.6089
21
-4.7063
0
LINE
8
BLACK
6
CONTINUOUS
10
11.6261
20
-4.13396
11
11.6418
21
-4.1497
0
LINE
8
BLACK
6
CONTINUOUS
10
11.6418
20
-4.13396
11
11.6261
21
-4.1497
0
LINE
8
BLACK
6
CONTINUOUS
10
11.8272
20
-4.7311
11
11.8429
21
-4.74685
0
LINE
8
BLACK
6
CONTINUOUS
10
11.8429
20
-4.7311
11
11.8272
21
-4.74685
0
LINE
8
BLACK
6
CONTINUOUS
10
11.872
20
-1.7175
11
11.8878
21
-1.73325
0
LINE
8
BLACK
6
CONTINUOUS
10
11.8878
20
-1.7175
11
11.872
21
-1.73325
0
LINE
8
BLACK
6
CONTINUOUS
10
11.963
20
-1.5959
11
11.9788
21
-1.61165
0
LINE
8
BLACK
6
CONTINUOUS
10
11.9788
20
-1.5959
11
11.963
21
-1.61165
0
LINE
8
BLACK
6
CONTINUOUS
10
12.0492
20
-4.4311
11
12.065
21
-4.44685
0
LINE
8
BLACK
6
CONTINUOUS
10
12.065
20
-4.4311
11
12.0492
21
-4.44685
0
LINE
8
BLACK
6
CONTINUOUS
10
12.1083
20
-2.39626
11
12.124
21
-2.41201
0
LINE
8
BLACK
6
CONTINUOUS
10
12.124
20
-2.39626
11
12.1083
21
-2.41201
0
LINE
8
BLACK
6
CONTINUOUS
10
12.1197
20
-3.53701
11
12.1354
21
-3.55276
0
LINE
8
BLACK
6
CONTINUOUS
10
12.1354
20
-3.53701
11
12.1197
21
-3.55276
0
LINE
8
BLACK
6
CONTINUOUS
10
12.1673
20
-4.62795
11
12.1831
21
-4.6437
0
LINE
8
BLACK
6
CONTINUOUS
10
12.1831
20
-4.62795
11
12.1673
21
-4.6437
0
LINE
8
BLACK
6
CONTINUOUS
10
12.2185
20
-3.69094
11
12.2343
21
-3.70669
0
LINE
8
BLACK
6
CONTINUOUS
10
12.2343
20
-3.69094
11
12.2185
21
-3.70669
0
LINE
8
BLACK
6
CONTINUOUS
10
12.2402
20
-4.47441
11
12.2559
21
-4.49016
0
LINE
8
BLACK
6
CONTINUOUS
10
12.2559
20
-4.47441
11
12.2402
21
-4.49016
0
LINE
8
BLACK
6
CONTINUOUS
10
12.2894
20
-2.88386
11
12.3051
21
-2.89961
0
LINE
8
BLACK
6
CONTINUOUS
10
12.3051
20
-2.88386
11
12.2894
21
-2.89961
0
LINE
8
BLACK
6
CONTINUOUS
10
12.4382
20
-3.81142
11
12.4539
21
-3.82717
0
LINE
8
BLACK
6
CONTINUOUS
10
12.4539
20
-3.81142
11
12.4382
21
-3.82717
0
LINE
8
BLACK
6
CONTINUOUS
10
12.4521
20
-3.20433
11
12.4679
21
-3.22008
0
LINE
8
BLACK
6
CONTINUOUS
10
12.4679
20
-3.20433
11
12.4521
21
-3.22008
0
LINE
8
BLACK
6
CONTINUOUS
10
12.6004
20
-1.57577
11
12.6161
21
-1.59152
0
LINE
8
BLACK
6
CONTINUOUS
10
12.6161
20
-1.57577
11
12.6004
21
-1.59152
0
LINE
8
BLACK
6
CONTINUOUS
10
12.6988
20
-1.67478
11
12.7146
21
-1.69053
0
LINE
8
BLACK
6
CONTINUOUS
10
12.7146
20
-1.67478
11
12.6988
21
-1.69053
0
LINE
8
BLACK
6
CONTINUOUS
10
12.7657
20
-2.14764
11
12.7815
21
-2.16339
0
LINE
8
BLACK
6
CONTINUOUS
10
12.7815
20
-2.14764
11
12.7657
21
-2.16339
0
LINE
8
BLACK
6
CONTINUOUS
10
12.7874
20
-3.77165
11
12.8031
21
-3.7874
0
LINE
8
BLACK
6
CONTINUOUS
10
12.8031
20
-3.77165
11
12.7874
21
-3.7874
0
LINE
8
BLACK
6
CONTINUOUS
10
12.7931
20
-2.96457
11
12.8089
21
-2.98031
0
LINE
8
BLACK
6
CONTINUOUS
10
12.8089
20
-2.96457
11
12.7931
21
-2.98031
0
LINE
8
BLACK
6
CONTINUOUS
10
12.7972
20
-4.51969
11
12.813
21
-4.53543
0
LINE
8
BLACK
6
CONTINUOUS
10
12.813
20
-4.51969
11
12.7972
21
-4.53543
0
LINE
8
BLACK
6
CONTINUOUS
10
12.8268
20
-1.59646
11
12.8425
21
-1.6122
0
LINE
8
BLACK
6
CONTINUOUS
10
12.8425
20
-1.59646
11
12.8268
21
-1.6122
0
LINE
8
BLACK
6
CONTINUOUS
10
12.8366
20
-2.30512
11
12.8524
21
-2.32087
0
LINE
8
BLACK
6
CONTINUOUS
10
12.8524
20
-2.30512
11
12.8366
21
-2.32087
0
LINE
8
BLACK
6
CONTINUOUS
10
12.8445
20
-3.67323
11
12.8602
21
-3.68898
0
LINE
8
BLACK
6
CONTINUOUS
10
12.8602
20
-3.67323
11
12.8445
21
-3.68898
0
LINE
8
BLACK
6
CONTINUOUS
10
12.9567
20
-3.68307
11
12.9724
21
-3.69882
0
LINE
8
BLACK
6
CONTINUOUS
10
12.9724
20
-3.68307
11
12.9567
21
-3.69882
0
LINE
8
BLACK
6
CONTINUOUS
10
12.998
20
-2.8622
11
13.0138
21
-2.87795
0
LINE
8
BLACK
6
CONTINUOUS
10
13.0138
20
-2.8622
11
12.998
21
-2.87795
0
LINE
8
BLACK
6
CONTINUOUS
10
13.4272
20
-1.59646
11
13.4429
21
-1.6122
0
LINE
8
BLACK
6
CONTINUOUS
10
13.4429
20
-1.59646
11
13.4272
21
-1.6122
0
LINE
8
BLACK
6
CONTINUOUS
10
13.4665
20
-1.6752
11
13.4823
21
-1.69094
0
LINE
8
BLACK
6
CONTINUOUS
10
13.4823
20
-1.6752
11
13.4665
21
-1.69094
0
LINE
8
BLACK
6
CONTINUOUS
10
13.5354
20
-2.29528
11
13.5512
21
-2.31102
0
LINE
8
BLACK
6
CONTINUOUS
10
13.5512
20
-2.29528
11
13.5354
21
-2.31102
0
LINE
8
BLACK
6
CONTINUOUS
10
13.5354
20
-3.73228
11
13.5512
21
-3.74803
0
LINE
8
BLACK
6
CONTINUOUS
10
13.5512
20
-3.73228
11
13.5354
21
-3.74803
0
LINE
8
BLACK
6
CONTINUOUS
10
13.5354
20
-4.47047
11
13.5512
21
-4.48622
0
LINE
8
BLACK
6
CONTINUOUS
10
13.5512
20
-4.47047
11
13.5354
21
-4.48622
0
LINE
8
BLACK
6
CONTINUOUS
10
13.5453
20
-2.95472
11
13.561
21
-2.97047
0
LINE
8
BLACK
6
CONTINUOUS
10
13.561
20
-2.95472
11
13.5453
21
-2.97047
0
LINE
8
BLACK
6
CONTINUOUS
10
13.5453
20
-4.64764
11
13.561
21
-4.66339
0
LINE
8
BLACK
6
CONTINUOUS
10
13.561
20
-4.64764
11
13.5453
21
-4.66339
0
LINE
8
BLACK
6
CONTINUOUS
10
13.5709
20
-2.15157
11
13.5866
21
-2.16732
0
LINE
8
BLACK
6
CONTINUOUS
10
13.5866
20
-2.15157
11
13.5709
21
-2.16732
0
LINE
8
BLACK
6
CONTINUOUS
10
13.6033
20
-3.12008
11
13.6191
21
-3.13583
0
LINE
8
BLACK
6
CONTINUOUS
10
13.6191
20
-3.12008
11
13.6033
21
-3.13583
0
LINE
8
BLACK
6
CONTINUOUS
10
13.625
20
-2.42126
11
13.6407
21
-2.43701
0
LINE
8
BLACK
6
CONTINUOUS
10
13.6407
20
-2.42126
11
13.625
21
-2.43701
0
LINE
8
BLACK
6
CONTINUOUS
10
13.6388
20
-2.97343
11
13.6545
21
-2.98917
0
LINE
8
BLACK
6
CONTINUOUS
10
13.6545
20
-2.97343
11
13.6388
21
-2.98917
0
LINE
8
BLACK
6
CONTINUOUS
10
13.6476
20
-3.68898
11
13.6634
21
-3.70472
0
LINE
8
BLACK
6
CONTINUOUS
10
13.6634
20
-3.68898
11
13.6476
21
-3.70472
0
LINE
8
BLACK
6
CONTINUOUS
10
13.8799
20
-2.44291
11
13.8957
21
-2.45866
0
LINE
8
BLACK
6
CONTINUOUS
10
13.8957
20
-2.44291
11
13.8799
21
-2.45866
0
LINE
8
BLACK
6
CONTINUOUS
10
13.9376
20
-1.69759
11
13.9534
21
-1.71334
0
LINE
8
BLACK
6
CONTINUOUS
10
13.9534
20
-1.69759
11
13.9376
21
-1.71334
0
LINE
8
BLACK
6
CONTINUOUS
10
14.1035
20
-4.26614
11
14.1193
21
-4.28189
0
LINE
8
BLACK
6
CONTINUOUS
10
14.1193
20
-4.26614
11
14.1035
21
-4.28189
0
LINE
8
BLACK
6
CONTINUOUS
10
14.1087
20
-4.44882
11
14.1244
21
-4.46457
0
LINE
8
BLACK
6
CONTINUOUS
10
14.1244
20
-4.44882
11
14.1087
21
-4.46457
0
LINE
8
BLACK
6
CONTINUOUS
10
14.1299
20
-1.7185
11
14.1457
21
-1.73425
0
LINE
8
BLACK
6
CONTINUOUS
10
14.1457
20
-1.7185
11
14.1299
21
-1.73425
0
LINE
8
BLACK
6
CONTINUOUS
10
14.2343
20
-2.63976
11
14.25
21
-2.65551
0
LINE
8
BLACK
6
CONTINUOUS
10
14.25
20
-2.63976
11
14.2343
21
-2.65551
0
LINE
8
BLACK
6
CONTINUOUS
10
14.2354
20
-3.37441
11
14.2512
21
-3.39016
0
LINE
8
BLACK
6
CONTINUOUS
10
14.2512
20
-3.37441
11
14.2354
21
-3.39016
0
LINE
8
BLACK
6
CONTINUOUS
10
14.2835
20
-1.88543
11
14.2992
21
-1.90118
0
LINE
8
BLACK
6
CONTINUOUS
10
14.2992
20
-1.88543
11
14.2835
21
-1.90118
0
LINE
8
BLACK
6
CONTINUOUS
10
14.285
20
-2.05512
11
14.3008
21
-2.07087
0
LINE
8
BLACK
6
CONTINUOUS
10
14.3008
20
-2.05512
11
14.285
21
-2.07087
0
LINE
8
BLACK
6
CONTINUOUS
10
14.3787
20
-3.36929
11
14.3945
21
-3.38504
0
LINE
8
BLACK
6
CONTINUOUS
10
14.3945
20
-3.36929
11
14.3787
21
-3.38504
0
LINE
8
BLACK
6
CONTINUOUS
10
14.3819
20
-2.62992
11
14.3976
21
-2.64567
0
LINE
8
BLACK
6
CONTINUOUS
10
14.3976
20
-2.62992
11
14.3819
21
-2.64567
0
CIRCLE
8
BLACK
10
11.5232
20
-3.21004
40
0.0177165
0
CIRCLE
8
BLACK
10
11.5232
20
-3.26004
40
0.0177165
0
CIRCLE
8
BLACK
10
11.5232
20
-3.31004
40
0.0177165
0
CIRCLE
8
BLACK
10
11.5232
20
-3.36004
40
0.0177165
0
CIRCLE
8
BLACK
10
11.5232
20
-3.99744
40
0.0177165
0
CIRCLE
8
BLACK
10
11.5232
20
-4.04744
40
0.0177165
0
CIRCLE
8
BLACK
10
11.5232
20
-4.09744
40
0.0177165
0
CIRCLE
8
BLACK
10
11.5232
20
-4.14744
40
0.0177165
0
CIRCLE
8
BLACK
10
11.5232
20
-4.78484
40
0.0177165
0
CIRCLE
8
BLACK
10
11.5232
20
-4.83484
40
0.0177165
0
CIRCLE
8
BLACK
10
11.5232
20
-4.88484
40
0.0177165
0
CIRCLE
8
BLACK
10
11.5232
20
-4.93484
40
0.0177165
0
LINE
8
BLACK
6
CONTINUOUS
10
0.425984
20
-1.72953
11
0.425984
21
-1.7874
0
LINE
8
BLACK
6
CONTINUOUS
10
0.397047
20
-1.75846
11
0.454921
21
-1.75846
0
LINE
8
BLACK
6
CONTINUOUS
10
0.425984
20
-4.72953
11
0.425984
21
-4.7874
0
LINE
8
BLACK
6
CONTINUOUS
10
0.397047
20
-4.75846
11
0.454921
21
-4.75846
0
LINE
8
BLACK
6
CONTINUOUS
10
0.519734
20
-4.31417
11
0.519734
21
-4.37205
0
LINE
8
BLACK
6
CONTINUOUS
10
0.490797
20
-4.34311
11
0.548671
21
-4.34311
0
LINE
8
BLACK
6
CONTINUOUS
10
0.519734
20
-5.06417
11
0.519734
21
-5.12205
0
LINE
8
BLACK
6
CONTINUOUS
10
0.490797
20
-5.09311
11
0.548671
21
-5.09311
0
LINE
8
BLACK
6
CONTINUOUS
10
0.613484
20
-2.47953
11
0.613484
21
-2.5374
0
LINE
8
BLACK
6
CONTINUOUS
10
0.584547
20
-2.50846
11
0.642421
21
-2.50846
0
LINE
8
BLACK
6
CONTINUOUS
10
0.613484
20
-5.06417
11
0.613484
21
-5.12205
0
LINE
8
BLACK
6
CONTINUOUS
10
0.584547
20
-5.09311
11
0.642421
21
-5.09311
0
LINE
8
BLACK
6
CONTINUOUS
10
0.622835
20
-1.70984
11
0.622835
21
-1.76772
0
LINE
8
BLACK
6
CONTINUOUS
10
0.593898
20
-1.73878
11
0.651772
21
-1.73878
0
LINE
8
BLACK
6
CONTINUOUS
10
0.622835
20
-4.70984
11
0.622835
21
-4.76772
0
LINE
8
BLACK
6
CONTINUOUS
10
0.593898
20
-4.73878
11
0.651772
21
-4.73878
0
LINE
8
BLACK
6
CONTINUOUS
10
0.707234
20
-3.22953
11
0.707234
21
-3.2874
0
LINE
8
BLACK
6
CONTINUOUS
10
0.678297
20
-3.25846
11
0.736171
21
-3.25846
0
LINE
8
BLACK
6
CONTINUOUS
10
0.716585
20
-4.29449
11
0.716585
21
-4.35236
0
LINE
8
BLACK
6
CONTINUOUS
10
0.687648
20
-4.32343
11
0.745522
21
-4.32343
0
LINE
8
BLACK
6
CONTINUOUS
10
0.716585
20
-5.04449
11
0.716585
21
-5.10236
0
LINE
8
BLACK
6
CONTINUOUS
10
0.687648
20
-5.07343
11
0.745522
21
-5.07343
0
LINE
8
BLACK
6
CONTINUOUS
10
0.810335
20
-2.45984
11
0.810335
21
-2.51772
0
LINE
8
BLACK
6
CONTINUOUS
10
0.781398
20
-2.48878
11
0.839272
21
-2.48878
0
LINE
8
BLACK
6
CONTINUOUS
10
0.810335
20
-5.04449
11
0.810335
21
-5.10236
0
LINE
8
BLACK
6
CONTINUOUS
10
0.781398
20
-5.07343
11
0.839272
21
-5.07343
0
LINE
8
BLACK
6
CONTINUOUS
10
0.894734
20
-3.97953
11
0.894734
21
-4.0374
0
LINE
8
BLACK
6
CONTINUOUS
10
0.865797
20
-4.00846
11
0.923671
21
-4.00846
0
LINE
8
BLACK
6
CONTINUOUS
10
0.904085
20
-3.20984
11
0.904085
21
-3.26772
0
LINE
8
BLACK
6
CONTINUOUS
10
0.875148
20
-3.23878
11
0.933022
21
-3.23878
0
LINE
8
BLACK
6
CONTINUOUS
10
1.09158
20
-3.95984
11
1.09158
21
-4.01772
0
LINE
8
BLACK
6
CONTINUOUS
10
1.06265
20
-3.98878
11
1.12052
21
-3.98878
0
LINE
8
BLACK
6
CONTINUOUS
10
1.17598
20
-1.72953
11
1.17598
21
-1.7874
0
LINE
8
BLACK
6
CONTINUOUS
10
1.14705
20
-1.75846
11
1.20492
21
-1.75846
0
LINE
8
BLACK
6
CONTINUOUS
10
1.17598
20
-4.72953
11
1.17598
21
-4.7874
0
LINE
8
BLACK
6
CONTINUOUS
10
1.14705
20
-4.75846
11
1.20492
21
-4.75846
0
LINE
8
BLACK
6
CONTINUOUS
10
1.36348
20
-4.31417
11
1.36348
21
-4.37205
0
LINE
8
BLACK
6
CONTINUOUS
10
1.33455
20
-4.34311
11
1.39242
21
-4.34311
0
LINE
8
BLACK
6
CONTINUOUS
10
1.37283
20
-1.70984
11
1.37283
21
-1.76772
0
LINE
8
BLACK
6
CONTINUOUS
10
1.3439
20
-1.73878
11
1.40177
21
-1.73878
0
LINE
8
BLACK
6
CONTINUOUS
10
1.37283
20
-4.70984
11
1.37283
21
-4.76772
0
LINE
8
BLACK
6
CONTINUOUS
10
1.3439
20
-4.73878
11
1.40177
21
-4.73878
0
LINE
8
BLACK
6
CONTINUOUS
10
1.55098
20
-2.47953
11
1.55098
21
-2.5374
0
LINE
8
BLACK
6
CONTINUOUS
10
1.52205
20
-2.50846
11
1.57992
21
-2.50846
0
LINE
8
BLACK
6
CONTINUOUS
10
1.55098
20
-5.06417
11
1.55098
21
-5.12205
0
LINE
8
BLACK
6
CONTINUOUS
10
1.52205
20
-5.09311
11
1.57992
21
-5.09311
0
LINE
8
BLACK
6
CONTINUOUS
10
1.56033
20
-4.29449
11
1.56033
21
-4.35236
0
LINE
8
BLACK
6
CONTINUOUS
10
1.5314
20
-4.32343
11
1.58927
21
-4.32343
0
LINE
8
BLACK
6
CONTINUOUS
10
1.64473
20
-4.72953
11
1.64473
21
-4.7874
0
LINE
8
BLACK
6
CONTINUOUS
10
1.6158
20
-4.75846
11
1.67367
21
-4.75846
0
LINE
8
BLACK
6
CONTINUOUS
10
1.73848
20
-3.22953
11
1.73848
21
-3.2874
0
LINE
8
BLACK
6
CONTINUOUS
10
1.70955
20
-3.25846
11
1.76742
21
-3.25846
0
LINE
8
BLACK
6
CONTINUOUS
10
1.74783
20
-2.45984
11
1.74783
21
-2.51772
0
LINE
8
BLACK
6
CONTINUOUS
10
1.7189
20
-2.48878
11
1.77677
21
-2.48878
0
LINE
8
BLACK
6
CONTINUOUS
10
1.74783
20
-5.04449
11
1.74783
21
-5.10236
0
LINE
8
BLACK
6
CONTINUOUS
10
1.7189
20
-5.07343
11
1.77677
21
-5.07343
0
LINE
8
BLACK
6
CONTINUOUS
10
1.84158
20
-4.70984
11
1.84158
21
-4.76772
0
LINE
8
BLACK
6
CONTINUOUS
10
1.81265
20
-4.73878
11
1.87052
21
-4.73878
0
LINE
8
BLACK
6
CONTINUOUS
10
1.92598
20
-1.72953
11
1.92598
21
-1.7874
0
LINE
8
BLACK
6
CONTINUOUS
10
1.89705
20
-1.75846
11
1.95492
21
-1.75846
0
LINE
8
BLACK
6
CONTINUOUS
10
1.93533
20
-3.20984
11
1.93533
21
-3.26772
0
LINE
8
BLACK
6
CONTINUOUS
10
1.9064
20
-3.23878
11
1.96427
21
-3.23878
0
LINE
8
BLACK
6
CONTINUOUS
10
2.11348
20
-3.97953
11
2.11348
21
-4.0374
0
LINE
8
BLACK
6
CONTINUOUS
10
2.08455
20
-4.00846
11
2.14242
21
-4.00846
0
LINE
8
BLACK
6
CONTINUOUS
10
2.12283
20
-1.70984
11
2.12283
21
-1.76772
0
LINE
8
BLACK
6
CONTINUOUS
10
2.0939
20
-1.73878
11
2.15177
21
-1.73878
0
LINE
8
BLACK
6
CONTINUOUS
10
2.20723
20
-4.72953
11
2.20723
21
-4.7874
0
LINE
8
BLACK
6
CONTINUOUS
10
2.1783
20
-4.75846
11
2.23617
21
-4.75846
0
LINE
8
BLACK
6
CONTINUOUS
10
2.30098
20
-2.47953
11
2.30098
21
-2.5374
0
LINE
8
BLACK
6
CONTINUOUS
10
2.27205
20
-2.50846
11
2.32992
21
-2.50846
0
LINE
8
BLACK
6
CONTINUOUS
10
2.31033
20
-3.95984
11
2.31033
21
-4.01772
0
LINE
8
BLACK
6
CONTINUOUS
10
2.2814
20
-3.98878
11
2.33927
21
-3.98878
0
LINE
8
BLACK
6
CONTINUOUS
10
2.40408
20
-4.70984
11
2.40408
21
-4.76772
0
LINE
8
BLACK
6
CONTINUOUS
10
2.37515
20
-4.73878
11
2.43302
21
-4.73878
0
LINE
8
BLACK
6
CONTINUOUS
10
2.48848
20
-3.22953
11
2.48848
21
-3.2874
0
LINE
8
BLACK
6
CONTINUOUS
10
2.45955
20
-3.25846
11
2.51742
21
-3.25846
0
LINE
8
BLACK
6
CONTINUOUS
10
2.49783
20
-2.45984
11
2.49783
21
-2.51772
0
LINE
8
BLACK
6
CONTINUOUS
10
2.4689
20
-2.48878
11
2.52677
21
-2.48878
0
LINE
8
BLACK
6
CONTINUOUS
10
2.67598
20
-1.72953
11
2.67598
21
-1.7874
0
LINE
8
BLACK
6
CONTINUOUS
10
2.64705
20
-1.75846
11
2.70492
21
-1.75846
0
LINE
8
BLACK
6
CONTINUOUS
10
2.67598
20
-4.72953
11
2.67598
21
-4.7874
0
LINE
8
BLACK
6
CONTINUOUS
10
2.64705
20
-4.75846
11
2.70492
21
-4.75846
0
LINE
8
BLACK
6
CONTINUOUS
10
2.68533
20
-3.20984
11
2.68533
21
-3.26772
0
LINE
8
BLACK
6
CONTINUOUS
10
2.6564
20
-3.23878
11
2.71427
21
-3.23878
0
LINE
8
BLACK
6
CONTINUOUS
10
2.76973
20
-5.06417
11
2.76973
21
-5.12205
0
LINE
8
BLACK
6
CONTINUOUS
10
2.7408
20
-5.09311
11
2.79867
21
-5.09311
0
LINE
8
BLACK
6
CONTINUOUS
10
2.86348
20
-3.97953
11
2.86348
21
-4.0374
0
LINE
8
BLACK
6
CONTINUOUS
10
2.83455
20
-4.00846
11
2.89242
21
-4.00846
0
LINE
8
BLACK
6
CONTINUOUS
10
2.87283
20
-1.70984
11
2.87283
21
-1.76772
0
LINE
8
BLACK
6
CONTINUOUS
10
2.8439
20
-1.73878
11
2.90177
21
-1.73878
0
LINE
8
BLACK
6
CONTINUOUS
10
2.87283
20
-4.70984
11
2.87283
21
-4.76772
0
LINE
8
BLACK
6
CONTINUOUS
10
2.8439
20
-4.73878
11
2.90177
21
-4.73878
0
LINE
8
BLACK
6
CONTINUOUS
10
2.96658
20
-5.04449
11
2.96658
21
-5.10236
0
LINE
8
BLACK
6
CONTINUOUS
10
2.93765
20
-5.07343
11
2.99552
21
-5.07343
0
LINE
8
BLACK
6
CONTINUOUS
10
3.05098
20
-2.47953
11
3.05098
21
-2.5374
0
LINE
8
BLACK
6
CONTINUOUS
10
3.02205
20
-2.50846
11
3.07992
21
-2.50846
0
LINE
8
BLACK
6
CONTINUOUS
10
3.06033
20
-3.95984
11
3.06033
21
-4.01772
0
LINE
8
BLACK
6
CONTINUOUS
10
3.0314
20
-3.98878
11
3.08927
21
-3.98878
0
LINE
8
BLACK
6
CONTINUOUS
10
3.23848
20
-3.22953
11
3.23848
21
-3.2874
0
LINE
8
BLACK
6
CONTINUOUS
10
3.20955
20
-3.25846
11
3.26742
21
-3.25846
0
LINE
8
BLACK
6
CONTINUOUS
10
3.23848
20
-4.72953
11
3.23848
21
-4.7874
0
LINE
8
BLACK
6
CONTINUOUS
10
3.20955
20
-4.75846
11
3.26742
21
-4.75846
0
LINE
8
BLACK
6
CONTINUOUS
10
3.24783
20
-2.45984
11
3.24783
21
-2.51772
0
LINE
8
BLACK
6
CONTINUOUS
10
3.2189
20
-2.48878
11
3.27677
21
-2.48878
0
LINE
8
BLACK
6
CONTINUOUS
10
3.42598
20
-1.72953
11
3.42598
21
-1.7874
0
LINE
8
BLACK
6
CONTINUOUS
10
3.39705
20
-1.75846
11
3.45492
21
-1.75846
0
LINE
8
BLACK
6
CONTINUOUS
10
3.43533
20
-3.20984
11
3.43533
21
-3.26772
0
LINE
8
BLACK
6
CONTINUOUS
10
3.4064
20
-3.23878
11
3.46427
21
-3.23878
0
LINE
8
BLACK
6
CONTINUOUS
10
3.43533
20
-4.70984
11
3.43533
21
-4.76772
0
LINE
8
BLACK
6
CONTINUOUS
10
3.4064
20
-4.73878
11
3.46427
21
-4.73878
0
LINE
8
BLACK
6
CONTINUOUS
10
3.61348
20
-3.97953
11
3.61348
21
-4.0374
0
LINE
8
BLACK
6
CONTINUOUS
10
3.58455
20
-4.00846
11
3.64242
21
-4.00846
0
LINE
8
BLACK
6
CONTINUOUS
10
3.62283
20
-1.70984
11
3.62283
21
-1.76772
0
LINE
8
BLACK
6
CONTINUOUS
10
3.5939
20
-1.73878
11
3.65177
21
-1.73878
0
LINE
8
BLACK
6
CONTINUOUS
10
3.80098
20
-2.47953
11
3.80098
21
-2.5374
0
LINE
8
BLACK
6
CONTINUOUS
10
3.77205
20
-2.50846
11
3.82992
21
-2.50846
0
LINE
8
BLACK
6
CONTINUOUS
10
3.81033
20
-3.95984
11
3.81033
21
-4.01772
0
LINE
8
BLACK
6
CONTINUOUS
10
3.7814
20
-3.98878
11
3.83927
21
-3.98878
0
LINE
8
BLACK
6
CONTINUOUS
10
3.98848
20
-3.22953
11
3.98848
21
-3.2874
0
LINE
8
BLACK
6
CONTINUOUS
10
3.95955
20
-3.25846
11
4.01742
21
-3.25846
0
LINE
8
BLACK
6
CONTINUOUS
10
3.98848
20
-4.72953
11
3.98848
21
-4.7874
0
LINE
8
BLACK
6
CONTINUOUS
10
3.95955
20
-4.75846
11
4.01742
21
-4.75846
0
LINE
8
BLACK
6
CONTINUOUS
10
3.99783
20
-2.45984
11
3.99783
21
-2.51772
0
LINE
8
BLACK
6
CONTINUOUS
10
3.9689
20
-2.48878
11
4.02677
21
-2.48878
0
LINE
8
BLACK
6
CONTINUOUS
10
4.17598
20
-1.72953
11
4.17598
21
-1.7874
0
LINE
8
BLACK
6
CONTINUOUS
10
4.14705
20
-1.75846
11
4.20492
21
-1.75846
0
LINE
8
BLACK
6
CONTINUOUS
10
4.18533
20
-3.20984
11
4.18533
21
-3.26772
0
LINE
8
BLACK
6
CONTINUOUS
10
4.1564
20
-3.23878
11
4.21427
21
-3.23878
0
LINE
8
BLACK
6
CONTINUOUS
10
4.18533
20
-4.70984
11
4.18533
21
-4.76772
0
LINE
8
BLACK
6
CONTINUOUS
10
4.1564
20
-4.73878
11
4.21427
21
-4.73878
0
LINE
8
BLACK
6
CONTINUOUS
10
4.36348
20
-3.97953
11
4.36348
21
-4.0374
0
LINE
8
BLACK
6
CONTINUOUS
10
4.33455
20
-4.00846
11
4.39242
21
-4.00846
0
LINE
8
BLACK
6
CONTINUOUS
10
4.37283
20
-1.70984
11
4.37283
21
-1.76772
0
LINE
8
BLACK
6
CONTINUOUS
10
4.3439
20
-1.73878
11
4.40177
21
-1.73878
0
LINE
8
BLACK
6
CONTINUOUS
10
4.51654
20
-0.883071
11
4.51654
21
-0.940945
0
LINE
8
BLACK
6
CONTINUOUS
10
4.4876
20
-0.912008
11
4.54547
21
-0.912008
0
LINE
8
BLACK
6
CONTINUOUS
10
4.53622
20
-1.07992
11
4.53622
21
-1.1378
0
LINE
8
BLACK
6
CONTINUOUS
10
4.50728
20
-1.10886
11
4.56516
21
-1.10886
0
LINE
8
BLACK
6
CONTINUOUS
10
4.55098
20
-2.47953
11
4.55098
21
-2.5374
0
LINE
8
BLACK
6
CONTINUOUS
10
4.52205
20
-2.50846
11
4.57992
21
-2.50846
0
LINE
8
BLACK
6
CONTINUOUS
10
4.56033
20
-3.95984
11
4.56033
21
-4.01772
0
LINE
8
BLACK
6
CONTINUOUS
10
4.5314
20
-3.98878
11
4.58927
21
-3.98878
0
LINE
8
BLACK
6
CONTINUOUS
10
4.73848
20
-3.22953
11
4.73848
21
-3.2874
0
LINE
8
BLACK
6
CONTINUOUS
10
4.70955
20
-3.25846
11
4.76742
21
-3.25846
0
LINE
8
BLACK
6
CONTINUOUS
10
4.74783
20
-2.45984
11
4.74783
21
-2.51772
0
LINE
8
BLACK
6
CONTINUOUS
10
4.7189
20
-2.48878
11
4.77677
21
-2.48878
0
LINE
8
BLACK
6
CONTINUOUS
10
4.92598
20
-1.72953
11
4.92598
21
-1.7874
0
LINE
8
BLACK
6
CONTINUOUS
10
4.89705
20
-1.75846
11
4.95492
21
-1.75846
0
LINE
8
BLACK
6
CONTINUOUS
10
4.93533
20
-3.20984
11
4.93533
21
-3.26772
0
LINE
8
BLACK
6
CONTINUOUS
10
4.9064
20
-3.23878
11
4.96427
21
-3.23878
0
LINE
8
BLACK
6
CONTINUOUS
10
5.01973
20
-4.72953
11
5.01973
21
-4.7874
0
LINE
8
BLACK
6
CONTINUOUS
10
4.9908
20
-4.75846
11
5.04867
21
-4.75846
0
LINE
8
BLACK
6
CONTINUOUS
10
5.11348
20
-3.97953
11
5.11348
21
-4.0374
0
LINE
8
BLACK
6
CONTINUOUS
10
5.08455
20
-4.00846
11
5.14242
21
-4.00846
0
LINE
8
BLACK
6
CONTINUOUS
10
5.12283
20
-1.70984
11
5.12283
21
-1.76772
0
LINE
8
BLACK
6
CONTINUOUS
10
5.0939
20
-1.73878
11
5.15177
21
-1.73878
0
LINE
8
BLACK
6
CONTINUOUS
10
5.21658
20
-4.70984
11
5.21658
21
-4.76772
0
LINE
8
BLACK
6
CONTINUOUS
10
5.18765
20
-4.73878
11
5.24552
21
-4.73878
0
LINE
8
BLACK
6
CONTINUOUS
10
5.30098
20
-2.47953
11
5.30098
21
-2.5374
0
LINE
8
BLACK
6
CONTINUOUS
10
5.27205
20
-2.50846
11
5.32992
21
-2.50846
0
LINE
8
BLACK
6
CONTINUOUS
10
5.30098
20
-5.06417
11
5.30098
21
-5.12205
0
LINE
8
BLACK
6
CONTINUOUS
10
5.27205
20
-5.09311
11
5.32992
21
-5.09311
0
LINE
8
BLACK
6
CONTINUOUS
10
5.31033
20
-3.95984
11
5.31033
21
-4.01772
0
LINE
8
BLACK
6
CONTINUOUS
10
5.2814
20
-3.98878
11
5.33927
21
-3.98878
0
LINE
8
BLACK
6
CONTINUOUS
10
5.39473
20
-4.72953
11
5.39473
21
-4.7874
0
LINE
8
BLACK
6
CONTINUOUS
10
5.3658
20
-4.75846
11
5.42367
21
-4.75846
0
LINE
8
BLACK
6
CONTINUOUS
10
5.48848
20
-3.22953
11
5.48848
21
-3.2874
0
LINE
8
BLACK
6
CONTINUOUS
10
5.45955
20
-3.25846
11
5.51742
21
-3.25846
0
LINE
8
BLACK
6
CONTINUOUS
10
5.49783
20
-2.45984
11
5.49783
21
-2.51772
0
LINE
8
BLACK
6
CONTINUOUS
10
5.4689
20
-2.48878
11
5.52677
21
-2.48878
0
LINE
8
BLACK
6
CONTINUOUS
10
5.49783
20
-5.04449
11
5.49783
21
-5.10236
0
LINE
8
BLACK
6
CONTINUOUS
10
5.4689
20
-5.07343
11
5.52677
21
-5.07343
0
LINE
8
BLACK
6
CONTINUOUS
10
5.59158
20
-4.70984
11
5.59158
21
-4.76772
0
LINE
8
BLACK
6
CONTINUOUS
10
5.56265
20
-4.73878
11
5.62052
21
-4.73878
0
LINE
8
BLACK
6
CONTINUOUS
10
5.67598
20
-1.72953
11
5.67598
21
-1.7874
0
LINE
8
BLACK
6
CONTINUOUS
10
5.64705
20
-1.75846
11
5.70492
21
-1.75846
0
LINE
8
BLACK
6
CONTINUOUS
10
5.68533
20
-3.20984
11
5.68533
21
-3.26772
0
LINE
8
BLACK
6
CONTINUOUS
10
5.6564
20
-3.23878
11
5.71427
21
-3.23878
0
LINE
8
BLACK
6
CONTINUOUS
10
5.86348
20
-3.97953
11
5.86348
21
-4.0374
0
LINE
8
BLACK
6
CONTINUOUS
10
5.83455
20
-4.00846
11
5.89242
21
-4.00846
0
LINE
8
BLACK
6
CONTINUOUS
10
5.87283
20
-1.70984
11
5.87283
21
-1.76772
0
LINE
8
BLACK
6
CONTINUOUS
10
5.8439
20
-1.73878
11
5.90177
21
-1.73878
0
LINE
8
BLACK
6
CONTINUOUS
10
6.05098
20
-2.47953
11
6.05098
21
-2.5374
0
LINE
8
BLACK
6
CONTINUOUS
10
6.02205
20
-2.50846
11
6.07992
21
-2.50846
0
LINE
8
BLACK
6
CONTINUOUS
10
6.05098
20
-4.72953
11
6.05098
21
-4.7874
0
LINE
8
BLACK
6
CONTINUOUS
10
6.02205
20
-4.75846
11
6.07992
21
-4.75846
0
LINE
8
BLACK
6
CONTINUOUS
10
6.06033
20
-3.95984
11
6.06033
21
-4.01772
0
LINE
8
BLACK
6
CONTINUOUS
10
6.0314
20
-3.98878
11
6.08927
21
-3.98878
0
LINE
8
BLACK
6
CONTINUOUS
10
6.23848
20
-3.22953
11
6.23848
21
-3.2874
0
LINE
8
BLACK
6
CONTINUOUS
10
6.20955
20
-3.25846
11
6.26742
21
-3.25846
0
LINE
8
BLACK
6
CONTINUOUS
10
6.24783
20
-2.45984
11
6.24783
21
-2.51772
0
LINE
8
BLACK
6
CONTINUOUS
10
6.2189
20
-2.48878
11
6.27677
21
-2.48878
0
LINE
8
BLACK
6
CONTINUOUS
10
6.24783
20
-4.70984
11
6.24783
21
-4.76772
0
LINE
8
BLACK
6
CONTINUOUS
10
6.2189
20
-4.73878
11
6.27677
21
-4.73878
0
LINE
8
BLACK
6
CONTINUOUS
10
6.42598
20
-1.72953
11
6.42598
21
-1.7874
0
LINE
8
BLACK
6
CONTINUOUS
10
6.39705
20
-1.75846
11
6.45492
21
-1.75846
0
LINE
8
BLACK
6
CONTINUOUS
10
6.43533
20
-3.20984
11
6.43533
21
-3.26772
0
LINE
8
BLACK
6
CONTINUOUS
10
6.4064
20
-3.23878
11
6.46427
21
-3.23878
0
LINE
8
BLACK
6
CONTINUOUS
10
6.61348
20
-3.97953
11
6.61348
21
-4.0374
0
LINE
8
BLACK
6
CONTINUOUS
10
6.58455
20
-4.00846
11
6.64242
21
-4.00846
0
LINE
8
BLACK
6
CONTINUOUS
10
6.62283
20
-1.70984
11
6.62283
21
-1.76772
0
LINE
8
BLACK
6
CONTINUOUS
10
6.5939
20
-1.73878
11
6.65177
21
-1.73878
0
LINE
8
BLACK
6
CONTINUOUS
10
6.80098
20
-2.47953
11
6.80098
21
-2.5374
0
LINE
8
BLACK
6
CONTINUOUS
10
6.77205
20
-2.50846
11
6.82992
21
-2.50846
0
LINE
8
BLACK
6
CONTINUOUS
10
6.80098
20
-4.72953
11
6.80098
21
-4.7874
0
LINE
8
BLACK
6
CONTINUOUS
10
6.77205
20
-4.75846
11
6.82992
21
-4.75846
0
LINE
8
BLACK
6
CONTINUOUS
10
6.81033
20
-3.95984
11
6.81033
21
-4.01772
0
LINE
8
BLACK
6
CONTINUOUS
10
6.7814
20
-3.98878
11
6.83927
21
-3.98878
0
LINE
8
BLACK
6
CONTINUOUS
10
6.98848
20
-3.22953
11
6.98848
21
-3.2874
0
LINE
8
BLACK
6
CONTINUOUS
10
6.95955
20
-3.25846
11
7.01742
21
-3.25846
0
LINE
8
BLACK
6
CONTINUOUS
10
6.99783
20
-2.45984
11
6.99783
21
-2.51772
0
LINE
8
BLACK
6
CONTINUOUS
10
6.9689
20
-2.48878
11
7.02677
21
-2.48878
0
LINE
8
BLACK
6
CONTINUOUS
10
6.99783
20
-4.70984
11
6.99783
21
-4.76772
0
LINE
8
BLACK
6
CONTINUOUS
10
6.9689
20
-4.73878
11
7.02677
21
-4.73878
0
LINE
8
BLACK
6
CONTINUOUS
10
7.17598
20
-1.72953
11
7.17598
21
-1.7874
0
LINE
8
BLACK
6
CONTINUOUS
10
7.14705
20
-1.75846
11
7.20492
21
-1.75846
0
LINE
8
BLACK
6
CONTINUOUS
10
7.18533
20
-3.20984
11
7.18533
21
-3.26772
0
LINE
8
BLACK
6
CONTINUOUS
10
7.1564
20
-3.23878
11
7.21427
21
-3.23878
0
LINE
8
BLACK
6
CONTINUOUS
10
7.36348
20
-3.97953
11
7.36348
21
-4.0374
0
LINE
8
BLACK
6
CONTINUOUS
10
7.33455
20
-4.00846
11
7.39242
21
-4.00846
0
LINE
8
BLACK
6
CONTINUOUS
10
7.37283
20
-1.70984
11
7.37283
21
-1.76772
0
LINE
8
BLACK
6
CONTINUOUS
10
7.3439
20
-1.73878
11
7.40177
21
-1.73878
0
LINE
8
BLACK
6
CONTINUOUS
10
7.55098
20
-2.47953
11
7.55098
21
-2.5374
0
LINE
8
BLACK
6
CONTINUOUS
10
7.52205
20
-2.50846
11
7.57992
21
-2.50846
0
LINE
8
BLACK
6
CONTINUOUS
10
7.55098
20
-4.72953
11
7.55098
21
-4.7874
0
LINE
8
BLACK
6
CONTINUOUS
10
7.52205
20
-4.75846
11
7.57992
21
-4.75846
0
LINE
8
BLACK
6
CONTINUOUS
10
7.56033
20
-3.95984
11
7.56033
21
-4.01772
0
LINE
8
BLACK
6
CONTINUOUS
10
7.5314
20
-3.98878
11
7.58927
21
-3.98878
0
LINE
8
BLACK
6
CONTINUOUS
10
7.73848
20
-3.22953
11
7.73848
21
-3.2874
0
LINE
8
BLACK
6
CONTINUOUS
10
7.70955
20
-3.25846
11
7.76742
21
-3.25846
0
LINE
8
BLACK
6
CONTINUOUS
10
7.74783
20
-2.45984
11
7.74783
21
-2.51772
0
LINE
8
BLACK
6
CONTINUOUS
10
7.7189
20
-2.48878
11
7.77677
21
-2.48878
0
LINE
8
BLACK
6
CONTINUOUS
10
7.74783
20
-4.70984
11
7.74783
21
-4.76772
0
LINE
8
BLACK
6
CONTINUOUS
10
7.7189
20
-4.73878
11
7.77677
21
-4.73878
0
LINE
8
BLACK
6
CONTINUOUS
10
7.92598
20
-1.72953
11
7.92598
21
-1.7874
0
LINE
8
BLACK
6
CONTINUOUS
10
7.89705
20
-1.75846
11
7.95492
21
-1.75846
0
LINE
8
BLACK
6
CONTINUOUS
10
7.92598
20
-4.72953
11
7.92598
21
-4.7874
0
LINE
8
BLACK
6
CONTINUOUS
10
7.89705
20
-4.75846
11
7.95492
21
-4.75846
0
LINE
8
BLACK
6
CONTINUOUS
10
7.93533
20
-3.20984
11
7.93533
21
-3.26772
0
LINE
8
BLACK
6
CONTINUOUS
10
7.9064
20
-3.23878
11
7.96427
21
-3.23878
0
LINE
8
BLACK
6
CONTINUOUS
10
8.01973
20
-5.06417
11
8.01973
21
-5.12205
0
LINE
8
BLACK
6
CONTINUOUS
10
7.9908
20
-5.09311
11
8.04867
21
-5.09311
0
LINE
8
BLACK
6
CONTINUOUS
10
8.11348
20
-3.97953
11
8.11348
21
-4.0374
0
LINE
8
BLACK
6
CONTINUOUS
10
8.08455
20
-4.00846
11
8.14242
21
-4.00846
0
LINE
8
BLACK
6
CONTINUOUS
10
8.12283
20
-1.70984
11
8.12283
21
-1.76772
0
LINE
8
BLACK
6
CONTINUOUS
10
8.0939
20
-1.73878
11
8.15177
21
-1.73878
0
LINE
8
BLACK
6
CONTINUOUS
10
8.12283
20
-4.70984
11
8.12283
21
-4.76772
0
LINE
8
BLACK
6
CONTINUOUS
10
8.0939
20
-4.73878
11
8.15177
21
-4.73878
0
LINE
8
BLACK
6
CONTINUOUS
10
8.21658
20
-5.04449
11
8.21658
21
-5.10236
0
LINE
8
BLACK
6
CONTINUOUS
10
8.18765
20
-5.07343
11
8.24552
21
-5.07343
0
LINE
8
BLACK
6
CONTINUOUS
10
8.30098
20
-2.47953
11
8.30098
21
-2.5374
0
LINE
8
BLACK
6
CONTINUOUS
10
8.27205
20
-2.50846
11
8.32992
21
-2.50846
0
LINE
8
BLACK
6
CONTINUOUS
10
8.30098
20
-4.72953
11
8.30098
21
-4.7874
0
LINE
8
BLACK
6
CONTINUOUS
10
8.27205
20
-4.75846
11
8.32992
21
-4.75846
0
LINE
8
BLACK
6
CONTINUOUS
10
8.31033
20
-3.95984
11
8.31033
21
-4.01772
0
LINE
8
BLACK
6
CONTINUOUS
10
8.2814
20
-3.98878
11
8.33927
21
-3.98878
0
LINE
8
BLACK
6
CONTINUOUS
10
8.48848
20
-3.22953
11
8.48848
21
-3.2874
0
LINE
8
BLACK
6
CONTINUOUS
10
8.45955
20
-3.25846
11
8.51742
21
-3.25846
0
LINE
8
BLACK
6
CONTINUOUS
10
8.49783
20
-2.45984
11
8.49783
21
-2.51772
0
LINE
8
BLACK
6
CONTINUOUS
10
8.4689
20
-2.48878
11
8.52677
21
-2.48878
0
LINE
8
BLACK
6
CONTINUOUS
10
8.49783
20
-4.70984
11
8.49783
21
-4.76772
0
LINE
8
BLACK
6
CONTINUOUS
10
8.4689
20
-4.73878
11
8.52677
21
-4.73878
0
LINE
8
BLACK
6
CONTINUOUS
10
8.67598
20
-1.72953
11
8.67598
21
-1.7874
0
LINE
8
BLACK
6
CONTINUOUS
10
8.64705
20
-1.75846
11
8.70492
21
-1.75846
0
LINE
8
BLACK
6
CONTINUOUS
10
8.68533
20
-3.20984
11
8.68533
21
-3.26772
0
LINE
8
BLACK
6
CONTINUOUS
10
8.6564
20
-3.23878
11
8.71427
21
-3.23878
0
LINE
8
BLACK
6
CONTINUOUS
10
8.86348
20
-3.97953
11
8.86348
21
-4.0374
0
LINE
8
BLACK
6
CONTINUOUS
10
8.83455
20
-4.00846
11
8.89242
21
-4.00846
0
LINE
8
BLACK
6
CONTINUOUS
10
8.87283
20
-1.70984
11
8.87283
21
-1.76772
0
LINE
8
BLACK
6
CONTINUOUS
10
8.8439
20
-1.73878
11
8.90177
21
-1.73878
0
LINE
8
BLACK
6
CONTINUOUS
10
8.95723
20
-5.06417
11
8.95723
21
-5.12205
0
LINE
8
BLACK
6
CONTINUOUS
10
8.9283
20
-5.09311
11
8.98617
21
-5.09311
0
LINE
8
BLACK
6
CONTINUOUS
10
9.05098
20
-2.47953
11
9.05098
21
-2.5374
0
LINE
8
BLACK
6
CONTINUOUS
10
9.02205
20
-2.50846
11
9.07992
21
-2.50846
0
LINE
8
BLACK
6
CONTINUOUS
10
9.05098
20
-4.72953
11
9.05098
21
-4.7874
0
LINE
8
BLACK
6
CONTINUOUS
10
9.02205
20
-4.75846
11
9.07992
21
-4.75846
0
LINE
8
BLACK
6
CONTINUOUS
10
9.06033
20
-3.95984
11
9.06033
21
-4.01772
0
LINE
8
BLACK
6
CONTINUOUS
10
9.0314
20
-3.98878
11
9.08927
21
-3.98878
0
LINE
8
BLACK
6
CONTINUOUS
10
9.15408
20
-5.04449
11
9.15408
21
-5.10236
0
LINE
8
BLACK
6
CONTINUOUS
10
9.12515
20
-5.07343
11
9.18302
21
-5.07343
0
LINE
8
BLACK
6
CONTINUOUS
10
9.23848
20
-3.22953
11
9.23848
21
-3.2874
0
LINE
8
BLACK
6
CONTINUOUS
10
9.20955
20
-3.25846
11
9.26742
21
-3.25846
0
LINE
8
BLACK
6
CONTINUOUS
10
9.24783
20
-2.45984
11
9.24783
21
-2.51772
0
LINE
8
BLACK
6
CONTINUOUS
10
9.2189
20
-2.48878
11
9.27677
21
-2.48878
0
LINE
8
BLACK
6
CONTINUOUS
10
9.24783
20
-4.70984
11
9.24783
21
-4.76772
0
LINE
8
BLACK
6
CONTINUOUS
10
9.2189
20
-4.73878
11
9.27677
21
-4.73878
0
LINE
8
BLACK
6
CONTINUOUS
10
9.42598
20
-1.72953
11
9.42598
21
-1.7874
0
LINE
8
BLACK
6
CONTINUOUS
10
9.39705
20
-1.75846
11
9.45492
21
-1.75846
0
LINE
8
BLACK
6
CONTINUOUS
10
9.43533
20
-3.20984
11
9.43533
21
-3.26772
0
LINE
8
BLACK
6
CONTINUOUS
10
9.4064
20
-3.23878
11
9.46427
21
-3.23878
0
LINE
8
BLACK
6
CONTINUOUS
10
9.62283
20
-1.70984
11
9.62283
21
-1.76772
0
LINE
8
BLACK
6
CONTINUOUS
10
9.5939
20
-1.73878
11
9.65177
21
-1.73878
0
LINE
8
BLACK
6
CONTINUOUS
10
9.70723
20
-4.31417
11
9.70723
21
-4.37205
0
LINE
8
BLACK
6
CONTINUOUS
10
9.6783
20
-4.34311
11
9.73617
21
-4.34311
0
LINE
8
BLACK
6
CONTINUOUS
10
9.80098
20
-2.47953
11
9.80098
21
-2.5374
0
LINE
8
BLACK
6
CONTINUOUS
10
9.77205
20
-2.50846
11
9.82992
21
-2.50846
0
LINE
8
BLACK
6
CONTINUOUS
10
9.80098
20
-4.72953
11
9.80098
21
-4.7874
0
LINE
8
BLACK
6
CONTINUOUS
10
9.77205
20
-4.75846
11
9.82992
21
-4.75846
0
LINE
8
BLACK
6
CONTINUOUS
10
9.90408
20
-4.29449
11
9.90408
21
-4.35236
0
LINE
8
BLACK
6
CONTINUOUS
10
9.87515
20
-4.32343
11
9.93302
21
-4.32343
0
LINE
8
BLACK
6
CONTINUOUS
10
9.98848
20
-3.22953
11
9.98848
21
-3.2874
0
LINE
8
BLACK
6
CONTINUOUS
10
9.95955
20
-3.25846
11
10.0174
21
-3.25846
0
LINE
8
BLACK
6
CONTINUOUS
10
9.98848
20
-5.06417
11
9.98848
21
-5.12205
0
LINE
8
BLACK
6
CONTINUOUS
10
9.95955
20
-5.09311
11
10.0174
21
-5.09311
0
LINE
8
BLACK
6
CONTINUOUS
10
9.99783
20
-2.45984
11
9.99783
21
-2.51772
0
LINE
8
BLACK
6
CONTINUOUS
10
9.9689
20
-2.48878
11
10.0268
21
-2.48878
0
LINE
8
BLACK
6
CONTINUOUS
10
9.99783
20
-4.70984
11
9.99783
21
-4.76772
0
LINE
8
BLACK
6
CONTINUOUS
10
9.9689
20
-4.73878
11
10.0268
21
-4.73878
0
LINE
8
BLACK
6
CONTINUOUS
10
10.0822
20
-3.97953
11
10.0822
21
-4.0374
0
LINE
8
BLACK
6
CONTINUOUS
10
10.0533
20
-4.00846
11
10.1112
21
-4.00846
0
LINE
8
BLACK
6
CONTINUOUS
10
10.1853
20
-3.20984
11
10.1853
21
-3.26772
0
LINE
8
BLACK
6
CONTINUOUS
10
10.1564
20
-3.23878
11
10.2143
21
-3.23878
0
LINE
8
BLACK
6
CONTINUOUS
10
10.1853
20
-5.04449
11
10.1853
21
-5.10236
0
LINE
8
BLACK
6
CONTINUOUS
10
10.1564
20
-5.07343
11
10.2143
21
-5.07343
0
LINE
8
BLACK
6
CONTINUOUS
10
10.2697
20
-3.56417
11
10.2697
21
-3.62205
0
LINE
8
BLACK
6
CONTINUOUS
10
10.2408
20
-3.59311
11
10.2987
21
-3.59311
0
LINE
8
BLACK
6
CONTINUOUS
10
10.2791
20
-3.95984
11
10.2791
21
-4.01772
0
LINE
8
BLACK
6
CONTINUOUS
10
10.2501
20
-3.98878
11
10.308
21
-3.98878
0
LINE
8
BLACK
6
CONTINUOUS
10
10.3635
20
-1.72953
11
10.3635
21
-1.7874
0
LINE
8
BLACK
6
CONTINUOUS
10
10.3345
20
-1.75846
11
10.3924
21
-1.75846
0
LINE
8
BLACK
6
CONTINUOUS
10
10.4666
20
-3.54449
11
10.4666
21
-3.60236
0
LINE
8
BLACK
6
CONTINUOUS
10
10.4376
20
-3.57343
11
10.4955
21
-3.57343
0
LINE
8
BLACK
6
CONTINUOUS
10
10.4722
20
-2.94803
11
10.4722
21
-3.00591
0
LINE
8
BLACK
6
CONTINUOUS
10
10.4433
20
-2.97697
11
10.5012
21
-2.97697
0
LINE
8
BLACK
6
CONTINUOUS
10
10.4919
20
-3.14488
11
10.4919
21
-3.20276
0
LINE
8
BLACK
6
CONTINUOUS
10
10.463
20
-3.17382
11
10.5209
21
-3.17382
0
LINE
8
BLACK
6
CONTINUOUS
10
10.551
20
-2.47953
11
10.551
21
-2.5374
0
LINE
8
BLACK
6
CONTINUOUS
10
10.522
20
-2.50846
11
10.5799
21
-2.50846
0
LINE
8
BLACK
6
CONTINUOUS
10
10.551
20
-4.31417
11
10.551
21
-4.37205
0
LINE
8
BLACK
6
CONTINUOUS
10
10.522
20
-4.34311
11
10.5799
21
-4.34311
0
LINE
8
BLACK
6
CONTINUOUS
10
10.551
20
-4.72953
11
10.551
21
-4.7874
0
LINE
8
BLACK
6
CONTINUOUS
10
10.522
20
-4.75846
11
10.5799
21
-4.75846
0
LINE
8
BLACK
6
CONTINUOUS
10
10.5603
20
-1.70984
11
10.5603
21
-1.76772
0
LINE
8
BLACK
6
CONTINUOUS
10
10.5314
20
-1.73878
11
10.5893
21
-1.73878
0
LINE
8
BLACK
6
CONTINUOUS
10
10.7478
20
-2.45984
11
10.7478
21
-2.51772
0
LINE
8
BLACK
6
CONTINUOUS
10
10.7189
20
-2.48878
11
10.7768
21
-2.48878
0
LINE
8
BLACK
6
CONTINUOUS
10
10.7478
20
-4.29449
11
10.7478
21
-4.35236
0
LINE
8
BLACK
6
CONTINUOUS
10
10.7189
20
-4.32343
11
10.7768
21
-4.32343
0
LINE
8
BLACK
6
CONTINUOUS
10
10.7478
20
-4.70984
11
10.7478
21
-4.76772
0
LINE
8
BLACK
6
CONTINUOUS
10
10.7189
20
-4.73878
11
10.7768
21
-4.73878
0
LINE
8
BLACK
6
CONTINUOUS
10
12.051
20
-1.72953
11
12.051
21
-1.7874
0
LINE
8
BLACK
6
CONTINUOUS
10
12.022
20
-1.75846
11
12.0799
21
-1.75846
0
LINE
8
BLACK
6
CONTINUOUS
10
12.051
20
-2.47953
11
12.051
21
-2.5374
0
LINE
8
BLACK
6
CONTINUOUS
10
12.022
20
-2.50846
11
12.0799
21
-2.50846
0
LINE
8
BLACK
6
CONTINUOUS
10
12.051
20
-3.22953
11
12.051
21
-3.2874
0
LINE
8
BLACK
6
CONTINUOUS
10
12.022
20
-3.25846
11
12.0799
21
-3.25846
0
LINE
8
BLACK
6
CONTINUOUS
10
12.051
20
-3.97953
11
12.051
21
-4.0374
0
LINE
8
BLACK
6
CONTINUOUS
10
12.022
20
-4.00846
11
12.0799
21
-4.00846
0
LINE
8
BLACK
6
CONTINUOUS
10
12.051
20
-4.72953
11
12.051
21
-4.7874
0
LINE
8
BLACK
6
CONTINUOUS
10
12.022
20
-4.75846
11
12.0799
21
-4.75846
0
LINE
8
BLACK
6
CONTINUOUS
10
12.2478
20
-1.70984
11
12.2478
21
-1.76772
0
LINE
8
BLACK
6
CONTINUOUS
10
12.2189
20
-1.73878
11
12.2768
21
-1.73878
0
LINE
8
BLACK
6
CONTINUOUS
10
12.2478
20
-2.45984
11
12.2478
21
-2.51772
0
LINE
8
BLACK
6
CONTINUOUS
10
12.2189
20
-2.48878
11
12.2768
21
-2.48878
0
LINE
8
BLACK
6
CONTINUOUS
10
12.2478
20
-3.20984
11
12.2478
21
-3.26772
0
LINE
8
BLACK
6
CONTINUOUS
10
12.2189
20
-3.23878
11
12.2768
21
-3.23878
0
LINE
8
BLACK
6
CONTINUOUS
10
12.2478
20
-3.95984
11
12.2478
21
-4.01772
0
LINE
8
BLACK
6
CONTINUOUS
10
12.2189
20
-3.98878
11
12.2768
21
-3.98878
0
LINE
8
BLACK
6
CONTINUOUS
10
12.2478
20
-4.70984
11
12.2478
21
-4.76772
0
LINE
8
BLACK
6
CONTINUOUS
10
12.2189
20
-4.73878
11
12.2768
21
-4.73878
0
LINE
8
BLACK
6
CONTINUOUS
10
12.3866
20
-5.06417
11
12.3866
21
-5.12205
0
LINE
8
BLACK
6
CONTINUOUS
10
12.3577
20
-5.09311
11
12.4156
21
-5.09311
0
LINE
8
BLACK
6
CONTINUOUS
10
12.5835
20
-5.04449
11
12.5835
21
-5.10236
0
LINE
8
BLACK
6
CONTINUOUS
10
12.5545
20
-5.07343
11
12.6124
21
-5.07343
0
LINE
8
BLACK
6
CONTINUOUS
10
12.801
20
-1.72953
11
12.801
21
-1.7874
0
LINE
8
BLACK
6
CONTINUOUS
10
12.772
20
-1.75846
11
12.8299
21
-1.75846
0
LINE
8
BLACK
6
CONTINUOUS
10
12.801
20
-2.47953
11
12.801
21
-2.5374
0
LINE
8
BLACK
6
CONTINUOUS
10
12.772
20
-2.50846
11
12.8299
21
-2.50846
0
LINE
8
BLACK
6
CONTINUOUS
10
12.801
20
-3.22953
11
12.801
21
-3.2874
0
LINE
8
BLACK
6
CONTINUOUS
10
12.772
20
-3.25846
11
12.8299
21
-3.25846
0
LINE
8
BLACK
6
CONTINUOUS
10
12.801
20
-3.97953
11
12.801
21
-4.0374
0
LINE
8
BLACK
6
CONTINUOUS
10
12.772
20
-4.00846
11
12.8299
21
-4.00846
0
LINE
8
BLACK
6
CONTINUOUS
10
12.801
20
-4.72953
11
12.801
21
-4.7874
0
LINE
8
BLACK
6
CONTINUOUS
10
12.772
20
-4.75846
11
12.8299
21
-4.75846
0
LINE
8
BLACK
6
CONTINUOUS
10
12.9978
20
-1.70984
11
12.9978
21
-1.76772
0
LINE
8
BLACK
6
CONTINUOUS
10
12.9689
20
-1.73878
11
13.0268
21
-1.73878
0
LINE
8
BLACK
6
CONTINUOUS
10
12.9978
20
-2.45984
11
12.9978
21
-2.51772
0
LINE
8
BLACK
6
CONTINUOUS
10
12.9689
20
-2.48878
11
13.0268
21
-2.48878
0
LINE
8
BLACK
6
CONTINUOUS
10
12.9978
20
-3.20984
11
12.9978
21
-3.26772
0
LINE
8
BLACK
6
CONTINUOUS
10
12.9689
20
-3.23878
11
13.0268
21
-3.23878
0
LINE
8
BLACK
6
CONTINUOUS
10
12.9978
20
-3.95984
11
12.9978
21
-4.01772
0
LINE
8
BLACK
6
CONTINUOUS
10
12.9689
20
-3.98878
11
13.0268
21
-3.98878
0
LINE
8
BLACK
6
CONTINUOUS
10
12.9978
20
-4.70984
11
12.9978
21
-4.76772
0
LINE
8
BLACK
6
CONTINUOUS
10
12.9689
20
-4.73878
11
13.0268
21
-4.73878
0
LINE
8
BLACK
6
CONTINUOUS
10
13.551
20
-1.72953
11
13.551
21
-1.7874
0
LINE
8
BLACK
6
CONTINUOUS
10
13.522
20
-1.75846
11
13.5799
21
-1.75846
0
LINE
8
BLACK
6
CONTINUOUS
10
13.551
20
-2.47953
11
13.551
21
-2.5374
0
LINE
8
BLACK
6
CONTINUOUS
10
13.522
20
-2.50846
11
13.5799
21
-2.50846
0
LINE
8
BLACK
6
CONTINUOUS
10
13.551
20
-3.22953
11
13.551
21
-3.2874
0
LINE
8
BLACK
6
CONTINUOUS
10
13.522
20
-3.25846
11
13.5799
21
-3.25846
0
LINE
8
BLACK
6
CONTINUOUS
10
13.551
20
-3.97953
11
13.551
21
-4.0374
0
LINE
8
BLACK
6
CONTINUOUS
10
13.522
20
-4.00846
11
13.5799
21
-4.00846
0
LINE
8
BLACK
6
CONTINUOUS
10
13.551
20
-4.72953
11
13.551
21
-4.7874
0
LINE
8
BLACK
6
CONTINUOUS
10
13.522
20
-4.75846
11
13.5799
21
-4.75846
0
LINE
8
BLACK
6
CONTINUOUS
10
13.7478
20
-1.70984
11
13.7478
21
-1.76772
0
LINE
8
BLACK
6
CONTINUOUS
10
13.7189
20
-1.73878
11
13.7768
21
-1.73878
0
LINE
8
BLACK
6
CONTINUOUS
10
13.7478
20
-2.45984
11
13.7478
21
-2.51772
0
LINE
8
BLACK
6
CONTINUOUS
10
13.7189
20
-2.48878
11
13.7768
21
-2.48878
0
LINE
8
BLACK
6
CONTINUOUS
10
13.7478
20
-3.20984
11
13.7478
21
-3.26772
0
LINE
8
BLACK
6
CONTINUOUS
10
13.7189
20
-3.23878
11
13.7768
21
-3.23878
0
LINE
8
BLACK
6
CONTINUOUS
10
13.7478
20
-3.95984
11
13.7478
21
-4.01772
0
LINE
8
BLACK
6
CONTINUOUS
10
13.7189
20
-3.98878
11
13.7768
21
-3.98878
0
LINE
8
BLACK
6
CONTINUOUS
10
13.7478
20
-4.70984
11
13.7478
21
-4.76772
0
LINE
8
BLACK
6
CONTINUOUS
10
13.7189
20
-4.73878
11
13.7768
21
-4.73878
0
LINE
8
BLACK
6
CONTINUOUS
10
14.2222
20
-4.41358
11
14.2222
21
-4.47146
0
LINE
8
BLACK
6
CONTINUOUS
10
14.1933
20
-4.44252
11
14.2512
21
-4.44252
0
LINE
8
BLACK
6
CONTINUOUS
10
14.2419
20
-4.61043
11
14.2419
21
-4.66831
0
LINE
8
BLACK
6
CONTINUOUS
10
14.213
20
-4.63937
11
14.2709
21
-4.63937
0
LINE
8
BLACK
6
CONTINUOUS
10
14.301
20
-1.72953
11
14.301
21
-1.7874
0
LINE
8
BLACK
6
CONTINUOUS
10
14.272
20
-1.75846
11
14.3299
21
-1.75846
0
LINE
8
BLACK
6
CONTINUOUS
10
14.301
20
-2.47953
11
14.301
21
-2.5374
0
LINE
8
BLACK
6
CONTINUOUS
10
14.272
20
-2.50846
11
14.3299
21
-2.50846
0
LINE
8
BLACK
6
CONTINUOUS
10
14.301
20
-3.22953
11
14.301
21
-3.2874
0
LINE
8
BLACK
6
CONTINUOUS
10
14.272
20
-3.25846
11
14.3299
21
-3.25846
0
LINE
8
BLACK
6
CONTINUOUS
10
14.301
20
-3.97953
11
14.301
21
-4.0374
0
LINE
8
BLACK
6
CONTINUOUS
10
14.272
20
-4.00846
11
14.3299
21
-4.00846
0
LINE
8
BLACK
6
CONTINUOUS
10
14.301
20
-4.72953
11
14.301
21
-4.7874
0
LINE
8
BLACK
6
CONTINUOUS
10
14.272
20
-4.75846
11
14.3299
21
-4.75846
0
LINE
8
BLACK
6
CONTINUOUS
10
14.4978
20
-1.70984
11
14.4978
21
-1.76772
0
LINE
8
BLACK
6
CONTINUOUS
10
14.4689
20
-1.73878
11
14.5268
21
-1.73878
0
LINE
8
BLACK
6
CONTINUOUS
10
14.4978
20
-2.45984
11
14.4978
21
-2.51772
0
LINE
8
BLACK
6
CONTINUOUS
10
14.4689
20
-2.48878
11
14.5268
21
-2.48878
0
LINE
8
BLACK
6
CONTINUOUS
10
14.4978
20
-3.20984
11
14.4978
21
-3.26772
0
LINE
8
BLACK
6
CONTINUOUS
10
14.4689
20
-3.23878
11
14.5268
21
-3.23878
0
LINE
8
BLACK
6
CONTINUOUS
10
14.4978
20
-3.95984
11
14.4978
21
-4.01772
0
LINE
8
BLACK
6
CONTINUOUS
10
14.4689
20
-3.98878
11
14.5268
21
-3.98878
0
LINE
8
BLACK
6
CONTINUOUS
10
14.4978
20
-4.70984
11
14.4978
21
-4.76772
0
LINE
8
BLACK
6
CONTINUOUS
10
14.4689
20
-4.73878
11
14.5268
21
-4.73878
0
LINE
8
BLACK
6
CONTINUOUS
10
0.252015
20
-5.27597
11
0.252015
21
-5.19723
0
LINE
8
BLACK
6
CONTINUOUS
10
0.252015
20
-5.19723
11
0.270763
21
-5.19723
0
LINE
8
BLACK
6
CONTINUOUS
10
0.270763
20
-5.19723
11
0.282012
21
-5.20098
0
LINE
8
BLACK
6
CONTINUOUS
10
0.282012
20
-5.20098
11
0.289511
21
-5.20848
0
LINE
8
BLACK
6
CONTINUOUS
10
0.289511
20
-5.20848
11
0.29326
21
-5.21598
0
LINE
8
BLACK
6
CONTINUOUS
10
0.29326
20
-5.21598
11
0.29701
21
-5.23098
0
LINE
8
BLACK
6
CONTINUOUS
10
0.29701
20
-5.23098
11
0.29701
21
-5.24223
0
LINE
8
BLACK
6
CONTINUOUS
10
0.29701
20
-5.24223
11
0.29326
21
-5.25723
0
LINE
8
BLACK
6
CONTINUOUS
10
0.29326
20
-5.25723
11
0.289511
21
-5.26473
0
LINE
8
BLACK
6
CONTINUOUS
10
0.289511
20
-5.26473
11
0.282012
21
-5.27223
0
LINE
8
BLACK
6
CONTINUOUS
10
0.282012
20
-5.27223
11
0.270763
21
-5.27597
0
LINE
8
BLACK
6
CONTINUOUS
10
0.270763
20
-5.27597
11
0.252015
21
-5.27597
0
LINE
8
BLACK
6
CONTINUOUS
10
0.330756
20
-5.27597
11
0.330756
21
-5.22348
0
LINE
8
BLACK
6
CONTINUOUS
10
0.330756
20
-5.23848
11
0.334505
21
-5.23098
0
LINE
8
BLACK
6
CONTINUOUS
10
0.334505
20
-5.23098
11
0.338255
21
-5.22723
0
LINE
8
BLACK
6
CONTINUOUS
10
0.338255
20
-5.22723
11
0.345754
21
-5.22348
0
LINE
8
BLACK
6
CONTINUOUS
10
0.345754
20
-5.22348
11
0.353253
21
-5.22348
0
LINE
8
BLACK
6
CONTINUOUS
10
0.379499
20
-5.27597
11
0.379499
21
-5.22348
0
LINE
8
BLACK
6
CONTINUOUS
10
0.379499
20
-5.19723
11
0.37575
21
-5.20098
0
LINE
8
BLACK
6
CONTINUOUS
10
0.37575
20
-5.20098
11
0.379499
21
-5.20473
0
LINE
8
BLACK
6
CONTINUOUS
10
0.379499
20
-5.20473
11
0.383249
21
-5.20098
0
LINE
8
BLACK
6
CONTINUOUS
10
0.383249
20
-5.20098
11
0.379499
21
-5.19723
0
LINE
8
BLACK
6
CONTINUOUS
10
0.379499
20
-5.19723
11
0.379499
21
-5.20473
0
LINE
8
BLACK
6
CONTINUOUS
10
0.428243
20
-5.27597
11
0.420744
21
-5.27223
0
LINE
8
BLACK
6
CONTINUOUS
10
0.420744
20
-5.27223
11
0.416995
21
-5.26473
0
LINE
8
BLACK
6
CONTINUOUS
10
0.416995
20
-5.26473
11
0.416995
21
-5.19723
0
LINE
8
BLACK
6
CONTINUOUS
10
0.469488
20
-5.27597
11
0.461989
21
-5.27223
0
LINE
8
BLACK
6
CONTINUOUS
10
0.461989
20
-5.27223
11
0.45824
21
-5.26473
0
LINE
8
BLACK
6
CONTINUOUS
10
0.45824
20
-5.26473
11
0.45824
21
-5.19723
0
LINE
8
BLACK
6
CONTINUOUS
10
0.546729
20
-5.27597
11
0.546729
21
-5.19723
0
LINE
8
BLACK
6
CONTINUOUS
10
0.546729
20
-5.19723
11
0.572975
21
-5.25348
0
LINE
8
BLACK
6
CONTINUOUS
10
0.572975
20
-5.25348
11
0.599222
21
-5.19723
0
LINE
8
BLACK
6
CONTINUOUS
10
0.599222
20
-5.19723
11
0.599222
21
-5.27597
0
LINE
8
BLACK
6
CONTINUOUS
10
0.670463
20
-5.27597
11
0.670463
21
-5.23473
0
LINE
8
BLACK
6
CONTINUOUS
10
0.670463
20
-5.23473
11
0.666714
21
-5.22723
0
LINE
8
BLACK
6
CONTINUOUS
10
0.666714
20
-5.22723
11
0.659214
21
-5.22348
0
LINE
8
BLACK
6
CONTINUOUS
10
0.659214
20
-5.22348
11
0.644216
21
-5.22348
0
LINE
8
BLACK
6
CONTINUOUS
10
0.644216
20
-5.22348
11
0.636717
21
-5.22723
0
LINE
8
BLACK
6
CONTINUOUS
10
0.670463
20
-5.27223
11
0.662964
21
-5.27597
0
LINE
8
BLACK
6
CONTINUOUS
10
0.662964
20
-5.27597
11
0.644216
21
-5.27597
0
LINE
8
BLACK
6
CONTINUOUS
10
0.644216
20
-5.27597
11
0.636717
21
-5.27223
0
LINE
8
BLACK
6
CONTINUOUS
10
0.636717
20
-5.27223
11
0.632968
21
-5.26473
0
LINE
8
BLACK
6
CONTINUOUS
10
0.632968
20
-5.26473
11
0.632968
21
-5.25723
0
LINE
8
BLACK
6
CONTINUOUS
10
0.632968
20
-5.25723
11
0.636717
21
-5.24973
0
LINE
8
BLACK
6
CONTINUOUS
10
0.636717
20
-5.24973
11
0.644216
21
-5.24598
0
LINE
8
BLACK
6
CONTINUOUS
10
0.644216
20
-5.24598
11
0.662964
21
-5.24598
0
LINE
8
BLACK
6
CONTINUOUS
10
0.662964
20
-5.24598
11
0.670463
21
-5.24223
0
LINE
8
BLACK
6
CONTINUOUS
10
0.707958
20
-5.22348
11
0.707958
21
-5.30222
0
LINE
8
BLACK
6
CONTINUOUS
10
0.707958
20
-5.22723
11
0.715457
21
-5.22348
0
LINE
8
BLACK
6
CONTINUOUS
10
0.715457
20
-5.22348
11
0.730456
21
-5.22348
0
LINE
8
BLACK
6
CONTINUOUS
10
0.730456
20
-5.22348
11
0.737955
21
-5.22723
0
LINE
8
BLACK
6
CONTINUOUS
10
0.737955
20
-5.22723
11
0.741704
21
-5.23098
0
LINE
8
BLACK
6
CONTINUOUS
10
0.741704
20
-5.23098
11
0.745454
21
-5.23848
0
LINE
8
BLACK
6
CONTINUOUS
10
0.745454
20
-5.23848
11
0.745454
21
-5.26098
0
LINE
8
BLACK
6
CONTINUOUS
10
0.745454
20
-5.26098
11
0.741704
21
-5.26848
0
LINE
8
BLACK
6
CONTINUOUS
10
0.741704
20
-5.26848
11
0.737955
21
-5.27223
0
LINE
8
BLACK
6
CONTINUOUS
10
0.737955
20
-5.27223
11
0.730456
21
-5.27597
0
LINE
8
BLACK
6
CONTINUOUS
10
0.730456
20
-5.27597
11
0.715457
21
-5.27597
0
LINE
8
BLACK
6
CONTINUOUS
10
0.715457
20
-5.27597
11
0.707958
21
-5.27223
0
LINE
8
BLACK
6
CONTINUOUS
10
0.779199
20
-5.26848
11
0.782949
21
-5.27223
0
LINE
8
BLACK
6
CONTINUOUS
10
0.782949
20
-5.27223
11
0.779199
21
-5.27597
0
LINE
8
BLACK
6
CONTINUOUS
10
0.779199
20
-5.27597
11
0.77545
21
-5.27223
0
LINE
8
BLACK
6
CONTINUOUS
10
0.77545
20
-5.27223
11
0.779199
21
-5.26848
0
LINE
8
BLACK
6
CONTINUOUS
10
0.779199
20
-5.26848
11
0.779199
21
-5.27597
0
LINE
8
BLACK
6
CONTINUOUS
10
0.779199
20
-5.22723
11
0.782949
21
-5.23098
0
LINE
8
BLACK
6
CONTINUOUS
10
0.782949
20
-5.23098
11
0.779199
21
-5.23473
0
LINE
8
BLACK
6
CONTINUOUS
10
0.779199
20
-5.23473
11
0.77545
21
-5.23098
0
LINE
8
BLACK
6
CONTINUOUS
10
0.77545
20
-5.23098
11
0.779199
21
-5.22723
0
LINE
8
BLACK
6
CONTINUOUS
10
0.779199
20
-5.22723
11
0.779199
21
-5.23473
0
LINE
8
BLACK
6
CONTINUOUS
10
0.13878
20
-5.40453
11
0.154528
21
-5.42028
0
LINE
8
BLACK
6
CONTINUOUS
10
0.154528
20
-5.40453
11
0.13878
21
-5.42028
0
LINE
8
BLACK
6
CONTINUOUS
10
0.267013
20
-5.36259
11
0.274513
21
-5.36259
0
LINE
8
BLACK
6
CONTINUOUS
10
0.274513
20
-5.36259
11
0.282012
21
-5.36634
0
LINE
8
BLACK
6
CONTINUOUS
10
0.282012
20
-5.36634
11
0.285761
21
-5.37009
0
LINE
8
BLACK
6
CONTINUOUS
10
0.285761
20
-5.37009
11
0.289511
21
-5.37759
0
LINE
8
BLACK
6
CONTINUOUS
10
0.289511
20
-5.37759
11
0.29326
21
-5.39259
0
LINE
8
BLACK
6
CONTINUOUS
10
0.29326
20
-5.39259
11
0.29326
21
-5.41133
0
LINE
8
BLACK
6
CONTINUOUS
10
0.29326
20
-5.41133
11
0.289511
21
-5.42633
0
LINE
8
BLACK
6
CONTINUOUS
10
0.289511
20
-5.42633
11
0.285761
21
-5.43383
0
LINE
8
BLACK
6
CONTINUOUS
10
0.285761
20
-5.43383
11
0.282012
21
-5.43758
0
LINE
8
BLACK
6
CONTINUOUS
10
0.282012
20
-5.43758
11
0.274513
21
-5.44133
0
LINE
8
BLACK
6
CONTINUOUS
10
0.274513
20
-5.44133
11
0.267013
21
-5.44133
0
LINE
8
BLACK
6
CONTINUOUS
10
0.267013
20
-5.44133
11
0.259514
21
-5.43758
0
LINE
8
BLACK
6
CONTINUOUS
10
0.259514
20
-5.43758
11
0.255765
21
-5.43383
0
LINE
8
BLACK
6
CONTINUOUS
10
0.255765
20
-5.43383
11
0.252015
21
-5.42633
0
LINE
8
BLACK
6
CONTINUOUS
10
0.252015
20
-5.42633
11
0.248266
21
-5.41133
0
LINE
8
BLACK
6
CONTINUOUS
10
0.248266
20
-5.41133
11
0.248266
21
-5.39259
0
LINE
8
BLACK
6
CONTINUOUS
10
0.248266
20
-5.39259
11
0.252015
21
-5.37759
0
LINE
8
BLACK
6
CONTINUOUS
10
0.252015
20
-5.37759
11
0.255765
21
-5.37009
0
LINE
8
BLACK
6
CONTINUOUS
10
0.255765
20
-5.37009
11
0.259514
21
-5.36634
0
LINE
8
BLACK
6
CONTINUOUS
10
0.259514
20
-5.36634
11
0.267013
21
-5.36259
0
LINE
8
BLACK
6
CONTINUOUS
10
0.327006
20
-5.43383
11
0.330756
21
-5.43758
0
LINE
8
BLACK
6
CONTINUOUS
10
0.330756
20
-5.43758
11
0.327006
21
-5.44133
0
LINE
8
BLACK
6
CONTINUOUS
10
0.327006
20
-5.44133
11
0.323256
21
-5.43758
0
LINE
8
BLACK
6
CONTINUOUS
10
0.323256
20
-5.43758
11
0.327006
21
-5.43383
0
LINE
8
BLACK
6
CONTINUOUS
10
0.327006
20
-5.43383
11
0.327006
21
-5.44133
0
LINE
8
BLACK
6
CONTINUOUS
10
0.398247
20
-5.38884
11
0.398247
21
-5.44133
0
LINE
8
BLACK
6
CONTINUOUS
10
0.379499
20
-5.35884
11
0.360752
21
-5.41508
0
LINE
8
BLACK
6
CONTINUOUS
10
0.360752
20
-5.41508
11
0.409496
21
-5.41508
0
LINE
8
BLACK
6
CONTINUOUS
10
0.45449
20
-5.36259
11
0.461989
21
-5.36259
0
LINE
8
BLACK
6
CONTINUOUS
10
0.461989
20
-5.36259
11
0.469488
21
-5.36634
0
LINE
8
BLACK
6
CONTINUOUS
10
0.469488
20
-5.36634
11
0.473238
21
-5.37009
0
LINE
8
BLACK
6
CONTINUOUS
10
0.473238
20
-5.37009
11
0.476987
21
-5.37759
0
LINE
8
BLACK
6
CONTINUOUS
10
0.476987
20
-5.37759
11
0.480737
21
-5.39259
0
LINE
8
BLACK
6
CONTINUOUS
10
0.480737
20
-5.39259
11
0.480737
21
-5.41133
0
LINE
8
BLACK
6
CONTINUOUS
10
0.480737
20
-5.41133
11
0.476987
21
-5.42633
0
LINE
8
BLACK
6
CONTINUOUS
10
0.476987
20
-5.42633
11
0.473238
21
-5.43383
0
LINE
8
BLACK
6
CONTINUOUS
10
0.473238
20
-5.43383
11
0.469488
21
-5.43758
0
LINE
8
BLACK
6
CONTINUOUS
10
0.469488
20
-5.43758
11
0.461989
21
-5.44133
0
LINE
8
BLACK
6
CONTINUOUS
10
0.461989
20
-5.44133
11
0.45449
21
-5.44133
0
LINE
8
BLACK
6
CONTINUOUS
10
0.45449
20
-5.44133
11
0.446991
21
-5.43758
0
LINE
8
BLACK
6
CONTINUOUS
10
0.446991
20
-5.43758
11
0.443241
21
-5.43383
0
LINE
8
BLACK
6
CONTINUOUS
10
0.443241
20
-5.43383
11
0.439492
21
-5.42633
0
LINE
8
BLACK
6
CONTINUOUS
10
0.439492
20
-5.42633
11
0.435742
21
-5.41133
0
LINE
8
BLACK
6
CONTINUOUS
10
0.435742
20
-5.41133
11
0.435742
21
-5.39259
0
LINE
8
BLACK
6
CONTINUOUS
10
0.435742
20
-5.39259
11
0.439492
21
-5.37759
0
LINE
8
BLACK
6
CONTINUOUS
10
0.439492
20
-5.37759
11
0.443241
21
-5.37009
0
LINE
8
BLACK
6
CONTINUOUS
10
0.443241
20
-5.37009
11
0.446991
21
-5.36634
0
LINE
8
BLACK
6
CONTINUOUS
10
0.446991
20
-5.36634
11
0.45449
21
-5.36259
0
LINE
8
BLACK
6
CONTINUOUS
10
0.529481
20
-5.36259
11
0.53698
21
-5.36259
0
LINE
8
BLACK
6
CONTINUOUS
10
0.53698
20
-5.36259
11
0.544479
21
-5.36634
0
LINE
8
BLACK
6
CONTINUOUS
10
0.544479
20
-5.36634
11
0.548228
21
-5.37009
0
LINE
8
BLACK
6
CONTINUOUS
10
0.548228
20
-5.37009
11
0.551978
21
-5.37759
0
LINE
8
BLACK
6
CONTINUOUS
10
0.551978
20
-5.37759
11
0.555727
21
-5.39259
0
LINE
8
BLACK
6
CONTINUOUS
10
0.555727
20
-5.39259
11
0.555727
21
-5.41133
0
LINE
8
BLACK
6
CONTINUOUS
10
0.555727
20
-5.41133
11
0.551978
21
-5.42633
0
LINE
8
BLACK
6
CONTINUOUS
10
0.551978
20
-5.42633
11
0.548228
21
-5.43383
0
LINE
8
BLACK
6
CONTINUOUS
10
0.548228
20
-5.43383
11
0.544479
21
-5.43758
0
LINE
8
BLACK
6
CONTINUOUS
10
0.544479
20
-5.43758
11
0.53698
21
-5.44133
0
LINE
8
BLACK
6
CONTINUOUS
10
0.53698
20
-5.44133
11
0.529481
21
-5.44133
0
LINE
8
BLACK
6
CONTINUOUS
10
0.529481
20
-5.44133
11
0.521982
21
-5.43758
0
LINE
8
BLACK
6
CONTINUOUS
10
0.521982
20
-5.43758
11
0.518232
21
-5.43383
0
LINE
8
BLACK
6
CONTINUOUS
10
0.518232
20
-5.43383
11
0.514483
21
-5.42633
0
LINE
8
BLACK
6
CONTINUOUS
10
0.514483
20
-5.42633
11
0.510733
21
-5.41133
0
LINE
8
BLACK
6
CONTINUOUS
10
0.510733
20
-5.41133
11
0.510733
21
-5.39259
0
LINE
8
BLACK
6
CONTINUOUS
10
0.510733
20
-5.39259
11
0.514483
21
-5.37759
0
LINE
8
BLACK
6
CONTINUOUS
10
0.514483
20
-5.37759
11
0.518232
21
-5.37009
0
LINE
8
BLACK
6
CONTINUOUS
10
0.518232
20
-5.37009
11
0.521982
21
-5.36634
0
LINE
8
BLACK
6
CONTINUOUS
10
0.521982
20
-5.36634
11
0.529481
21
-5.36259
0
LINE
8
BLACK
6
CONTINUOUS
10
0.589473
20
-5.44133
11
0.589473
21
-5.38884
0
LINE
8
BLACK
6
CONTINUOUS
10
0.589473
20
-5.39633
11
0.593223
21
-5.39259
0
LINE
8
BLACK
6
CONTINUOUS
10
0.593223
20
-5.39259
11
0.600722
21
-5.38884
0
LINE
8
BLACK
6
CONTINUOUS
10
0.600722
20
-5.38884
11
0.61197
21
-5.38884
0
LINE
8
BLACK
6
CONTINUOUS
10
0.61197
20
-5.38884
11
0.619469
21
-5.39259
0
LINE
8
BLACK
6
CONTINUOUS
10
0.619469
20
-5.39259
11
0.623219
21
-5.40008
0
LINE
8
BLACK
6
CONTINUOUS
10
0.623219
20
-5.40008
11
0.623219
21
-5.44133
0
LINE
8
BLACK
6
CONTINUOUS
10
0.623219
20
-5.40008
11
0.626969
21
-5.39259
0
LINE
8
BLACK
6
CONTINUOUS
10
0.626969
20
-5.39259
11
0.634468
21
-5.38884
0
LINE
8
BLACK
6
CONTINUOUS
10
0.634468
20
-5.38884
11
0.645716
21
-5.38884
0
LINE
8
BLACK
6
CONTINUOUS
10
0.645716
20
-5.38884
11
0.653215
21
-5.39259
0
LINE
8
BLACK
6
CONTINUOUS
10
0.653215
20
-5.39259
11
0.656965
21
-5.40008
0
LINE
8
BLACK
6
CONTINUOUS
10
0.656965
20
-5.40008
11
0.656965
21
-5.44133
0
LINE
8
BLACK
6
CONTINUOUS
10
0.69446
20
-5.44133
11
0.69446
21
-5.38884
0
LINE
8
BLACK
6
CONTINUOUS
10
0.69446
20
-5.39633
11
0.69821
21
-5.39259
0
LINE
8
BLACK
6
CONTINUOUS
10
0.69821
20
-5.39259
11
0.705709
21
-5.38884
0
LINE
8
BLACK
6
CONTINUOUS
10
0.705709
20
-5.38884
11
0.716957
21
-5.38884
0
LINE
8
BLACK
6
CONTINUOUS
10
0.716957
20
-5.38884
11
0.724456
21
-5.39259
0
LINE
8
BLACK
6
CONTINUOUS
10
0.724456
20
-5.39259
11
0.728206
21
-5.40008
0
LINE
8
BLACK
6
CONTINUOUS
10
0.728206
20
-5.40008
11
0.728206
21
-5.44133
0
LINE
8
BLACK
6
CONTINUOUS
10
0.728206
20
-5.40008
11
0.731955
21
-5.39259
0
LINE
8
BLACK
6
CONTINUOUS
10
0.731955
20
-5.39259
11
0.739454
21
-5.38884
0
LINE
8
BLACK
6
CONTINUOUS
10
0.739454
20
-5.38884
11
0.750703
21
-5.38884
0
LINE
8
BLACK
6
CONTINUOUS
10
0.750703
20
-5.38884
11
0.758202
21
-5.39259
0
LINE
8
BLACK
6
CONTINUOUS
10
0.758202
20
-5.39259
11
0.761952
21
-5.40008
0
LINE
8
BLACK
6
CONTINUOUS
10
0.761952
20
-5.40008
11
0.761952
21
-5.44133
0
LINE
8
BLACK
6
CONTINUOUS
10
0.902934
20
-5.35884
11
0.835442
21
-5.46008
0
LINE
8
BLACK
6
CONTINUOUS
10
0.991423
20
-5.36259
11
0.998922
21
-5.36259
0
LINE
8
BLACK
6
CONTINUOUS
10
0.998922
20
-5.36259
11
1.00642
21
-5.36634
0
LINE
8
BLACK
6
CONTINUOUS
10
1.00642
20
-5.36634
11
1.01017
21
-5.37009
0
LINE
8
BLACK
6
CONTINUOUS
10
1.01017
20
-5.37009
11
1.01392
21
-5.37759
0
LINE
8
BLACK
6
CONTINUOUS
10
1.01392
20
-5.37759
11
1.01767
21
-5.39259
0
LINE
8
BLACK
6
CONTINUOUS
10
1.01767
20
-5.39259
11
1.01767
21
-5.41133
0
LINE
8
BLACK
6
CONTINUOUS
10
1.01767
20
-5.41133
11
1.01392
21
-5.42633
0
LINE
8
BLACK
6
CONTINUOUS
10
1.01392
20
-5.42633
11
1.01017
21
-5.43383
0
LINE
8
BLACK
6
CONTINUOUS
10
1.01017
20
-5.43383
11
1.00642
21
-5.43758
0
LINE
8
BLACK
6
CONTINUOUS
10
1.00642
20
-5.43758
11
0.998922
21
-5.44133
0
LINE
8
BLACK
6
CONTINUOUS
10
0.998922
20
-5.44133
11
0.991423
21
-5.44133
0
LINE
8
BLACK
6
CONTINUOUS
10
0.991423
20
-5.44133
11
0.983924
21
-5.43758
0
LINE
8
BLACK
6
CONTINUOUS
10
0.983924
20
-5.43758
11
0.980174
21
-5.43383
0
LINE
8
BLACK
6
CONTINUOUS
10
0.980174
20
-5.43383
11
0.976425
21
-5.42633
0
LINE
8
BLACK
6
CONTINUOUS
10
0.976425
20
-5.42633
11
0.972675
21
-5.41133
0
LINE
8
BLACK
6
CONTINUOUS
10
0.972675
20
-5.41133
11
0.972675
21
-5.39259
0
LINE
8
BLACK
6
CONTINUOUS
10
0.972675
20
-5.39259
11
0.976425
21
-5.37759
0
LINE
8
BLACK
6
CONTINUOUS
10
0.976425
20
-5.37759
11
0.980174
21
-5.37009
0
LINE
8
BLACK
6
CONTINUOUS
10
0.980174
20
-5.37009
11
0.983924
21
-5.36634
0
LINE
8
BLACK
6
CONTINUOUS
10
0.983924
20
-5.36634
11
0.991423
21
-5.36259
0
LINE
8
BLACK
6
CONTINUOUS
10
1.05142
20
-5.43383
11
1.05516
21
-5.43758
0
LINE
8
BLACK
6
CONTINUOUS
10
1.05516
20
-5.43758
11
1.05142
21
-5.44133
0
LINE
8
BLACK
6
CONTINUOUS
10
1.05142
20
-5.44133
11
1.04767
21
-5.43758
0
LINE
8
BLACK
6
CONTINUOUS
10
1.04767
20
-5.43758
11
1.05142
21
-5.43383
0
LINE
8
BLACK
6
CONTINUOUS
10
1.05142
20
-5.43383
11
1.05142
21
-5.44133
0
LINE
8
BLACK
6
CONTINUOUS
10
1.10391
20
-5.36259
11
1.11141
21
-5.36259
0
LINE
8
BLACK
6
CONTINUOUS
10
1.11141
20
-5.36259
11
1.11891
21
-5.36634
0
LINE
8
BLACK
6
CONTINUOUS
10
1.11891
20
-5.36634
11
1.12266
21
-5.37009
0
LINE
8
BLACK
6
CONTINUOUS
10
1.12266
20
-5.37009
11
1.12641
21
-5.37759
0
LINE
8
BLACK
6
CONTINUOUS
10
1.12641
20
-5.37759
11
1.13016
21
-5.39259
0
LINE
8
BLACK
6
CONTINUOUS
10
1.13016
20
-5.39259
11
1.13016
21
-5.41133
0
LINE
8
BLACK
6
CONTINUOUS
10
1.13016
20
-5.41133
11
1.12641
21
-5.42633
0
LINE
8
BLACK
6
CONTINUOUS
10
1.12641
20
-5.42633
11
1.12266
21
-5.43383
0
LINE
8
BLACK
6
CONTINUOUS
10
1.12266
20
-5.43383
11
1.11891
21
-5.43758
0
LINE
8
BLACK
6
CONTINUOUS
10
1.11891
20
-5.43758
11
1.11141
21
-5.44133
0
LINE
8
BLACK
6
CONTINUOUS
10
1.11141
20
-5.44133
11
1.10391
21
-5.44133
0
LINE
8
BLACK
6
CONTINUOUS
10
1.10391
20
-5.44133
11
1.09641
21
-5.43758
0
LINE
8
BLACK
6
CONTINUOUS
10
1.09641
20
-5.43758
11
1.09266
21
-5.43383
0
LINE
8
BLACK
6
CONTINUOUS
10
1.09266
20
-5.43383
11
1.08891
21
-5.42633
0
LINE
8
BLACK
6
CONTINUOUS
10
1.08891
20
-5.42633
11
1.08516
21
-5.41133
0
LINE
8
BLACK
6
CONTINUOUS
10
1.08516
20
-5.41133
11
1.08516
21
-5.39259
0
LINE
8
BLACK
6
CONTINUOUS
10
1.08516
20
-5.39259
11
1.08891
21
-5.37759
0
LINE
8
BLACK
6
CONTINUOUS
10
1.08891
20
-5.37759
11
1.09266
21
-5.37009
0
LINE
8
BLACK
6
CONTINUOUS
10
1.09266
20
-5.37009
11
1.09641
21
-5.36634
0
LINE
8
BLACK
6
CONTINUOUS
10
1.09641
20
-5.36634
11
1.10391
21
-5.36259
0
LINE
8
BLACK
6
CONTINUOUS
10
1.20515
20
-5.44133
11
1.16015
21
-5.44133
0
LINE
8
BLACK
6
CONTINUOUS
10
1.18265
20
-5.44133
11
1.18265
21
-5.36259
0
LINE
8
BLACK
6
CONTINUOUS
10
1.18265
20
-5.36259
11
1.17515
21
-5.37384
0
LINE
8
BLACK
6
CONTINUOUS
10
1.17515
20
-5.37384
11
1.16765
21
-5.38134
0
LINE
8
BLACK
6
CONTINUOUS
10
1.16765
20
-5.38134
11
1.16015
21
-5.38509
0
LINE
8
BLACK
6
CONTINUOUS
10
1.27639
20
-5.36259
11
1.23889
21
-5.36259
0
LINE
8
BLACK
6
CONTINUOUS
10
1.23889
20
-5.36259
11
1.23514
21
-5.40008
0
LINE
8
BLACK
6
CONTINUOUS
10
1.23514
20
-5.40008
11
1.23889
21
-5.39633
0
LINE
8
BLACK
6
CONTINUOUS
10
1.23889
20
-5.39633
11
1.24639
21
-5.39259
0
LINE
8
BLACK
6
CONTINUOUS
10
1.24639
20
-5.39259
11
1.26514
21
-5.39259
0
LINE
8
BLACK
6
CONTINUOUS
10
1.26514
20
-5.39259
11
1.27264
21
-5.39633
0
LINE
8
BLACK
6
CONTINUOUS
10
1.27264
20
-5.39633
11
1.27639
21
-5.40008
0
LINE
8
BLACK
6
CONTINUOUS
10
1.27639
20
-5.40008
11
1.28014
21
-5.40758
0
LINE
8
BLACK
6
CONTINUOUS
10
1.28014
20
-5.40758
11
1.28014
21
-5.42633
0
LINE
8
BLACK
6
CONTINUOUS
10
1.28014
20
-5.42633
11
1.27639
21
-5.43383
0
LINE
8
BLACK
6
CONTINUOUS
10
1.27639
20
-5.43383
11
1.27264
21
-5.43758
0
LINE
8
BLACK
6
CONTINUOUS
10
1.27264
20
-5.43758
11
1.26514
21
-5.44133
0
LINE
8
BLACK
6
CONTINUOUS
10
1.26514
20
-5.44133
11
1.24639
21
-5.44133
0
LINE
8
BLACK
6
CONTINUOUS
10
1.24639
20
-5.44133
11
1.23889
21
-5.43758
0
LINE
8
BLACK
6
CONTINUOUS
10
1.23889
20
-5.43758
11
1.23514
21
-5.43383
0
LINE
8
BLACK
6
CONTINUOUS
10
1.30638
20
-5.36259
11
1.35888
21
-5.36259
0
LINE
8
BLACK
6
CONTINUOUS
10
1.35888
20
-5.36259
11
1.32513
21
-5.44133
0
LINE
8
BLACK
6
CONTINUOUS
10
1.38512
20
-5.36259
11
1.38512
21
-5.37759
0
LINE
8
BLACK
6
CONTINUOUS
10
1.41512
20
-5.36259
11
1.41512
21
-5.37759
0
LINE
8
BLACK
6
CONTINUOUS
10
1.51861
20
-5.47133
11
1.51486
21
-5.46758
0
LINE
8
BLACK
6
CONTINUOUS
10
1.51486
20
-5.46758
11
1.50736
21
-5.45633
0
LINE
8
BLACK
6
CONTINUOUS
10
1.50736
20
-5.45633
11
1.50361
21
-5.44883
0
LINE
8
BLACK
6
CONTINUOUS
10
1.50361
20
-5.44883
11
1.49986
21
-5.43758
0
LINE
8
BLACK
6
CONTINUOUS
10
1.49986
20
-5.43758
11
1.49611
21
-5.41883
0
LINE
8
BLACK
6
CONTINUOUS
10
1.49611
20
-5.41883
11
1.49611
21
-5.40383
0
LINE
8
BLACK
6
CONTINUOUS
10
1.49611
20
-5.40383
11
1.49986
21
-5.38509
0
LINE
8
BLACK
6
CONTINUOUS
10
1.49986
20
-5.38509
11
1.50361
21
-5.37384
0
LINE
8
BLACK
6
CONTINUOUS
10
1.50361
20
-5.37384
11
1.50736
21
-5.36634
0
LINE
8
BLACK
6
CONTINUOUS
10
1.50736
20
-5.36634
11
1.51486
21
-5.35509
0
LINE
8
BLACK
6
CONTINUOUS
10
1.51486
20
-5.35509
11
1.51861
21
-5.35134
0
LINE
8
BLACK
6
CONTINUOUS
10
1.5411
20
-5.36259
11
1.58985
21
-5.36259
0
LINE
8
BLACK
6
CONTINUOUS
10
1.58985
20
-5.36259
11
1.5636
21
-5.39259
0
LINE
8
BLACK
6
CONTINUOUS
10
1.5636
20
-5.39259
11
1.57485
21
-5.39259
0
LINE
8
BLACK
6
CONTINUOUS
10
1.57485
20
-5.39259
11
1.58235
21
-5.39633
0
LINE
8
BLACK
6
CONTINUOUS
10
1.58235
20
-5.39633
11
1.5861
21
-5.40008
0
LINE
8
BLACK
6
CONTINUOUS
10
1.5861
20
-5.40008
11
1.58985
21
-5.40758
0
LINE
8
BLACK
6
CONTINUOUS
10
1.58985
20
-5.40758
11
1.58985
21
-5.42633
0
LINE
8
BLACK
6
CONTINUOUS
10
1.58985
20
-5.42633
11
1.5861
21
-5.43383
0
LINE
8
BLACK
6
CONTINUOUS
10
1.5861
20
-5.43383
11
1.58235
21
-5.43758
0
LINE
8
BLACK
6
CONTINUOUS
10
1.58235
20
-5.43758
11
1.57485
21
-5.44133
0
LINE
8
BLACK
6
CONTINUOUS
10
1.57485
20
-5.44133
11
1.55235
21
-5.44133
0
LINE
8
BLACK
6
CONTINUOUS
10
1.55235
20
-5.44133
11
1.54485
21
-5.43758
0
LINE
8
BLACK
6
CONTINUOUS
10
1.54485
20
-5.43758
11
1.5411
21
-5.43383
0
LINE
8
BLACK
6
CONTINUOUS
10
1.66109
20
-5.36259
11
1.62359
21
-5.36259
0
LINE
8
BLACK
6
CONTINUOUS
10
1.62359
20
-5.36259
11
1.61984
21
-5.40008
0
LINE
8
BLACK
6
CONTINUOUS
10
1.61984
20
-5.40008
11
1.62359
21
-5.39633
0
LINE
8
BLACK
6
CONTINUOUS
10
1.62359
20
-5.39633
11
1.63109
21
-5.39259
0
LINE
8
BLACK
6
CONTINUOUS
10
1.63109
20
-5.39259
11
1.64984
21
-5.39259
0
LINE
8
BLACK
6
CONTINUOUS
10
1.64984
20
-5.39259
11
1.65734
21
-5.39633
0
LINE
8
BLACK
6
CONTINUOUS
10
1.65734
20
-5.39633
11
1.66109
21
-5.40008
0
LINE
8
BLACK
6
CONTINUOUS
10
1.66109
20
-5.40008
11
1.66484
21
-5.40758
0
LINE
8
BLACK
6
CONTINUOUS
10
1.66484
20
-5.40758
11
1.66484
21
-5.42633
0
LINE
8
BLACK
6
CONTINUOUS
10
1.66484
20
-5.42633
11
1.66109
21
-5.43383
0
LINE
8
BLACK
6
CONTINUOUS
10
1.66109
20
-5.43383
11
1.65734
21
-5.43758
0
LINE
8
BLACK
6
CONTINUOUS
10
1.65734
20
-5.43758
11
1.64984
21
-5.44133
0
LINE
8
BLACK
6
CONTINUOUS
10
1.64984
20
-5.44133
11
1.63109
21
-5.44133
0
LINE
8
BLACK
6
CONTINUOUS
10
1.63109
20
-5.44133
11
1.62359
21
-5.43758
0
LINE
8
BLACK
6
CONTINUOUS
10
1.62359
20
-5.43758
11
1.61984
21
-5.43383
0
LINE
8
BLACK
6
CONTINUOUS
10
1.73983
20
-5.44133
11
1.69484
21
-5.44133
0
LINE
8
BLACK
6
CONTINUOUS
10
1.71733
20
-5.44133
11
1.71733
21
-5.36259
0
LINE
8
BLACK
6
CONTINUOUS
10
1.71733
20
-5.36259
11
1.70983
21
-5.37384
0
LINE
8
BLACK
6
CONTINUOUS
10
1.70983
20
-5.37384
11
1.70233
21
-5.38134
0
LINE
8
BLACK
6
CONTINUOUS
10
1.70233
20
-5.38134
11
1.69484
21
-5.38509
0
LINE
8
BLACK
6
CONTINUOUS
10
1.82082
20
-5.44133
11
1.82082
21
-5.36259
0
LINE
8
BLACK
6
CONTINUOUS
10
1.85457
20
-5.44133
11
1.85457
21
-5.40008
0
LINE
8
BLACK
6
CONTINUOUS
10
1.85457
20
-5.40008
11
1.85082
21
-5.39259
0
LINE
8
BLACK
6
CONTINUOUS
10
1.85082
20
-5.39259
11
1.84332
21
-5.38884
0
LINE
8
BLACK
6
CONTINUOUS
10
1.84332
20
-5.38884
11
1.83207
21
-5.38884
0
LINE
8
BLACK
6
CONTINUOUS
10
1.83207
20
-5.38884
11
1.82457
21
-5.39259
0
LINE
8
BLACK
6
CONTINUOUS
10
1.82457
20
-5.39259
11
1.82082
21
-5.39633
0
LINE
8
BLACK
6
CONTINUOUS
10
1.90331
20
-5.44133
11
1.89581
21
-5.43758
0
LINE
8
BLACK
6
CONTINUOUS
10
1.89581
20
-5.43758
11
1.89206
21
-5.43383
0
LINE
8
BLACK
6
CONTINUOUS
10
1.89206
20
-5.43383
11
1.88831
21
-5.42633
0
LINE
8
BLACK
6
CONTINUOUS
10
1.88831
20
-5.42633
11
1.88831
21
-5.40383
0
LINE
8
BLACK
6
CONTINUOUS
10
1.88831
20
-5.40383
11
1.89206
21
-5.39633
0
LINE
8
BLACK
6
CONTINUOUS
10
1.89206
20
-5.39633
11
1.89581
21
-5.39259
0
LINE
8
BLACK
6
CONTINUOUS
10
1.89581
20
-5.39259
11
1.90331
21
-5.38884
0
LINE
8
BLACK
6
CONTINUOUS
10
1.90331
20
-5.38884
11
1.91456
21
-5.38884
0
LINE
8
BLACK
6
CONTINUOUS
10
1.91456
20
-5.38884
11
1.92206
21
-5.39259
0
LINE
8
BLACK
6
CONTINUOUS
10
1.92206
20
-5.39259
11
1.92581
21
-5.39633
0
LINE
8
BLACK
6
CONTINUOUS
10
1.92581
20
-5.39633
11
1.92956
21
-5.40383
0
LINE
8
BLACK
6
CONTINUOUS
10
1.92956
20
-5.40383
11
1.92956
21
-5.42633
0
LINE
8
BLACK
6
CONTINUOUS
10
1.92956
20
-5.42633
11
1.92581
21
-5.43383
0
LINE
8
BLACK
6
CONTINUOUS
10
1.92581
20
-5.43383
11
1.92206
21
-5.43758
0
LINE
8
BLACK
6
CONTINUOUS
10
1.92206
20
-5.43758
11
1.91456
21
-5.44133
0
LINE
8
BLACK
6
CONTINUOUS
10
1.91456
20
-5.44133
11
1.90331
21
-5.44133
0
LINE
8
BLACK
6
CONTINUOUS
10
1.97455
20
-5.44133
11
1.96705
21
-5.43758
0
LINE
8
BLACK
6
CONTINUOUS
10
1.96705
20
-5.43758
11
1.9633
21
-5.43008
0
LINE
8
BLACK
6
CONTINUOUS
10
1.9633
20
-5.43008
11
1.9633
21
-5.36259
0
LINE
8
BLACK
6
CONTINUOUS
10
2.03454
20
-5.43758
11
2.02704
21
-5.44133
0
LINE
8
BLACK
6
CONTINUOUS
10
2.02704
20
-5.44133
11
2.01205
21
-5.44133
0
LINE
8
BLACK
6
CONTINUOUS
10
2.01205
20
-5.44133
11
2.00455
21
-5.43758
0
LINE
8
BLACK
6
CONTINUOUS
10
2.00455
20
-5.43758
11
2.0008
21
-5.43008
0
LINE
8
BLACK
6
CONTINUOUS
10
2.0008
20
-5.43008
11
2.0008
21
-5.40008
0
LINE
8
BLACK
6
CONTINUOUS
10
2.0008
20
-5.40008
11
2.00455
21
-5.39259
0
LINE
8
BLACK
6
CONTINUOUS
10
2.00455
20
-5.39259
11
2.01205
21
-5.38884
0
LINE
8
BLACK
6
CONTINUOUS
10
2.01205
20
-5.38884
11
2.02704
21
-5.38884
0
LINE
8
BLACK
6
CONTINUOUS
10
2.02704
20
-5.38884
11
2.03454
21
-5.39259
0
LINE
8
BLACK
6
CONTINUOUS
10
2.03454
20
-5.39259
11
2.03829
21
-5.40008
0
LINE
8
BLACK
6
CONTINUOUS
10
2.03829
20
-5.40008
11
2.03829
21
-5.40758
0
LINE
8
BLACK
6
CONTINUOUS
10
2.03829
20
-5.40758
11
2.0008
21
-5.41508
0
LINE
8
BLACK
6
CONTINUOUS
10
2.06829
20
-5.43758
11
2.07579
21
-5.44133
0
LINE
8
BLACK
6
CONTINUOUS
10
2.07579
20
-5.44133
11
2.09079
21
-5.44133
0
LINE
8
BLACK
6
CONTINUOUS
10
2.09079
20
-5.44133
11
2.09828
21
-5.43758
0
LINE
8
BLACK
6
CONTINUOUS
10
2.09828
20
-5.43758
11
2.10203
21
-5.43008
0
LINE
8
BLACK
6
CONTINUOUS
10
2.10203
20
-5.43008
11
2.10203
21
-5.42633
0
LINE
8
BLACK
6
CONTINUOUS
10
2.10203
20
-5.42633
11
2.09828
21
-5.41883
0
LINE
8
BLACK
6
CONTINUOUS
10
2.09828
20
-5.41883
11
2.09079
21
-5.41508
0
LINE
8
BLACK
6
CONTINUOUS
10
2.09079
20
-5.41508
11
2.07954
21
-5.41508
0
LINE
8
BLACK
6
CONTINUOUS
10
2.07954
20
-5.41508
11
2.07204
21
-5.41133
0
LINE
8
BLACK
6
CONTINUOUS
10
2.07204
20
-5.41133
11
2.06829
21
-5.40383
0
LINE
8
BLACK
6
CONTINUOUS
10
2.06829
20
-5.40383
11
2.06829
21
-5.40008
0
LINE
8
BLACK
6
CONTINUOUS
10
2.06829
20
-5.40008
11
2.07204
21
-5.39259
0
LINE
8
BLACK
6
CONTINUOUS
10
2.07204
20
-5.39259
11
2.07954
21
-5.38884
0
LINE
8
BLACK
6
CONTINUOUS
10
2.07954
20
-5.38884
11
2.09079
21
-5.38884
0
LINE
8
BLACK
6
CONTINUOUS
10
2.09079
20
-5.38884
11
2.09828
21
-5.39259
0
LINE
8
BLACK
6
CONTINUOUS
10
2.12828
20
-5.47133
11
2.13203
21
-5.46758
0
LINE
8
BLACK
6
CONTINUOUS
10
2.13203
20
-5.46758
11
2.13953
21
-5.45633
0
LINE
8
BLACK
6
CONTINUOUS
10
2.13953
20
-5.45633
11
2.14328
21
-5.44883
0
LINE
8
BLACK
6
CONTINUOUS
10
2.14328
20
-5.44883
11
2.14703
21
-5.43758
0
LINE
8
BLACK
6
CONTINUOUS
10
2.14703
20
-5.43758
11
2.15078
21
-5.41883
0
LINE
8
BLACK
6
CONTINUOUS
10
2.15078
20
-5.41883
11
2.15078
21
-5.40383
0
LINE
8
BLACK
6
CONTINUOUS
10
2.15078
20
-5.40383
11
2.14703
21
-5.38509
0
LINE
8
BLACK
6
CONTINUOUS
10
2.14703
20
-5.38509
11
2.14328
21
-5.37384
0
LINE
8
BLACK
6
CONTINUOUS
10
2.14328
20
-5.37384
11
2.13953
21
-5.36634
0
LINE
8
BLACK
6
CONTINUOUS
10
2.13953
20
-5.36634
11
2.13203
21
-5.35509
0
LINE
8
BLACK
6
CONTINUOUS
10
2.13203
20
-5.35509
11
2.12828
21
-5.35134
0
CIRCLE
8
BLACK
10
0.136811
20
-5.51634
40
0.0177165
0
LINE
8
BLACK
6
CONTINUOUS
10
0.267013
20
-5.46653
11
0.274513
21
-5.46653
0
LINE
8
BLACK
6
CONTINUOUS
10
0.274513
20
-5.46653
11
0.282012
21
-5.47028
0
LINE
8
BLACK
6
CONTINUOUS
10
0.282012
20
-5.47028
11
0.285761
21
-5.47403
0
LINE
8
BLACK
6
CONTINUOUS
10
0.285761
20
-5.47403
11
0.289511
21
-5.48152
0
LINE
8
BLACK
6
CONTINUOUS
10
0.289511
20
-5.48152
11
0.29326
21
-5.49652
0
LINE
8
BLACK
6
CONTINUOUS
10
0.29326
20
-5.49652
11
0.29326
21
-5.51527
0
LINE
8
BLACK
6
CONTINUOUS
10
0.29326
20
-5.51527
11
0.289511
21
-5.53027
0
LINE
8
BLACK
6
CONTINUOUS
10
0.289511
20
-5.53027
11
0.285761
21
-5.53777
0
LINE
8
BLACK
6
CONTINUOUS
10
0.285761
20
-5.53777
11
0.282012
21
-5.54152
0
LINE
8
BLACK
6
CONTINUOUS
10
0.282012
20
-5.54152
11
0.274513
21
-5.54527
0
LINE
8
BLACK
6
CONTINUOUS
10
0.274513
20
-5.54527
11
0.267013
21
-5.54527
0
LINE
8
BLACK
6
CONTINUOUS
10
0.267013
20
-5.54527
11
0.259514
21
-5.54152
0
LINE
8
BLACK
6
CONTINUOUS
10
0.259514
20
-5.54152
11
0.255765
21
-5.53777
0
LINE
8
BLACK
6
CONTINUOUS
10
0.255765
20
-5.53777
11
0.252015
21
-5.53027
0
LINE
8
BLACK
6
CONTINUOUS
10
0.252015
20
-5.53027
11
0.248266
21
-5.51527
0
LINE
8
BLACK
6
CONTINUOUS
10
0.248266
20
-5.51527
11
0.248266
21
-5.49652
0
LINE
8
BLACK
6
CONTINUOUS
10
0.248266
20
-5.49652
11
0.252015
21
-5.48152
0
LINE
8
BLACK
6
CONTINUOUS
10
0.252015
20
-5.48152
11
0.255765
21
-5.47403
0
LINE
8
BLACK
6
CONTINUOUS
10
0.255765
20
-5.47403
11
0.259514
21
-5.47028
0
LINE
8
BLACK
6
CONTINUOUS
10
0.259514
20
-5.47028
11
0.267013
21
-5.46653
0
LINE
8
BLACK
6
CONTINUOUS
10
0.327006
20
-5.53777
11
0.330756
21
-5.54152
0
LINE
8
BLACK
6
CONTINUOUS
10
0.330756
20
-5.54152
11
0.327006
21
-5.54527
0
LINE
8
BLACK
6
CONTINUOUS
10
0.327006
20
-5.54527
11
0.323256
21
-5.54152
0
LINE
8
BLACK
6
CONTINUOUS
10
0.323256
20
-5.54152
11
0.327006
21
-5.53777
0
LINE
8
BLACK
6
CONTINUOUS
10
0.327006
20
-5.53777
11
0.327006
21
-5.54527
0
LINE
8
BLACK
6
CONTINUOUS
10
0.368251
20
-5.54527
11
0.383249
21
-5.54527
0
LINE
8
BLACK
6
CONTINUOUS
10
0.383249
20
-5.54527
11
0.390748
21
-5.54152
0
LINE
8
BLACK
6
CONTINUOUS
10
0.390748
20
-5.54152
11
0.394498
21
-5.53777
0
LINE
8
BLACK
6
CONTINUOUS
10
0.394498
20
-5.53777
11
0.401997
21
-5.52652
0
LINE
8
BLACK
6
CONTINUOUS
10
0.401997
20
-5.52652
11
0.405746
21
-5.51152
0
LINE
8
BLACK
6
CONTINUOUS
10
0.405746
20
-5.51152
11
0.405746
21
-5.48152
0
LINE
8
BLACK
6
CONTINUOUS
10
0.405746
20
-5.48152
11
0.401997
21
-5.47403
0
LINE
8
BLACK
6
CONTINUOUS
10
0.401997
20
-5.47403
11
0.398247
21
-5.47028
0
LINE
8
BLACK
6
CONTINUOUS
10
0.398247
20
-5.47028
11
0.390748
21
-5.46653
0
LINE
8
BLACK
6
CONTINUOUS
10
0.390748
20
-5.46653
11
0.37575
21
-5.46653
0
LINE
8
BLACK
6
CONTINUOUS
10
0.37575
20
-5.46653
11
0.368251
21
-5.47028
0
LINE
8
BLACK
6
CONTINUOUS
10
0.368251
20
-5.47028
11
0.364501
21
-5.47403
0
LINE
8
BLACK
6
CONTINUOUS
10
0.364501
20
-5.47403
11
0.360752
21
-5.48152
0
LINE
8
BLACK
6
CONTINUOUS
10
0.360752
20
-5.48152
11
0.360752
21
-5.50027
0
LINE
8
BLACK
6
CONTINUOUS
10
0.360752
20
-5.50027
11
0.364501
21
-5.50777
0
LINE
8
BLACK
6
CONTINUOUS
10
0.364501
20
-5.50777
11
0.368251
21
-5.51152
0
LINE
8
BLACK
6
CONTINUOUS
10
0.368251
20
-5.51152
11
0.37575
21
-5.51527
0
LINE
8
BLACK
6
CONTINUOUS
10
0.37575
20
-5.51527
11
0.390748
21
-5.51527
0
LINE
8
BLACK
6
CONTINUOUS
10
0.390748
20
-5.51527
11
0.398247
21
-5.51152
0
LINE
8
BLACK
6
CONTINUOUS
10
0.398247
20
-5.51152
11
0.401997
21
-5.50777
0
LINE
8
BLACK
6
CONTINUOUS
10
0.401997
20
-5.50777
11
0.405746
21
-5.50027
0
LINE
8
BLACK
6
CONTINUOUS
10
0.45449
20
-5.46653
11
0.461989
21
-5.46653
0
LINE
8
BLACK
6
CONTINUOUS
10
0.461989
20
-5.46653
11
0.469488
21
-5.47028
0
LINE
8
BLACK
6
CONTINUOUS
10
0.469488
20
-5.47028
11
0.473238
21
-5.47403
0
LINE
8
BLACK
6
CONTINUOUS
10
0.473238
20
-5.47403
11
0.476987
21
-5.48152
0
LINE
8
BLACK
6
CONTINUOUS
10
0.476987
20
-5.48152
11
0.480737
21
-5.49652
0
LINE
8
BLACK
6
CONTINUOUS
10
0.480737
20
-5.49652
11
0.480737
21
-5.51527
0
LINE
8
BLACK
6
CONTINUOUS
10
0.480737
20
-5.51527
11
0.476987
21
-5.53027
0
LINE
8
BLACK
6
CONTINUOUS
10
0.476987
20
-5.53027
11
0.473238
21
-5.53777
0
LINE
8
BLACK
6
CONTINUOUS
10
0.473238
20
-5.53777
11
0.469488
21
-5.54152
0
LINE
8
BLACK
6
CONTINUOUS
10
0.469488
20
-5.54152
11
0.461989
21
-5.54527
0
LINE
8
BLACK
6
CONTINUOUS
10
0.461989
20
-5.54527
11
0.45449
21
-5.54527
0
LINE
8
BLACK
6
CONTINUOUS
10
0.45449
20
-5.54527
11
0.446991
21
-5.54152
0
LINE
8
BLACK
6
CONTINUOUS
10
0.446991
20
-5.54152
11
0.443241
21
-5.53777
0
LINE
8
BLACK
6
CONTINUOUS
10
0.443241
20
-5.53777
11
0.439492
21
-5.53027
0
LINE
8
BLACK
6
CONTINUOUS
10
0.439492
20
-5.53027
11
0.435742
21
-5.51527
0
LINE
8
BLACK
6
CONTINUOUS
10
0.435742
20
-5.51527
11
0.435742
21
-5.49652
0
LINE
8
BLACK
6
CONTINUOUS
10
0.435742
20
-5.49652
11
0.439492
21
-5.48152
0
LINE
8
BLACK
6
CONTINUOUS
10
0.439492
20
-5.48152
11
0.443241
21
-5.47403
0
LINE
8
BLACK
6
CONTINUOUS
10
0.443241
20
-5.47403
11
0.446991
21
-5.47028
0
LINE
8
BLACK
6
CONTINUOUS
10
0.446991
20
-5.47028
11
0.45449
21
-5.46653
0
LINE
8
BLACK
6
CONTINUOUS
10
0.529481
20
-5.46653
11
0.53698
21
-5.46653
0
LINE
8
BLACK
6
CONTINUOUS
10
0.53698
20
-5.46653
11
0.544479
21
-5.47028
0
LINE
8
BLACK
6
CONTINUOUS
10
0.544479
20
-5.47028
11
0.548228
21
-5.47403
0
LINE
8
BLACK
6
CONTINUOUS
10
0.548228
20
-5.47403
11
0.551978
21
-5.48152
0
LINE
8
BLACK
6
CONTINUOUS
10
0.551978
20
-5.48152
11
0.555727
21
-5.49652
0
LINE
8
BLACK
6
CONTINUOUS
10
0.555727
20
-5.49652
11
0.555727
21
-5.51527
0
LINE
8
BLACK
6
CONTINUOUS
10
0.555727
20
-5.51527
11
0.551978
21
-5.53027
0
LINE
8
BLACK
6
CONTINUOUS
10
0.551978
20
-5.53027
11
0.548228
21
-5.53777
0
LINE
8
BLACK
6
CONTINUOUS
10
0.548228
20
-5.53777
11
0.544479
21
-5.54152
0
LINE
8
BLACK
6
CONTINUOUS
10
0.544479
20
-5.54152
11
0.53698
21
-5.54527
0
LINE
8
BLACK
6
CONTINUOUS
10
0.53698
20
-5.54527
11
0.529481
21
-5.54527
0
LINE
8
BLACK
6
CONTINUOUS
10
0.529481
20
-5.54527
11
0.521982
21
-5.54152
0
LINE
8
BLACK
6
CONTINUOUS
10
0.521982
20
-5.54152
11
0.518232
21
-5.53777
0
LINE
8
BLACK
6
CONTINUOUS
10
0.518232
20
-5.53777
11
0.514483
21
-5.53027
0
LINE
8
BLACK
6
CONTINUOUS
10
0.514483
20
-5.53027
11
0.510733
21
-5.51527
0
LINE
8
BLACK
6
CONTINUOUS
10
0.510733
20
-5.51527
11
0.510733
21
-5.49652
0
LINE
8
BLACK
6
CONTINUOUS
10
0.510733
20
-5.49652
11
0.514483
21
-5.48152
0
LINE
8
BLACK
6
CONTINUOUS
10
0.514483
20
-5.48152
11
0.518232
21
-5.47403
0
LINE
8
BLACK
6
CONTINUOUS
10
0.518232
20
-5.47403
11
0.521982
21
-5.47028
0
LINE
8
BLACK
6
CONTINUOUS
10
0.521982
20
-5.47028
11
0.529481
21
-5.46653
0
LINE
8
BLACK
6
CONTINUOUS
10
0.589473
20
-5.54527
11
0.589473
21
-5.49277
0
LINE
8
BLACK
6
CONTINUOUS
10
0.589473
20
-5.50027
11
0.593223
21
-5.49652
0
LINE
8
BLACK
6
CONTINUOUS
10
0.593223
20
-5.49652
11
0.600722
21
-5.49277
0
LINE
8
BLACK
6
CONTINUOUS
10
0.600722
20
-5.49277
11
0.61197
21
-5.49277
0
LINE
8
BLACK
6
CONTINUOUS
10
0.61197
20
-5.49277
11
0.619469
21
-5.49652
0
LINE
8
BLACK
6
CONTINUOUS
10
0.619469
20
-5.49652
11
0.623219
21
-5.50402
0
LINE
8
BLACK
6
CONTINUOUS
10
0.623219
20
-5.50402
11
0.623219
21
-5.54527
0
LINE
8
BLACK
6
CONTINUOUS
10
0.623219
20
-5.50402
11
0.626969
21
-5.49652
0
LINE
8
BLACK
6
CONTINUOUS
10
0.626969
20
-5.49652
11
0.634468
21
-5.49277
0
LINE
8
BLACK
6
CONTINUOUS
10
0.634468
20
-5.49277
11
0.645716
21
-5.49277
0
LINE
8
BLACK
6
CONTINUOUS
10
0.645716
20
-5.49277
11
0.653215
21
-5.49652
0
LINE
8
BLACK
6
CONTINUOUS
10
0.653215
20
-5.49652
11
0.656965
21
-5.50402
0
LINE
8
BLACK
6
CONTINUOUS
10
0.656965
20
-5.50402
11
0.656965
21
-5.54527
0
LINE
8
BLACK
6
CONTINUOUS
10
0.69446
20
-5.54527
11
0.69446
21
-5.49277
0
LINE
8
BLACK
6
CONTINUOUS
10
0.69446
20
-5.50027
11
0.69821
21
-5.49652
0
LINE
8
BLACK
6
CONTINUOUS
10
0.69821
20
-5.49652
11
0.705709
21
-5.49277
0
LINE
8
BLACK
6
CONTINUOUS
10
0.705709
20
-5.49277
11
0.716957
21
-5.49277
0
LINE
8
BLACK
6
CONTINUOUS
10
0.716957
20
-5.49277
11
0.724456
21
-5.49652
0
LINE
8
BLACK
6
CONTINUOUS
10
0.724456
20
-5.49652
11
0.728206
21
-5.50402
0
LINE
8
BLACK
6
CONTINUOUS
10
0.728206
20
-5.50402
11
0.728206
21
-5.54527
0
LINE
8
BLACK
6
CONTINUOUS
10
0.728206
20
-5.50402
11
0.731955
21
-5.49652
0
LINE
8
BLACK
6
CONTINUOUS
10
0.731955
20
-5.49652
11
0.739454
21
-5.49277
0
LINE
8
BLACK
6
CONTINUOUS
10
0.739454
20
-5.49277
11
0.750703
21
-5.49277
0
LINE
8
BLACK
6
CONTINUOUS
10
0.750703
20
-5.49277
11
0.758202
21
-5.49652
0
LINE
8
BLACK
6
CONTINUOUS
10
0.758202
20
-5.49652
11
0.761952
21
-5.50402
0
LINE
8
BLACK
6
CONTINUOUS
10
0.761952
20
-5.50402
11
0.761952
21
-5.54527
0
LINE
8
BLACK
6
CONTINUOUS
10
0.902934
20
-5.46278
11
0.835442
21
-5.56401
0
LINE
8
BLACK
6
CONTINUOUS
10
0.991423
20
-5.46653
11
0.998922
21
-5.46653
0
LINE
8
BLACK
6
CONTINUOUS
10
0.998922
20
-5.46653
11
1.00642
21
-5.47028
0
LINE
8
BLACK
6
CONTINUOUS
10
1.00642
20
-5.47028
11
1.01017
21
-5.47403
0
LINE
8
BLACK
6
CONTINUOUS
10
1.01017
20
-5.47403
11
1.01392
21
-5.48152
0
LINE
8
BLACK
6
CONTINUOUS
10
1.01392
20
-5.48152
11
1.01767
21
-5.49652
0
LINE
8
BLACK
6
CONTINUOUS
10
1.01767
20
-5.49652
11
1.01767
21
-5.51527
0
LINE
8
BLACK
6
CONTINUOUS
10
1.01767
20
-5.51527
11
1.01392
21
-5.53027
0
LINE
8
BLACK
6
CONTINUOUS
10
1.01392
20
-5.53027
11
1.01017
21
-5.53777
0
LINE
8
BLACK
6
CONTINUOUS
10
1.01017
20
-5.53777
11
1.00642
21
-5.54152
0
LINE
8
BLACK
6
CONTINUOUS
10
1.00642
20
-5.54152
11
0.998922
21
-5.54527
0
LINE
8
BLACK
6
CONTINUOUS
10
0.998922
20
-5.54527
11
0.991423
21
-5.54527
0
LINE
8
BLACK
6
CONTINUOUS
10
0.991423
20
-5.54527
11
0.983924
21
-5.54152
0
LINE
8
BLACK
6
CONTINUOUS
10
0.983924
20
-5.54152
11
0.980174
21
-5.53777
0
LINE
8
BLACK
6
CONTINUOUS
10
0.980174
20
-5.53777
11
0.976425
21
-5.53027
0
LINE
8
BLACK
6
CONTINUOUS
10
0.976425
20
-5.53027
11
0.972675
21
-5.51527
0
LINE
8
BLACK
6
CONTINUOUS
10
0.972675
20
-5.51527
11
0.972675
21
-5.49652
0
LINE
8
BLACK
6
CONTINUOUS
10
0.972675
20
-5.49652
11
0.976425
21
-5.48152
0
LINE
8
BLACK
6
CONTINUOUS
10
0.976425
20
-5.48152
11
0.980174
21
-5.47403
0
LINE
8
BLACK
6
CONTINUOUS
10
0.980174
20
-5.47403
11
0.983924
21
-5.47028
0
LINE
8
BLACK
6
CONTINUOUS
10
0.983924
20
-5.47028
11
0.991423
21
-5.46653
0
LINE
8
BLACK
6
CONTINUOUS
10
1.05142
20
-5.53777
11
1.05516
21
-5.54152
0
LINE
8
BLACK
6
CONTINUOUS
10
1.05516
20
-5.54152
11
1.05142
21
-5.54527
0
LINE
8
BLACK
6
CONTINUOUS
10
1.05142
20
-5.54527
11
1.04767
21
-5.54152
0
LINE
8
BLACK
6
CONTINUOUS
10
1.04767
20
-5.54152
11
1.05142
21
-5.53777
0
LINE
8
BLACK
6
CONTINUOUS
10
1.05142
20
-5.53777
11
1.05142
21
-5.54527
0
LINE
8
BLACK
6
CONTINUOUS
10
1.10391
20
-5.46653
11
1.11141
21
-5.46653
0
LINE
8
BLACK
6
CONTINUOUS
10
1.11141
20
-5.46653
11
1.11891
21
-5.47028
0
LINE
8
BLACK
6
CONTINUOUS
10
1.11891
20
-5.47028
11
1.12266
21
-5.47403
0
LINE
8
BLACK
6
CONTINUOUS
10
1.12266
20
-5.47403
11
1.12641
21
-5.48152
0
LINE
8
BLACK
6
CONTINUOUS
10
1.12641
20
-5.48152
11
1.13016
21
-5.49652
0
LINE
8
BLACK
6
CONTINUOUS
10
1.13016
20
-5.49652
11
1.13016
21
-5.51527
0
LINE
8
BLACK
6
CONTINUOUS
10
1.13016
20
-5.51527
11
1.12641
21
-5.53027
0
LINE
8
BLACK
6
CONTINUOUS
10
1.12641
20
-5.53027
11
1.12266
21
-5.53777
0
LINE
8
BLACK
6
CONTINUOUS
10
1.12266
20
-5.53777
11
1.11891
21
-5.54152
0
LINE
8
BLACK
6
CONTINUOUS
10
1.11891
20
-5.54152
11
1.11141
21
-5.54527
0
LINE
8
BLACK
6
CONTINUOUS
10
1.11141
20
-5.54527
11
1.10391
21
-5.54527
0
LINE
8
BLACK
6
CONTINUOUS
10
1.10391
20
-5.54527
11
1.09641
21
-5.54152
0
LINE
8
BLACK
6
CONTINUOUS
10
1.09641
20
-5.54152
11
1.09266
21
-5.53777
0
LINE
8
BLACK
6
CONTINUOUS
10
1.09266
20
-5.53777
11
1.08891
21
-5.53027
0
LINE
8
BLACK
6
CONTINUOUS
10
1.08891
20
-5.53027
11
1.08516
21
-5.51527
0
LINE
8
BLACK
6
CONTINUOUS
10
1.08516
20
-5.51527
11
1.08516
21
-5.49652
0
LINE
8
BLACK
6
CONTINUOUS
10
1.08516
20
-5.49652
11
1.08891
21
-5.48152
0
LINE
8
BLACK
6
CONTINUOUS
10
1.08891
20
-5.48152
11
1.09266
21
-5.47403
0
LINE
8
BLACK
6
CONTINUOUS
10
1.09266
20
-5.47403
11
1.09641
21
-5.47028
0
LINE
8
BLACK
6
CONTINUOUS
10
1.09641
20
-5.47028
11
1.10391
21
-5.46653
0
LINE
8
BLACK
6
CONTINUOUS
10
1.1564
20
-5.46653
11
1.20515
21
-5.46653
0
LINE
8
BLACK
6
CONTINUOUS
10
1.20515
20
-5.46653
11
1.1789
21
-5.49652
0
LINE
8
BLACK
6
CONTINUOUS
10
1.1789
20
-5.49652
11
1.19015
21
-5.49652
0
LINE
8
BLACK
6
CONTINUOUS
10
1.19015
20
-5.49652
11
1.19765
21
-5.50027
0
LINE
8
BLACK
6
CONTINUOUS
10
1.19765
20
-5.50027
11
1.2014
21
-5.50402
0
LINE
8
BLACK
6
CONTINUOUS
10
1.2014
20
-5.50402
11
1.20515
21
-5.51152
0
LINE
8
BLACK
6
CONTINUOUS
10
1.20515
20
-5.51152
11
1.20515
21
-5.53027
0
LINE
8
BLACK
6
CONTINUOUS
10
1.20515
20
-5.53027
11
1.2014
21
-5.53777
0
LINE
8
BLACK
6
CONTINUOUS
10
1.2014
20
-5.53777
11
1.19765
21
-5.54152
0
LINE
8
BLACK
6
CONTINUOUS
10
1.19765
20
-5.54152
11
1.19015
21
-5.54527
0
LINE
8
BLACK
6
CONTINUOUS
10
1.19015
20
-5.54527
11
1.16765
21
-5.54527
0
LINE
8
BLACK
6
CONTINUOUS
10
1.16765
20
-5.54527
11
1.16015
21
-5.54152
0
LINE
8
BLACK
6
CONTINUOUS
10
1.16015
20
-5.54152
11
1.1564
21
-5.53777
0
LINE
8
BLACK
6
CONTINUOUS
10
1.27639
20
-5.46653
11
1.23889
21
-5.46653
0
LINE
8
BLACK
6
CONTINUOUS
10
1.23889
20
-5.46653
11
1.23514
21
-5.50402
0
LINE
8
BLACK
6
CONTINUOUS
10
1.23514
20
-5.50402
11
1.23889
21
-5.50027
0
LINE
8
BLACK
6
CONTINUOUS
10
1.23889
20
-5.50027
11
1.24639
21
-5.49652
0
LINE
8
BLACK
6
CONTINUOUS
10
1.24639
20
-5.49652
11
1.26514
21
-5.49652
0
LINE
8
BLACK
6
CONTINUOUS
10
1.26514
20
-5.49652
11
1.27264
21
-5.50027
0
LINE
8
BLACK
6
CONTINUOUS
10
1.27264
20
-5.50027
11
1.27639
21
-5.50402
0
LINE
8
BLACK
6
CONTINUOUS
10
1.27639
20
-5.50402
11
1.28014
21
-5.51152
0
LINE
8
BLACK
6
CONTINUOUS
10
1.28014
20
-5.51152
11
1.28014
21
-5.53027
0
LINE
8
BLACK
6
CONTINUOUS
10
1.28014
20
-5.53027
11
1.27639
21
-5.53777
0
LINE
8
BLACK
6
CONTINUOUS
10
1.27639
20
-5.53777
11
1.27264
21
-5.54152
0
LINE
8
BLACK
6
CONTINUOUS
10
1.27264
20
-5.54152
11
1.26514
21
-5.54527
0
LINE
8
BLACK
6
CONTINUOUS
10
1.26514
20
-5.54527
11
1.24639
21
-5.54527
0
LINE
8
BLACK
6
CONTINUOUS
10
1.24639
20
-5.54527
11
1.23889
21
-5.54152
0
LINE
8
BLACK
6
CONTINUOUS
10
1.23889
20
-5.54152
11
1.23514
21
-5.53777
0
LINE
8
BLACK
6
CONTINUOUS
10
1.34763
20
-5.49277
11
1.34763
21
-5.54527
0
LINE
8
BLACK
6
CONTINUOUS
10
1.32888
20
-5.46278
11
1.31013
21
-5.51902
0
LINE
8
BLACK
6
CONTINUOUS
10
1.31013
20
-5.51902
11
1.35888
21
-5.51902
0
LINE
8
BLACK
6
CONTINUOUS
10
1.38512
20
-5.46653
11
1.38512
21
-5.48152
0
LINE
8
BLACK
6
CONTINUOUS
10
1.41512
20
-5.46653
11
1.41512
21
-5.48152
0
LINE
8
BLACK
6
CONTINUOUS
10
1.51861
20
-5.57526
11
1.51486
21
-5.57151
0
LINE
8
BLACK
6
CONTINUOUS
10
1.51486
20
-5.57151
11
1.50736
21
-5.56026
0
LINE
8
BLACK
6
CONTINUOUS
10
1.50736
20
-5.56026
11
1.50361
21
-5.55277
0
LINE
8
BLACK
6
CONTINUOUS
10
1.50361
20
-5.55277
11
1.49986
21
-5.54152
0
LINE
8
BLACK
6
CONTINUOUS
10
1.49986
20
-5.54152
11
1.49611
21
-5.52277
0
LINE
8
BLACK
6
CONTINUOUS
10
1.49611
20
-5.52277
11
1.49611
21
-5.50777
0
LINE
8
BLACK
6
CONTINUOUS
10
1.49611
20
-5.50777
11
1.49986
21
-5.48902
0
LINE
8
BLACK
6
CONTINUOUS
10
1.49986
20
-5.48902
11
1.50361
21
-5.47777
0
LINE
8
BLACK
6
CONTINUOUS
10
1.50361
20
-5.47777
11
1.50736
21
-5.47028
0
LINE
8
BLACK
6
CONTINUOUS
10
1.50736
20
-5.47028
11
1.51486
21
-5.45903
0
LINE
8
BLACK
6
CONTINUOUS
10
1.51486
20
-5.45903
11
1.51861
21
-5.45528
0
LINE
8
BLACK
6
CONTINUOUS
10
1.58985
20
-5.54527
11
1.54485
21
-5.54527
0
LINE
8
BLACK
6
CONTINUOUS
10
1.56735
20
-5.54527
11
1.56735
21
-5.46653
0
LINE
8
BLACK
6
CONTINUOUS
10
1.56735
20
-5.46653
11
1.55985
21
-5.47777
0
LINE
8
BLACK
6
CONTINUOUS
10
1.55985
20
-5.47777
11
1.55235
21
-5.48527
0
LINE
8
BLACK
6
CONTINUOUS
10
1.55235
20
-5.48527
11
1.54485
21
-5.48902
0
LINE
8
BLACK
6
CONTINUOUS
10
1.61984
20
-5.47403
11
1.62359
21
-5.47028
0
LINE
8
BLACK
6
CONTINUOUS
10
1.62359
20
-5.47028
11
1.63109
21
-5.46653
0
LINE
8
BLACK
6
CONTINUOUS
10
1.63109
20
-5.46653
11
1.64984
21
-5.46653
0
LINE
8
BLACK
6
CONTINUOUS
10
1.64984
20
-5.46653
11
1.65734
21
-5.47028
0
LINE
8
BLACK
6
CONTINUOUS
10
1.65734
20
-5.47028
11
1.66109
21
-5.47403
0
LINE
8
BLACK
6
CONTINUOUS
10
1.66109
20
-5.47403
11
1.66484
21
-5.48152
0
LINE
8
BLACK
6
CONTINUOUS
10
1.66484
20
-5.48152
11
1.66484
21
-5.48902
0
LINE
8
BLACK
6
CONTINUOUS
10
1.66484
20
-5.48902
11
1.66109
21
-5.50027
0
LINE
8
BLACK
6
CONTINUOUS
10
1.66109
20
-5.50027
11
1.61609
21
-5.54527
0
LINE
8
BLACK
6
CONTINUOUS
10
1.61609
20
-5.54527
11
1.66484
21
-5.54527
0
LINE
8
BLACK
6
CONTINUOUS
10
1.74583
20
-5.54527
11
1.74583
21
-5.46653
0
LINE
8
BLACK
6
CONTINUOUS
10
1.77957
20
-5.54527
11
1.77957
21
-5.50402
0
LINE
8
BLACK
6
CONTINUOUS
10
1.77957
20
-5.50402
11
1.77582
21
-5.49652
0
LINE
8
BLACK
6
CONTINUOUS
10
1.77582
20
-5.49652
11
1.76833
21
-5.49277
0
LINE
8
BLACK
6
CONTINUOUS
10
1.76833
20
-5.49277
11
1.75708
21
-5.49277
0
LINE
8
BLACK
6
CONTINUOUS
10
1.75708
20
-5.49277
11
1.74958
21
-5.49652
0
LINE
8
BLACK
6
CONTINUOUS
10
1.74958
20
-5.49652
11
1.74583
21
-5.50027
0
LINE
8
BLACK
6
CONTINUOUS
10
1.82832
20
-5.54527
11
1.82082
21
-5.54152
0
LINE
8
BLACK
6
CONTINUOUS
10
1.82082
20
-5.54152
11
1.81707
21
-5.53777
0
LINE
8
BLACK
6
CONTINUOUS
10
1.81707
20
-5.53777
11
1.81332
21
-5.53027
0
LINE
8
BLACK
6
CONTINUOUS
10
1.81332
20
-5.53027
11
1.81332
21
-5.50777
0
LINE
8
BLACK
6
CONTINUOUS
10
1.81332
20
-5.50777
11
1.81707
21
-5.50027
0
LINE
8
BLACK
6
CONTINUOUS
10
1.81707
20
-5.50027
11
1.82082
21
-5.49652
0
LINE
8
BLACK
6
CONTINUOUS
10
1.82082
20
-5.49652
11
1.82832
21
-5.49277
0
LINE
8
BLACK
6
CONTINUOUS
10
1.82832
20
-5.49277
11
1.83957
21
-5.49277
0
LINE
8
BLACK
6
CONTINUOUS
10
1.83957
20
-5.49277
11
1.84707
21
-5.49652
0
LINE
8
BLACK
6
CONTINUOUS
10
1.84707
20
-5.49652
11
1.85082
21
-5.50027
0
LINE
8
BLACK
6
CONTINUOUS
10
1.85082
20
-5.50027
11
1.85457
21
-5.50777
0
LINE
8
BLACK
6
CONTINUOUS
10
1.85457
20
-5.50777
11
1.85457
21
-5.53027
0
LINE
8
BLACK
6
CONTINUOUS
10
1.85457
20
-5.53027
11
1.85082
21
-5.53777
0
LINE
8
BLACK
6
CONTINUOUS
10
1.85082
20
-5.53777
11
1.84707
21
-5.54152
0
LINE
8
BLACK
6
CONTINUOUS
10
1.84707
20
-5.54152
11
1.83957
21
-5.54527
0
LINE
8
BLACK
6
CONTINUOUS
10
1.83957
20
-5.54527
11
1.82832
21
-5.54527
0
LINE
8
BLACK
6
CONTINUOUS
10
1.89956
20
-5.54527
11
1.89206
21
-5.54152
0
LINE
8
BLACK
6
CONTINUOUS
10
1.89206
20
-5.54152
11
1.88831
21
-5.53402
0
LINE
8
BLACK
6
CONTINUOUS
10
1.88831
20
-5.53402
11
1.88831
21
-5.46653
0
LINE
8
BLACK
6
CONTINUOUS
10
1.95955
20
-5.54152
11
1.95205
21
-5.54527
0
LINE
8
BLACK
6
CONTINUOUS
10
1.95205
20
-5.54527
11
1.93705
21
-5.54527
0
LINE
8
BLACK
6
CONTINUOUS
10
1.93705
20
-5.54527
11
1.92956
21
-5.54152
0
LINE
8
BLACK
6
CONTINUOUS
10
1.92956
20
-5.54152
11
1.92581
21
-5.53402
0
LINE
8
BLACK
6
CONTINUOUS
10
1.92581
20
-5.53402
11
1.92581
21
-5.50402
0
LINE
8
BLACK
6
CONTINUOUS
10
1.92581
20
-5.50402
11
1.92956
21
-5.49652
0
LINE
8
BLACK
6
CONTINUOUS
10
1.92956
20
-5.49652
11
1.93705
21
-5.49277
0
LINE
8
BLACK
6
CONTINUOUS
10
1.93705
20
-5.49277
11
1.95205
21
-5.49277
0
LINE
8
BLACK
6
CONTINUOUS
10
1.95205
20
-5.49277
11
1.95955
21
-5.49652
0
LINE
8
BLACK
6
CONTINUOUS
10
1.95955
20
-5.49652
11
1.9633
21
-5.50402
0
LINE
8
BLACK
6
CONTINUOUS
10
1.9633
20
-5.50402
11
1.9633
21
-5.51152
0
LINE
8
BLACK
6
CONTINUOUS
10
1.9633
20
-5.51152
11
1.92581
21
-5.51902
0
LINE
8
BLACK
6
CONTINUOUS
10
1.9933
20
-5.54152
11
2.0008
21
-5.54527
0
LINE
8
BLACK
6
CONTINUOUS
10
2.0008
20
-5.54527
11
2.01579
21
-5.54527
0
LINE
8
BLACK
6
CONTINUOUS
10
2.01579
20
-5.54527
11
2.02329
21
-5.54152
0
LINE
8
BLACK
6
CONTINUOUS
10
2.02329
20
-5.54152
11
2.02704
21
-5.53402
0
LINE
8
BLACK
6
CONTINUOUS
10
2.02704
20
-5.53402
11
2.02704
21
-5.53027
0
LINE
8
BLACK
6
CONTINUOUS
10
2.02704
20
-5.53027
11
2.02329
21
-5.52277
0
LINE
8
BLACK
6
CONTINUOUS
10
2.02329
20
-5.52277
11
2.01579
21
-5.51902
0
LINE
8
BLACK
6
CONTINUOUS
10
2.01579
20
-5.51902
11
2.00455
21
-5.51902
0
LINE
8
BLACK
6
CONTINUOUS
10
2.00455
20
-5.51902
11
1.99705
21
-5.51527
0
LINE
8
BLACK
6
CONTINUOUS
10
1.99705
20
-5.51527
11
1.9933
21
-5.50777
0
LINE
8
BLACK
6
CONTINUOUS
10
1.9933
20
-5.50777
11
1.9933
21
-5.50402
0
LINE
8
BLACK
6
CONTINUOUS
10
1.9933
20
-5.50402
11
1.99705
21
-5.49652
0
LINE
8
BLACK
6
CONTINUOUS
10
1.99705
20
-5.49652
11
2.00455
21
-5.49277
0
LINE
8
BLACK
6
CONTINUOUS
10
2.00455
20
-5.49277
11
2.01579
21
-5.49277
0
LINE
8
BLACK
6
CONTINUOUS
10
2.01579
20
-5.49277
11
2.02329
21
-5.49652
0
LINE
8
BLACK
6
CONTINUOUS
10
2.05329
20
-5.57526
11
2.05704
21
-5.57151
0
LINE
8
BLACK
6
CONTINUOUS
10
2.05704
20
-5.57151
11
2.06454
21
-5.56026
0
LINE
8
BLACK
6
CONTINUOUS
10
2.06454
20
-5.56026
11
2.06829
21
-5.55277
0
LINE
8
BLACK
6
CONTINUOUS
10
2.06829
20
-5.55277
11
2.07204
21
-5.54152
0
LINE
8
BLACK
6
CONTINUOUS
10
2.07204
20
-5.54152
11
2.07579
21
-5.52277
0
LINE
8
BLACK
6
CONTINUOUS
10
2.07579
20
-5.52277
11
2.07579
21
-5.50777
0
LINE
8
BLACK
6
CONTINUOUS
10
2.07579
20
-5.50777
11
2.07204
21
-5.48902
0
LINE
8
BLACK
6
CONTINUOUS
10
2.07204
20
-5.48902
11
2.06829
21
-5.47777
0
LINE
8
BLACK
6
CONTINUOUS
10
2.06829
20
-5.47777
11
2.06454
21
-5.47028
0
LINE
8
BLACK
6
CONTINUOUS
10
2.06454
20
-5.47028
11
2.05704
21
-5.45903
0
LINE
8
BLACK
6
CONTINUOUS
10
2.05704
20
-5.45903
11
2.05329
21
-5.45528
0
LINE
8
BLACK
6
CONTINUOUS
10
0.125591
20
-5.59134
11
0.125591
21
-5.64921
0
LINE
8
BLACK
6
CONTINUOUS
10
0.0966535
20
-5.62028
11
0.154528
21
-5.62028
0
LINE
8
BLACK
6
CONTINUOUS
10
0.29326
20
-5.6492
11
0.248266
21
-5.6492
0
LINE
8
BLACK
6
CONTINUOUS
10
0.270763
20
-5.6492
11
0.270763
21
-5.57046
0
LINE
8
BLACK
6
CONTINUOUS
10
0.270763
20
-5.57046
11
0.263264
21
-5.58171
0
LINE
8
BLACK
6
CONTINUOUS
10
0.263264
20
-5.58171
11
0.255765
21
-5.58921
0
LINE
8
BLACK
6
CONTINUOUS
10
0.255765
20
-5.58921
11
0.248266
21
-5.59296
0
LINE
8
BLACK
6
CONTINUOUS
10
0.327006
20
-5.6417
11
0.330756
21
-5.64545
0
LINE
8
BLACK
6
CONTINUOUS
10
0.330756
20
-5.64545
11
0.327006
21
-5.6492
0
LINE
8
BLACK
6
CONTINUOUS
10
0.327006
20
-5.6492
11
0.323256
21
-5.64545
0
LINE
8
BLACK
6
CONTINUOUS
10
0.323256
20
-5.64545
11
0.327006
21
-5.6417
0
LINE
8
BLACK
6
CONTINUOUS
10
0.327006
20
-5.6417
11
0.327006
21
-5.6492
0
LINE
8
BLACK
6
CONTINUOUS
10
0.398247
20
-5.59671
11
0.398247
21
-5.6492
0
LINE
8
BLACK
6
CONTINUOUS
10
0.379499
20
-5.56671
11
0.360752
21
-5.62296
0
LINE
8
BLACK
6
CONTINUOUS
10
0.360752
20
-5.62296
11
0.409496
21
-5.62296
0
LINE
8
BLACK
6
CONTINUOUS
10
0.431993
20
-5.57046
11
0.484486
21
-5.57046
0
LINE
8
BLACK
6
CONTINUOUS
10
0.484486
20
-5.57046
11
0.450741
21
-5.6492
0
LINE
8
BLACK
6
CONTINUOUS
10
0.529481
20
-5.57046
11
0.53698
21
-5.57046
0
LINE
8
BLACK
6
CONTINUOUS
10
0.53698
20
-5.57046
11
0.544479
21
-5.57421
0
LINE
8
BLACK
6
CONTINUOUS
10
0.544479
20
-5.57421
11
0.548228
21
-5.57796
0
LINE
8
BLACK
6
CONTINUOUS
10
0.548228
20
-5.57796
11
0.551978
21
-5.58546
0
LINE
8
BLACK
6
CONTINUOUS
10
0.551978
20
-5.58546
11
0.555727
21
-5.60046
0
LINE
8
BLACK
6
CONTINUOUS
10
0.555727
20
-5.60046
11
0.555727
21
-5.61921
0
LINE
8
BLACK
6
CONTINUOUS
10
0.555727
20
-5.61921
11
0.551978
21
-5.63421
0
LINE
8
BLACK
6
CONTINUOUS
10
0.551978
20
-5.63421
11
0.548228
21
-5.6417
0
LINE
8
BLACK
6
CONTINUOUS
10
0.548228
20
-5.6417
11
0.544479
21
-5.64545
0
LINE
8
BLACK
6
CONTINUOUS
10
0.544479
20
-5.64545
11
0.53698
21
-5.6492
0
LINE
8
BLACK
6
CONTINUOUS
10
0.53698
20
-5.6492
11
0.529481
21
-5.6492
0
LINE
8
BLACK
6
CONTINUOUS
10
0.529481
20
-5.6492
11
0.521982
21
-5.64545
0
LINE
8
BLACK
6
CONTINUOUS
10
0.521982
20
-5.64545
11
0.518232
21
-5.6417
0
LINE
8
BLACK
6
CONTINUOUS
10
0.518232
20
-5.6417
11
0.514483
21
-5.63421
0
LINE
8
BLACK
6
CONTINUOUS
10
0.514483
20
-5.63421
11
0.510733
21
-5.61921
0
LINE
8
BLACK
6
CONTINUOUS
10
0.510733
20
-5.61921
11
0.510733
21
-5.60046
0
LINE
8
BLACK
6
CONTINUOUS
10
0.510733
20
-5.60046
11
0.514483
21
-5.58546
0
LINE
8
BLACK
6
CONTINUOUS
10
0.514483
20
-5.58546
11
0.518232
21
-5.57796
0
LINE
8
BLACK
6
CONTINUOUS
10
0.518232
20
-5.57796
11
0.521982
21
-5.57421
0
LINE
8
BLACK
6
CONTINUOUS
10
0.521982
20
-5.57421
11
0.529481
21
-5.57046
0
LINE
8
BLACK
6
CONTINUOUS
10
0.589473
20
-5.6492
11
0.589473
21
-5.59671
0
LINE
8
BLACK
6
CONTINUOUS
10
0.589473
20
-5.60421
11
0.593223
21
-5.60046
0
LINE
8
BLACK
6
CONTINUOUS
10
0.593223
20
-5.60046
11
0.600722
21
-5.59671
0
LINE
8
BLACK
6
CONTINUOUS
10
0.600722
20
-5.59671
11
0.61197
21
-5.59671
0
LINE
8
BLACK
6
CONTINUOUS
10
0.61197
20
-5.59671
11
0.619469
21
-5.60046
0
LINE
8
BLACK
6
CONTINUOUS
10
0.619469
20
-5.60046
11
0.623219
21
-5.60796
0
LINE
8
BLACK
6
CONTINUOUS
10
0.623219
20
-5.60796
11
0.623219
21
-5.6492
0
LINE
8
BLACK
6
CONTINUOUS
10
0.623219
20
-5.60796
11
0.626969
21
-5.60046
0
LINE
8
BLACK
6
CONTINUOUS
10
0.626969
20
-5.60046
11
0.634468
21
-5.59671
0
LINE
8
BLACK
6
CONTINUOUS
10
0.634468
20
-5.59671
11
0.645716
21
-5.59671
0
LINE
8
BLACK
6
CONTINUOUS
10
0.645716
20
-5.59671
11
0.653215
21
-5.60046
0
LINE
8
BLACK
6
CONTINUOUS
10
0.653215
20
-5.60046
11
0.656965
21
-5.60796
0
LINE
8
BLACK
6
CONTINUOUS
10
0.656965
20
-5.60796
11
0.656965
21
-5.6492
0
LINE
8
BLACK
6
CONTINUOUS
10
0.69446
20
-5.6492
11
0.69446
21
-5.59671
0
LINE
8
BLACK
6
CONTINUOUS
10
0.69446
20
-5.60421
11
0.69821
21
-5.60046
0
LINE
8
BLACK
6
CONTINUOUS
10
0.69821
20
-5.60046
11
0.705709
21
-5.59671
0
LINE
8
BLACK
6
CONTINUOUS
10
0.705709
20
-5.59671
11
0.716957
21
-5.59671
0
LINE
8
BLACK
6
CONTINUOUS
10
0.716957
20
-5.59671
11
0.724456
21
-5.60046
0
LINE
8
BLACK
6
CONTINUOUS
10
0.724456
20
-5.60046
11
0.728206
21
-5.60796
0
LINE
8
BLACK
6
CONTINUOUS
10
0.728206
20
-5.60796
11
0.728206
21
-5.6492
0
LINE
8
BLACK
6
CONTINUOUS
10
0.728206
20
-5.60796
11
0.731955
21
-5.60046
0
LINE
8
BLACK
6
CONTINUOUS
10
0.731955
20
-5.60046
11
0.739454
21
-5.59671
0
LINE
8
BLACK
6
CONTINUOUS
10
0.739454
20
-5.59671
11
0.750703
21
-5.59671
0
LINE
8
BLACK
6
CONTINUOUS
10
0.750703
20
-5.59671
11
0.758202
21
-5.60046
0
LINE
8
BLACK
6
CONTINUOUS
10
0.758202
20
-5.60046
11
0.761952
21
-5.60796
0
LINE
8
BLACK
6
CONTINUOUS
10
0.761952
20
-5.60796
11
0.761952
21
-5.6492
0
LINE
8
BLACK
6
CONTINUOUS
10
0.902934
20
-5.56671
11
0.835442
21
-5.66795
0
LINE
8
BLACK
6
CONTINUOUS
10
0.991423
20
-5.57046
11
0.998922
21
-5.57046
0
LINE
8
BLACK
6
CONTINUOUS
10
0.998922
20
-5.57046
11
1.00642
21
-5.57421
0
LINE
8
BLACK
6
CONTINUOUS
10
1.00642
20
-5.57421
11
1.01017
21
-5.57796
0
LINE
8
BLACK
6
CONTINUOUS
10
1.01017
20
-5.57796
11
1.01392
21
-5.58546
0
LINE
8
BLACK
6
CONTINUOUS
10
1.01392
20
-5.58546
11
1.01767
21
-5.60046
0
LINE
8
BLACK
6
CONTINUOUS
10
1.01767
20
-5.60046
11
1.01767
21
-5.61921
0
LINE
8
BLACK
6
CONTINUOUS
10
1.01767
20
-5.61921
11
1.01392
21
-5.63421
0
LINE
8
BLACK
6
CONTINUOUS
10
1.01392
20
-5.63421
11
1.01017
21
-5.6417
0
LINE
8
BLACK
6
CONTINUOUS
10
1.01017
20
-5.6417
11
1.00642
21
-5.64545
0
LINE
8
BLACK
6
CONTINUOUS
10
1.00642
20
-5.64545
11
0.998922
21
-5.6492
0
LINE
8
BLACK
6
CONTINUOUS
10
0.998922
20
-5.6492
11
0.991423
21
-5.6492
0
LINE
8
BLACK
6
CONTINUOUS
10
0.991423
20
-5.6492
11
0.983924
21
-5.64545
0
LINE
8
BLACK
6
CONTINUOUS
10
0.983924
20
-5.64545
11
0.980174
21
-5.6417
0
LINE
8
BLACK
6
CONTINUOUS
10
0.980174
20
-5.6417
11
0.976425
21
-5.63421
0
LINE
8
BLACK
6
CONTINUOUS
10
0.976425
20
-5.63421
11
0.972675
21
-5.61921
0
LINE
8
BLACK
6
CONTINUOUS
10
0.972675
20
-5.61921
11
0.972675
21
-5.60046
0
LINE
8
BLACK
6
CONTINUOUS
10
0.972675
20
-5.60046
11
0.976425
21
-5.58546
0
LINE
8
BLACK
6
CONTINUOUS
10
0.976425
20
-5.58546
11
0.980174
21
-5.57796
0
LINE
8
BLACK
6
CONTINUOUS
10
0.980174
20
-5.57796
11
0.983924
21
-5.57421
0
LINE
8
BLACK
6
CONTINUOUS
10
0.983924
20
-5.57421
11
0.991423
21
-5.57046
0
LINE
8
BLACK
6
CONTINUOUS
10
1.05142
20
-5.6417
11
1.05516
21
-5.64545
0
LINE
8
BLACK
6
CONTINUOUS
10
1.05516
20
-5.64545
11
1.05142
21
-5.6492
0
LINE
8
BLACK
6
CONTINUOUS
10
1.05142
20
-5.6492
11
1.04767
21
-5.64545
0
LINE
8
BLACK
6
CONTINUOUS
10
1.04767
20
-5.64545
11
1.05142
21
-5.6417
0
LINE
8
BLACK
6
CONTINUOUS
10
1.05142
20
-5.6417
11
1.05142
21
-5.6492
0
LINE
8
BLACK
6
CONTINUOUS
10
1.10391
20
-5.57046
11
1.11141
21
-5.57046
0
LINE
8
BLACK
6
CONTINUOUS
10
1.11141
20
-5.57046
11
1.11891
21
-5.57421
0
LINE
8
BLACK
6
CONTINUOUS
10
1.11891
20
-5.57421
11
1.12266
21
-5.57796
0
LINE
8
BLACK
6
CONTINUOUS
10
1.12266
20
-5.57796
11
1.12641
21
-5.58546
0
LINE
8
BLACK
6
CONTINUOUS
10
1.12641
20
-5.58546
11
1.13016
21
-5.60046
0
LINE
8
BLACK
6
CONTINUOUS
10
1.13016
20
-5.60046
11
1.13016
21
-5.61921
0
LINE
8
BLACK
6
CONTINUOUS
10
1.13016
20
-5.61921
11
1.12641
21
-5.63421
0
LINE
8
BLACK
6
CONTINUOUS
10
1.12641
20
-5.63421
11
1.12266
21
-5.6417
0
LINE
8
BLACK
6
CONTINUOUS
10
1.12266
20
-5.6417
11
1.11891
21
-5.64545
0
LINE
8
BLACK
6
CONTINUOUS
10
1.11891
20
-5.64545
11
1.11141
21
-5.6492
0
LINE
8
BLACK
6
CONTINUOUS
10
1.11141
20
-5.6492
11
1.10391
21
-5.6492
0
LINE
8
BLACK
6
CONTINUOUS
10
1.10391
20
-5.6492
11
1.09641
21
-5.64545
0
LINE
8
BLACK
6
CONTINUOUS
10
1.09641
20
-5.64545
11
1.09266
21
-5.6417
0
LINE
8
BLACK
6
CONTINUOUS
10
1.09266
20
-5.6417
11
1.08891
21
-5.63421
0
LINE
8
BLACK
6
CONTINUOUS
10
1.08891
20
-5.63421
11
1.08516
21
-5.61921
0
LINE
8
BLACK
6
CONTINUOUS
10
1.08516
20
-5.61921
11
1.08516
21
-5.60046
0
LINE
8
BLACK
6
CONTINUOUS
10
1.08516
20
-5.60046
11
1.08891
21
-5.58546
0
LINE
8
BLACK
6
CONTINUOUS
10
1.08891
20
-5.58546
11
1.09266
21
-5.57796
0
LINE
8
BLACK
6
CONTINUOUS
10
1.09266
20
-5.57796
11
1.09641
21
-5.57421
0
LINE
8
BLACK
6
CONTINUOUS
10
1.09641
20
-5.57421
11
1.10391
21
-5.57046
0
LINE
8
BLACK
6
CONTINUOUS
10
1.2014
20
-5.57046
11
1.1639
21
-5.57046
0
LINE
8
BLACK
6
CONTINUOUS
10
1.1639
20
-5.57046
11
1.16015
21
-5.60796
0
LINE
8
BLACK
6
CONTINUOUS
10
1.16015
20
-5.60796
11
1.1639
21
-5.60421
0
LINE
8
BLACK
6
CONTINUOUS
10
1.1639
20
-5.60421
11
1.1714
21
-5.60046
0
LINE
8
BLACK
6
CONTINUOUS
10
1.1714
20
-5.60046
11
1.19015
21
-5.60046
0
LINE
8
BLACK
6
CONTINUOUS
10
1.19015
20
-5.60046
11
1.19765
21
-5.60421
0
LINE
8
BLACK
6
CONTINUOUS
10
1.19765
20
-5.60421
11
1.2014
21
-5.60796
0
LINE
8
BLACK
6
CONTINUOUS
10
1.2014
20
-5.60796
11
1.20515
21
-5.61546
0
LINE
8
BLACK
6
CONTINUOUS
10
1.20515
20
-5.61546
11
1.20515
21
-5.63421
0
LINE
8
BLACK
6
CONTINUOUS
10
1.20515
20
-5.63421
11
1.2014
21
-5.6417
0
LINE
8
BLACK
6
CONTINUOUS
10
1.2014
20
-5.6417
11
1.19765
21
-5.64545
0
LINE
8
BLACK
6
CONTINUOUS
10
1.19765
20
-5.64545
11
1.19015
21
-5.6492
0
LINE
8
BLACK
6
CONTINUOUS
10
1.19015
20
-5.6492
11
1.1714
21
-5.6492
0
LINE
8
BLACK
6
CONTINUOUS
10
1.1714
20
-5.6492
11
1.1639
21
-5.64545
0
LINE
8
BLACK
6
CONTINUOUS
10
1.1639
20
-5.64545
11
1.16015
21
-5.6417
0
LINE
8
BLACK
6
CONTINUOUS
10
1.23139
20
-5.57046
11
1.28389
21
-5.57046
0
LINE
8
BLACK
6
CONTINUOUS
10
1.28389
20
-5.57046
11
1.25014
21
-5.6492
0
LINE
8
BLACK
6
CONTINUOUS
10
1.31763
20
-5.6492
11
1.33263
21
-5.6492
0
LINE
8
BLACK
6
CONTINUOUS
10
1.33263
20
-5.6492
11
1.34013
21
-5.64545
0
LINE
8
BLACK
6
CONTINUOUS
10
1.34013
20
-5.64545
11
1.34388
21
-5.6417
0
LINE
8
BLACK
6
CONTINUOUS
10
1.34388
20
-5.6417
11
1.35138
21
-5.63046
0
LINE
8
BLACK
6
CONTINUOUS
10
1.35138
20
-5.63046
11
1.35513
21
-5.61546
0
LINE
8
BLACK
6
CONTINUOUS
10
1.35513
20
-5.61546
11
1.35513
21
-5.58546
0
LINE
8
BLACK
6
CONTINUOUS
10
1.35513
20
-5.58546
11
1.35138
21
-5.57796
0
LINE
8
BLACK
6
CONTINUOUS
10
1.35138
20
-5.57796
11
1.34763
21
-5.57421
0
LINE
8
BLACK
6
CONTINUOUS
10
1.34763
20
-5.57421
11
1.34013
21
-5.57046
0
LINE
8
BLACK
6
CONTINUOUS
10
1.34013
20
-5.57046
11
1.32513
21
-5.57046
0
LINE
8
BLACK
6
CONTINUOUS
10
1.32513
20
-5.57046
11
1.31763
21
-5.57421
0
LINE
8
BLACK
6
CONTINUOUS
10
1.31763
20
-5.57421
11
1.31388
21
-5.57796
0
LINE
8
BLACK
6
CONTINUOUS
10
1.31388
20
-5.57796
11
1.31013
21
-5.58546
0
LINE
8
BLACK
6
CONTINUOUS
10
1.31013
20
-5.58546
11
1.31013
21
-5.60421
0
LINE
8
BLACK
6
CONTINUOUS
10
1.31013
20
-5.60421
11
1.31388
21
-5.61171
0
LINE
8
BLACK
6
CONTINUOUS
10
1.31388
20
-5.61171
11
1.31763
21
-5.61546
0
LINE
8
BLACK
6
CONTINUOUS
10
1.31763
20
-5.61546
11
1.32513
21
-5.61921
0
LINE
8
BLACK
6
CONTINUOUS
10
1.32513
20
-5.61921
11
1.34013
21
-5.61921
0
LINE
8
BLACK
6
CONTINUOUS
10
1.34013
20
-5.61921
11
1.34763
21
-5.61546
0
LINE
8
BLACK
6
CONTINUOUS
10
1.34763
20
-5.61546
11
1.35138
21
-5.61171
0
LINE
8
BLACK
6
CONTINUOUS
10
1.35138
20
-5.61171
11
1.35513
21
-5.60421
0
LINE
8
BLACK
6
CONTINUOUS
10
1.38512
20
-5.57046
11
1.38512
21
-5.58546
0
LINE
8
BLACK
6
CONTINUOUS
10
1.41512
20
-5.57046
11
1.41512
21
-5.58546
0
LINE
8
BLACK
6
CONTINUOUS
10
1.51861
20
-5.6792
11
1.51486
21
-5.67545
0
LINE
8
BLACK
6
CONTINUOUS
10
1.51486
20
-5.67545
11
1.50736
21
-5.6642
0
LINE
8
BLACK
6
CONTINUOUS
10
1.50736
20
-5.6642
11
1.50361
21
-5.6567
0
LINE
8
BLACK
6
CONTINUOUS
10
1.50361
20
-5.6567
11
1.49986
21
-5.64545
0
LINE
8
BLACK
6
CONTINUOUS
10
1.49986
20
-5.64545
11
1.49611
21
-5.62671
0
LINE
8
BLACK
6
CONTINUOUS
10
1.49611
20
-5.62671
11
1.49611
21
-5.61171
0
LINE
8
BLACK
6
CONTINUOUS
10
1.49611
20
-5.61171
11
1.49986
21
-5.59296
0
LINE
8
BLACK
6
CONTINUOUS
10
1.49986
20
-5.59296
11
1.50361
21
-5.58171
0
LINE
8
BLACK
6
CONTINUOUS
10
1.50361
20
-5.58171
11
1.50736
21
-5.57421
0
LINE
8
BLACK
6
CONTINUOUS
10
1.50736
20
-5.57421
11
1.51486
21
-5.56296
0
LINE
8
BLACK
6
CONTINUOUS
10
1.51486
20
-5.56296
11
1.51861
21
-5.55921
0
LINE
8
BLACK
6
CONTINUOUS
10
1.54485
20
-5.57796
11
1.5486
21
-5.57421
0
LINE
8
BLACK
6
CONTINUOUS
10
1.5486
20
-5.57421
11
1.5561
21
-5.57046
0
LINE
8
BLACK
6
CONTINUOUS
10
1.5561
20
-5.57046
11
1.57485
21
-5.57046
0
LINE
8
BLACK
6
CONTINUOUS
10
1.57485
20
-5.57046
11
1.58235
21
-5.57421
0
LINE
8
BLACK
6
CONTINUOUS
10
1.58235
20
-5.57421
11
1.5861
21
-5.57796
0
LINE
8
BLACK
6
CONTINUOUS
10
1.5861
20
-5.57796
11
1.58985
21
-5.58546
0
LINE
8
BLACK
6
CONTINUOUS
10
1.58985
20
-5.58546
11
1.58985
21
-5.59296
0
LINE
8
BLACK
6
CONTINUOUS
10
1.58985
20
-5.59296
11
1.5861
21
-5.60421
0
LINE
8
BLACK
6
CONTINUOUS
10
1.5861
20
-5.60421
11
1.5411
21
-5.6492
0
LINE
8
BLACK
6
CONTINUOUS
10
1.5411
20
-5.6492
11
1.58985
21
-5.6492
0
LINE
8
BLACK
6
CONTINUOUS
10
1.66484
20
-5.6492
11
1.61984
21
-5.6492
0
LINE
8
BLACK
6
CONTINUOUS
10
1.64234
20
-5.6492
11
1.64234
21
-5.57046
0
LINE
8
BLACK
6
CONTINUOUS
10
1.64234
20
-5.57046
11
1.63484
21
-5.58171
0
LINE
8
BLACK
6
CONTINUOUS
10
1.63484
20
-5.58171
11
1.62734
21
-5.58921
0
LINE
8
BLACK
6
CONTINUOUS
10
1.62734
20
-5.58921
11
1.61984
21
-5.59296
0
LINE
8
BLACK
6
CONTINUOUS
10
1.73233
20
-5.59671
11
1.73233
21
-5.6492
0
LINE
8
BLACK
6
CONTINUOUS
10
1.71358
20
-5.56671
11
1.69484
21
-5.62296
0
LINE
8
BLACK
6
CONTINUOUS
10
1.69484
20
-5.62296
11
1.74358
21
-5.62296
0
LINE
8
BLACK
6
CONTINUOUS
10
1.82082
20
-5.6492
11
1.82082
21
-5.57046
0
LINE
8
BLACK
6
CONTINUOUS
10
1.85457
20
-5.6492
11
1.85457
21
-5.60796
0
LINE
8
BLACK
6
CONTINUOUS
10
1.85457
20
-5.60796
11
1.85082
21
-5.60046
0
LINE
8
BLACK
6
CONTINUOUS
10
1.85082
20
-5.60046
11
1.84332
21
-5.59671
0
LINE
8
BLACK
6
CONTINUOUS
10
1.84332
20
-5.59671
11
1.83207
21
-5.59671
0
LINE
8
BLACK
6
CONTINUOUS
10
1.83207
20
-5.59671
11
1.82457
21
-5.60046
0
LINE
8
BLACK
6
CONTINUOUS
10
1.82457
20
-5.60046
11
1.82082
21
-5.60421
0
LINE
8
BLACK
6
CONTINUOUS
10
1.90331
20
-5.6492
11
1.89581
21
-5.64545
0
LINE
8
BLACK
6
CONTINUOUS
10
1.89581
20
-5.64545
11
1.89206
21
-5.6417
0
LINE
8
BLACK
6
CONTINUOUS
10
1.89206
20
-5.6417
11
1.88831
21
-5.63421
0
LINE
8
BLACK
6
CONTINUOUS
10
1.88831
20
-5.63421
11
1.88831
21
-5.61171
0
LINE
8
BLACK
6
CONTINUOUS
10
1.88831
20
-5.61171
11
1.89206
21
-5.60421
0
LINE
8
BLACK
6
CONTINUOUS
10
1.89206
20
-5.60421
11
1.89581
21
-5.60046
0
LINE
8
BLACK
6
CONTINUOUS
10
1.89581
20
-5.60046
11
1.90331
21
-5.59671
0
LINE
8
BLACK
6
CONTINUOUS
10
1.90331
20
-5.59671
11
1.91456
21
-5.59671
0
LINE
8
BLACK
6
CONTINUOUS
10
1.91456
20
-5.59671
11
1.92206
21
-5.60046
0
LINE
8
BLACK
6
CONTINUOUS
10
1.92206
20
-5.60046
11
1.92581
21
-5.60421
0
LINE
8
BLACK
6
CONTINUOUS
10
1.92581
20
-5.60421
11
1.92956
21
-5.61171
0
LINE
8
BLACK
6
CONTINUOUS
10
1.92956
20
-5.61171
11
1.92956
21
-5.63421
0
LINE
8
BLACK
6
CONTINUOUS
10
1.92956
20
-5.63421
11
1.92581
21
-5.6417
0
LINE
8
BLACK
6
CONTINUOUS
10
1.92581
20
-5.6417
11
1.92206
21
-5.64545
0
LINE
8
BLACK
6
CONTINUOUS
10
1.92206
20
-5.64545
11
1.91456
21
-5.6492
0
LINE
8
BLACK
6
CONTINUOUS
10
1.91456
20
-5.6492
11
1.90331
21
-5.6492
0
LINE
8
BLACK
6
CONTINUOUS
10
1.97455
20
-5.6492
11
1.96705
21
-5.64545
0
LINE
8
BLACK
6
CONTINUOUS
10
1.96705
20
-5.64545
11
1.9633
21
-5.63795
0
LINE
8
BLACK
6
CONTINUOUS
10
1.9633
20
-5.63795
11
1.9633
21
-5.57046
0
LINE
8
BLACK
6
CONTINUOUS
10
2.03454
20
-5.64545
11
2.02704
21
-5.6492
0
LINE
8
BLACK
6
CONTINUOUS
10
2.02704
20
-5.6492
11
2.01205
21
-5.6492
0
LINE
8
BLACK
6
CONTINUOUS
10
2.01205
20
-5.6492
11
2.00455
21
-5.64545
0
LINE
8
BLACK
6
CONTINUOUS
10
2.00455
20
-5.64545
11
2.0008
21
-5.63795
0
LINE
8
BLACK
6
CONTINUOUS
10
2.0008
20
-5.63795
11
2.0008
21
-5.60796
0
LINE
8
BLACK
6
CONTINUOUS
10
2.0008
20
-5.60796
11
2.00455
21
-5.60046
0
LINE
8
BLACK
6
CONTINUOUS
10
2.00455
20
-5.60046
11
2.01205
21
-5.59671
0
LINE
8
BLACK
6
CONTINUOUS
10
2.01205
20
-5.59671
11
2.02704
21
-5.59671
0
LINE
8
BLACK
6
CONTINUOUS
10
2.02704
20
-5.59671
11
2.03454
21
-5.60046
0
LINE
8
BLACK
6
CONTINUOUS
10
2.03454
20
-5.60046
11
2.03829
21
-5.60796
0
LINE
8
BLACK
6
CONTINUOUS
10
2.03829
20
-5.60796
11
2.03829
21
-5.61546
0
LINE
8
BLACK
6
CONTINUOUS
10
2.03829
20
-5.61546
11
2.0008
21
-5.62296
0
LINE
8
BLACK
6
CONTINUOUS
10
2.06829
20
-5.64545
11
2.07579
21
-5.6492
0
LINE
8
BLACK
6
CONTINUOUS
10
2.07579
20
-5.6492
11
2.09079
21
-5.6492
0
LINE
8
BLACK
6
CONTINUOUS
10
2.09079
20
-5.6492
11
2.09828
21
-5.64545
0
LINE
8
BLACK
6
CONTINUOUS
10
2.09828
20
-5.64545
11
2.10203
21
-5.63795
0
LINE
8
BLACK
6
CONTINUOUS
10
2.10203
20
-5.63795
11
2.10203
21
-5.63421
0
LINE
8
BLACK
6
CONTINUOUS
10
2.10203
20
-5.63421
11
2.09828
21
-5.62671
0
LINE
8
BLACK
6
CONTINUOUS
10
2.09828
20
-5.62671
11
2.09079
21
-5.62296
0
LINE
8
BLACK
6
CONTINUOUS
10
2.09079
20
-5.62296
11
2.07954
21
-5.62296
0
LINE
8
BLACK
6
CONTINUOUS
10
2.07954
20
-5.62296
11
2.07204
21
-5.61921
0
LINE
8
BLACK
6
CONTINUOUS
10
2.07204
20
-5.61921
11
2.06829
21
-5.61171
0
LINE
8
BLACK
6
CONTINUOUS
10
2.06829
20
-5.61171
11
2.06829
21
-5.60796
0
LINE
8
BLACK
6
CONTINUOUS
10
2.06829
20
-5.60796
11
2.07204
21
-5.60046
0
LINE
8
BLACK
6
CONTINUOUS
10
2.07204
20
-5.60046
11
2.07954
21
-5.59671
0
LINE
8
BLACK
6
CONTINUOUS
10
2.07954
20
-5.59671
11
2.09079
21
-5.59671
0
LINE
8
BLACK
6
CONTINUOUS
10
2.09079
20
-5.59671
11
2.09828
21
-5.60046
0
LINE
8
BLACK
6
CONTINUOUS
10
2.12828
20
-5.6792
11
2.13203
21
-5.67545
0
LINE
8
BLACK
6
CONTINUOUS
10
2.13203
20
-5.67545
11
2.13953
21
-5.6642
0
LINE
8
BLACK
6
CONTINUOUS
10
2.13953
20
-5.6642
11
2.14328
21
-5.6567
0
LINE
8
BLACK
6
CONTINUOUS
10
2.14328
20
-5.6567
11
2.14703
21
-5.64545
0
LINE
8
BLACK
6
CONTINUOUS
10
2.14703
20
-5.64545
11
2.15078
21
-5.62671
0
LINE
8
BLACK
6
CONTINUOUS
10
2.15078
20
-5.62671
11
2.15078
21
-5.61171
0
LINE
8
BLACK
6
CONTINUOUS
10
2.15078
20
-5.61171
11
2.14703
21
-5.59296
0
LINE
8
BLACK
6
CONTINUOUS
10
2.14703
20
-5.59296
11
2.14328
21
-5.58171
0
LINE
8
BLACK
6
CONTINUOUS
10
2.14328
20
-5.58171
11
2.13953
21
-5.57421
0
LINE
8
BLACK
6
CONTINUOUS
10
2.13953
20
-5.57421
11
2.13203
21
-5.56296
0
LINE
8
BLACK
6
CONTINUOUS
10
2.13203
20
-5.56296
11
2.12828
21
-5.55921
  0
ENDSEC
  0
EOF
