%TF.GenerationSoftware,KiCad,Pcbnew,(6.99.0-5337-gc57e6db79a-dirty)*%
%TF.CreationDate,2023-01-28T12:16:51-05:00*%
%TF.ProjectId,m0116,6d303131-362e-46b6-9963-61645f706362,rev?*%
%TF.SameCoordinates,Original*%
%TF.FileFunction,Legend,Top*%
%TF.FilePolarity,Positive*%
%FSLAX46Y46*%
G04 Gerber Fmt 4.6, Leading zero omitted, Abs format (unit mm)*
G04 Created by KiCad (PCBNEW (6.99.0-5337-gc57e6db79a-dirty)) date 2023-01-28 12:16:51*
%MOMM*%
%LPD*%
G01*
G04 APERTURE LIST*
%ADD10C,0.150000*%
%ADD11C,0.120000*%
%ADD12R,1.000000X1.500000*%
%ADD13O,1.800000X1.070000*%
%ADD14R,1.800000X1.070000*%
%TA.AperFunction,Profile*%
%ADD15C,0.150000*%
%TD*%
%TA.AperFunction,Profile*%
%ADD16C,0.050000*%
%TD*%
%TA.AperFunction,Profile*%
%ADD17C,0.200000*%
%TD*%
G04 APERTURE END LIST*
D10*
%TO.C,LED1*%
X289557380Y-124559047D02*
X289557380Y-125035237D01*
X289557380Y-125035237D02*
X288557380Y-125035237D01*
X289033571Y-124225713D02*
X289033571Y-123892380D01*
X289557380Y-123749523D02*
X289557380Y-124225713D01*
X289557380Y-124225713D02*
X288557380Y-124225713D01*
X288557380Y-124225713D02*
X288557380Y-123749523D01*
X289557380Y-123320951D02*
X288557380Y-123320951D01*
X288557380Y-123320951D02*
X288557380Y-123082856D01*
X288557380Y-123082856D02*
X288605000Y-122939999D01*
X288605000Y-122939999D02*
X288700238Y-122844761D01*
X288700238Y-122844761D02*
X288795476Y-122797142D01*
X288795476Y-122797142D02*
X288985952Y-122749523D01*
X288985952Y-122749523D02*
X289128809Y-122749523D01*
X289128809Y-122749523D02*
X289319285Y-122797142D01*
X289319285Y-122797142D02*
X289414523Y-122844761D01*
X289414523Y-122844761D02*
X289509761Y-122939999D01*
X289509761Y-122939999D02*
X289557380Y-123082856D01*
X289557380Y-123082856D02*
X289557380Y-123320951D01*
X289557380Y-121797142D02*
X289557380Y-122368570D01*
X289557380Y-122082856D02*
X288557380Y-122082856D01*
X288557380Y-122082856D02*
X288700238Y-122178094D01*
X288700238Y-122178094D02*
X288795476Y-122273332D01*
X288795476Y-122273332D02*
X288843095Y-122368570D01*
X291457380Y-127304285D02*
X291457380Y-127875713D01*
X291457380Y-127589999D02*
X290457380Y-127589999D01*
X290457380Y-127589999D02*
X290600238Y-127685237D01*
X290600238Y-127685237D02*
X290695476Y-127780475D01*
X290695476Y-127780475D02*
X290743095Y-127875713D01*
%TO.C,LED2*%
X289557380Y-104559047D02*
X289557380Y-105035237D01*
X289557380Y-105035237D02*
X288557380Y-105035237D01*
X289033571Y-104225713D02*
X289033571Y-103892380D01*
X289557380Y-103749523D02*
X289557380Y-104225713D01*
X289557380Y-104225713D02*
X288557380Y-104225713D01*
X288557380Y-104225713D02*
X288557380Y-103749523D01*
X289557380Y-103320951D02*
X288557380Y-103320951D01*
X288557380Y-103320951D02*
X288557380Y-103082856D01*
X288557380Y-103082856D02*
X288605000Y-102939999D01*
X288605000Y-102939999D02*
X288700238Y-102844761D01*
X288700238Y-102844761D02*
X288795476Y-102797142D01*
X288795476Y-102797142D02*
X288985952Y-102749523D01*
X288985952Y-102749523D02*
X289128809Y-102749523D01*
X289128809Y-102749523D02*
X289319285Y-102797142D01*
X289319285Y-102797142D02*
X289414523Y-102844761D01*
X289414523Y-102844761D02*
X289509761Y-102939999D01*
X289509761Y-102939999D02*
X289557380Y-103082856D01*
X289557380Y-103082856D02*
X289557380Y-103320951D01*
X288652619Y-102368570D02*
X288605000Y-102320951D01*
X288605000Y-102320951D02*
X288557380Y-102225713D01*
X288557380Y-102225713D02*
X288557380Y-101987618D01*
X288557380Y-101987618D02*
X288605000Y-101892380D01*
X288605000Y-101892380D02*
X288652619Y-101844761D01*
X288652619Y-101844761D02*
X288747857Y-101797142D01*
X288747857Y-101797142D02*
X288843095Y-101797142D01*
X288843095Y-101797142D02*
X288985952Y-101844761D01*
X288985952Y-101844761D02*
X289557380Y-102416189D01*
X289557380Y-102416189D02*
X289557380Y-101797142D01*
X291457380Y-107304285D02*
X291457380Y-107875713D01*
X291457380Y-107589999D02*
X290457380Y-107589999D01*
X290457380Y-107589999D02*
X290600238Y-107685237D01*
X290600238Y-107685237D02*
X290695476Y-107780475D01*
X290695476Y-107780475D02*
X290743095Y-107875713D01*
%TO.C,LED3*%
X289557380Y-84559047D02*
X289557380Y-85035237D01*
X289557380Y-85035237D02*
X288557380Y-85035237D01*
X289033571Y-84225713D02*
X289033571Y-83892380D01*
X289557380Y-83749523D02*
X289557380Y-84225713D01*
X289557380Y-84225713D02*
X288557380Y-84225713D01*
X288557380Y-84225713D02*
X288557380Y-83749523D01*
X289557380Y-83320951D02*
X288557380Y-83320951D01*
X288557380Y-83320951D02*
X288557380Y-83082856D01*
X288557380Y-83082856D02*
X288605000Y-82939999D01*
X288605000Y-82939999D02*
X288700238Y-82844761D01*
X288700238Y-82844761D02*
X288795476Y-82797142D01*
X288795476Y-82797142D02*
X288985952Y-82749523D01*
X288985952Y-82749523D02*
X289128809Y-82749523D01*
X289128809Y-82749523D02*
X289319285Y-82797142D01*
X289319285Y-82797142D02*
X289414523Y-82844761D01*
X289414523Y-82844761D02*
X289509761Y-82939999D01*
X289509761Y-82939999D02*
X289557380Y-83082856D01*
X289557380Y-83082856D02*
X289557380Y-83320951D01*
X288557380Y-82416189D02*
X288557380Y-81797142D01*
X288557380Y-81797142D02*
X288938333Y-82130475D01*
X288938333Y-82130475D02*
X288938333Y-81987618D01*
X288938333Y-81987618D02*
X288985952Y-81892380D01*
X288985952Y-81892380D02*
X289033571Y-81844761D01*
X289033571Y-81844761D02*
X289128809Y-81797142D01*
X289128809Y-81797142D02*
X289366904Y-81797142D01*
X289366904Y-81797142D02*
X289462142Y-81844761D01*
X289462142Y-81844761D02*
X289509761Y-81892380D01*
X289509761Y-81892380D02*
X289557380Y-81987618D01*
X289557380Y-81987618D02*
X289557380Y-82273332D01*
X289557380Y-82273332D02*
X289509761Y-82368570D01*
X289509761Y-82368570D02*
X289462142Y-82416189D01*
X291457380Y-87304285D02*
X291457380Y-87875713D01*
X291457380Y-87589999D02*
X290457380Y-87589999D01*
X290457380Y-87589999D02*
X290600238Y-87685237D01*
X290600238Y-87685237D02*
X290695476Y-87780475D01*
X290695476Y-87780475D02*
X290743095Y-87875713D01*
D11*
%TO.C,LED1*%
X289940000Y-127090000D02*
X289940000Y-119790000D01*
X295440000Y-127090000D02*
X295440000Y-119790000D01*
X295440000Y-119790000D02*
X294290000Y-119790000D01*
%TO.C,LED2*%
X289940000Y-107090000D02*
X289940000Y-99790000D01*
X295440000Y-107090000D02*
X295440000Y-99790000D01*
X295440000Y-99790000D02*
X294290000Y-99790000D01*
%TO.C,LED3*%
X289940000Y-87090000D02*
X289940000Y-79790000D01*
X295440000Y-87090000D02*
X295440000Y-79790000D01*
X295440000Y-79790000D02*
X294290000Y-79790000D01*
%TD*%
%LPC*%
D12*
%TO.C,LED1*%
X291089999Y-125889999D03*
D13*
X292689999Y-122804999D03*
D12*
X294289999Y-125889999D03*
D13*
X292689999Y-125344999D03*
D14*
X292689999Y-124074999D03*
D12*
X294289999Y-120989999D03*
D13*
X292689999Y-121534999D03*
D12*
X291089999Y-120989999D03*
%TD*%
%TO.C,LED2*%
X291089999Y-105889999D03*
D13*
X292689999Y-102804999D03*
D12*
X294289999Y-105889999D03*
D13*
X292689999Y-105344999D03*
D14*
X292689999Y-104074999D03*
D12*
X294289999Y-100989999D03*
D13*
X292689999Y-101534999D03*
D12*
X291089999Y-100989999D03*
%TD*%
%TO.C,LED3*%
X291089999Y-85889999D03*
D13*
X292689999Y-82804999D03*
D12*
X294289999Y-85889999D03*
D13*
X292689999Y-85344999D03*
D14*
X292689999Y-84074999D03*
D12*
X294289999Y-80989999D03*
D13*
X292689999Y-81534999D03*
D12*
X291089999Y-80989999D03*
%TD*%
D15*
X372000000Y-131000000D02*
G75*
G03*
X375000000Y-128000000I0J3000000D01*
G01*
X4000000Y-128000000D02*
G75*
G03*
X7000000Y-131000000I3000000J0D01*
G01*
D16*
X7000000Y-131000000D02*
X372000000Y-131000000D01*
X375000000Y-128000000D02*
X375000000Y-41000000D01*
X4000000Y-41000000D02*
X4000000Y-128000000D01*
X307000000Y-19000000D02*
X72000000Y-19000000D01*
D17*
X303470000Y-32265000D02*
G75*
G03*
X303470000Y-32265000I-8000000J0D01*
G01*
X73394000Y-22755000D02*
G75*
G03*
X73394000Y-22755000I-1524000J0D01*
G01*
X308969000Y-22765000D02*
G75*
G03*
X308969000Y-22765000I-1524000J0D01*
G01*
D16*
X69000000Y-22000000D02*
X69000000Y-35000000D01*
D15*
X72000000Y-19000000D02*
G75*
G03*
X69000000Y-22000000I0J-3000000D01*
G01*
D16*
X372000000Y-38000000D02*
X313000000Y-38000000D01*
D17*
X46494000Y-125665000D02*
G75*
G03*
X46494000Y-125665000I-1524000J0D01*
G01*
X300719000Y-125665000D02*
G75*
G03*
X300719000Y-125665000I-1524000J0D01*
G01*
D15*
X66000000Y-38000000D02*
G75*
G03*
X69000000Y-35000000I0J3000000D01*
G01*
X375000000Y-41000000D02*
G75*
G03*
X372000000Y-38000000I-3000000J0D01*
G01*
X7000000Y-38000000D02*
G75*
G03*
X4000000Y-41000000I0J-3000000D01*
G01*
D17*
X197970000Y-32265000D02*
G75*
G03*
X197970000Y-32265000I-8000000J0D01*
G01*
D16*
X66000000Y-38000000D02*
X7000000Y-38000000D01*
D15*
X310000000Y-35000000D02*
G75*
G03*
X313000000Y-38000000I3000000J0D01*
G01*
D17*
X92470000Y-32265000D02*
G75*
G03*
X92470000Y-32265000I-8000000J0D01*
G01*
D15*
X310000000Y-22000000D02*
G75*
G03*
X307000000Y-19000000I-3000000J0D01*
G01*
D16*
X310000000Y-35000000D02*
X310000000Y-22000000D01*
X250550000Y-131000000D02*
X250550000Y-131000000D01*
M02*
